<svg width="64" height="40" viewBox="0 0 64 40" fill="none" xmlns="http://www.w3.org/2000/svg">
<path d="M40.7654 35.2134H23.689V4.21484H40.7657L40.7654 35.2134Z" fill="#FF5F00"/>
<path d="M24.7714 19.7144C24.7714 13.4264 27.6862 7.82494 32.2251 4.21513C28.7894 1.47866 24.5399 -0.00650866 20.1646 2.14422e-05C9.38669 2.14422e-05 0.649902 8.82633 0.649902 19.7144C0.649902 30.6025 9.38669 39.4288 20.1646 39.4288C24.54 39.4354 28.7896 37.9503 32.2254 35.2137C27.6868 31.6046 24.7714 26.0028 24.7714 19.7144Z" fill="#EB001B"/>
<path d="M63.8031 19.7144C63.8031 30.6025 55.0664 39.4288 44.2884 39.4288C39.9125 39.4353 35.6625 37.9502 32.2261 35.2137C36.7662 31.6039 39.681 26.0028 39.681 19.7144C39.681 13.4261 36.7662 7.82494 32.2261 4.21513C35.6624 1.47875 39.9123 -0.0063942 44.2881 2.06943e-05C55.066 2.06943e-05 63.8028 8.82633 63.8028 19.7144" fill="#F79E1B"/>
</svg>
