<svg width="32" height="41" viewBox="0 0 32 41" fill="none" xmlns="http://www.w3.org/2000/svg">
<path d="M26.7091 21.5558C26.7286 20.0117 27.1287 18.4977 27.8725 17.1547C28.6162 15.8117 29.6793 14.6833 30.9629 13.8745C30.1474 12.6809 29.0717 11.6987 27.8211 11.0058C26.5706 10.3129 25.1795 9.92835 23.7586 9.88279C20.7275 9.55671 17.7889 11.7417 16.2443 11.7417C14.6699 11.7417 12.2917 9.91516 9.73081 9.96916C8.07436 10.024 6.46002 10.5177 5.04508 11.4021C3.63014 12.2865 2.46285 13.5315 1.65695 15.0157C-1.83402 21.2103 0.769932 30.3142 4.11399 35.3215C5.78709 37.7734 7.74247 40.5122 10.301 40.4151C12.8048 40.3086 13.7399 38.7788 16.7621 38.7788C19.7562 38.7788 20.6335 40.4151 23.244 40.3533C25.9306 40.3086 27.6233 37.8905 29.2377 35.4154C30.4398 33.6683 31.3648 31.7375 31.9785 29.6943C30.4177 29.0177 29.0857 27.8851 28.1487 26.4379C27.2116 24.9906 26.711 23.2927 26.7091 21.5558V21.5558Z" fill="white"/>
<path d="M21.7784 6.59095C23.2433 4.78866 23.9649 2.47213 23.7902 0.133301C21.5522 0.374209 19.485 1.47044 18.0003 3.20358C17.2744 4.05026 16.7185 5.03527 16.3643 6.10229C16.01 7.16931 15.8645 8.29743 15.9359 9.42215C17.0553 9.43396 18.1627 9.1853 19.1747 8.69489C20.1867 8.20448 21.077 7.4851 21.7784 6.59095Z" fill="white"/>
</svg>
