<svg width="24" height="24" viewBox="0 0 24 24" fill="none" xmlns="http://www.w3.org/2000/svg">
<path fill-rule="evenodd" clip-rule="evenodd" d="M4.32102 6.03465L9.68126 0.926469C10.9775 -0.308822 13.0225 -0.308824 14.3187 0.926468L19.6789 6.03465H22.7811C23.5227 6.03465 24.0924 6.6878 23.9875 7.41783L22.1974 19.8787C21.9401 21.6697 20.3976 23 18.5783 23H5.42173C3.60239 23 2.0599 21.6697 1.80261 19.8787L0.0124767 7.41783C-0.0924003 6.6878 0.47726 6.03465 1.21885 6.03465H4.32102ZM10.946 2.23884C11.5352 1.67734 12.4647 1.67734 13.0539 2.23884L17.0371 6.03465H6.96291L10.946 2.23884ZM1.92139 7.85236L3.61217 19.6216C3.74082 20.5171 4.51206 21.1823 5.42173 21.1823H18.5783C19.4879 21.1823 20.2592 20.5171 20.3878 19.6216L22.0786 7.85236H1.92139Z" fill="#362D2C"/>
<path fill-rule="evenodd" clip-rule="evenodd" d="M7 11C7.55228 11 8 11.4274 8 11.9545V17.0455C8 17.5726 7.55228 18 7 18C6.44772 18 6 17.5726 6 17.0455V11.9545C6 11.4274 6.44772 11 7 11Z" fill="#362D2C"/>
<path fill-rule="evenodd" clip-rule="evenodd" d="M12 11C12.5523 11 13 11.4274 13 11.9545V17.0455C13 17.5726 12.5523 18 12 18C11.4477 18 11 17.5726 11 17.0455V11.9545C11 11.4274 11.4477 11 12 11Z" fill="#362D2C"/>
<path fill-rule="evenodd" clip-rule="evenodd" d="M17 11C17.5523 11 18 11.4274 18 11.9545V17.0455C18 17.5726 17.5523 18 17 18C16.4477 18 16 17.5726 16 17.0455V11.9545C16 11.4274 16.4477 11 17 11Z" fill="#362D2C"/>
</svg>
