<svg width="15" height="15" viewBox="0 0 15 15" fill="none" xmlns="http://www.w3.org/2000/svg">
<path d="M14.2236 10.1038C13.8892 10.1038 13.6199 10.3731 13.6199 10.7075V13.6197H1.53305V10.7075C1.53305 10.3731 1.26373 10.1038 0.929296 10.1038C0.594866 10.1038 0.325546 10.3731 0.325546 10.7075V14.2235C0.325546 14.5579 0.594866 14.8272 0.929296 14.8272H14.2236C14.5581 14.8272 14.8274 14.5579 14.8274 14.2235V10.7075C14.8274 10.3731 14.5581 10.1038 14.2236 10.1038Z" fill="#F5AB34"/>
<path d="M7.13254 10.8201C7.47289 11.1634 7.89018 10.974 8.01745 10.8201L11.489 7.08512C11.7169 6.83948 11.7021 6.4577 11.4565 6.22981C11.2108 6.00192 10.829 6.01672 10.6041 6.26236L8.18022 8.86974V1.02099C8.18022 0.686556 7.9109 0.417236 7.57647 0.417236C7.24204 0.417236 6.97272 0.686556 6.97272 1.02099V8.87269L4.54884 6.26532C4.32096 6.01968 3.93917 6.00784 3.69353 6.23277C3.44789 6.46066 3.43605 6.84244 3.66098 7.08808L7.13254 10.8201Z" fill="#F5AB34"/>
</svg>
