<svg width="158" height="98" viewBox="0 0 158 98" fill="none" xmlns="http://www.w3.org/2000/svg">
<rect width="158" height="98" rx="10" fill="white"/>
<path d="M84.356 65.413C60.5354 65.413 36.7169 65.4087 12.8963 65.4348C12.1486 65.4348 12 65.2889 12 64.5438C12.0306 52.7695 12.0219 40.993 12.0153 29.2186C12.0153 28.7437 11.9257 28.2558 12.6777 28.4562C13.1367 28.7568 12.7017 29.5084 13.1651 29.6652C13.6089 29.8155 13.9586 29.2121 14.4199 29.1271C15.6047 28.9093 16.7851 29.2273 17.9677 29.1816C17.8847 28.9507 17.5152 28.8026 17.7032 28.4562H21.6358C21.415 29.138 21.4216 29.5084 22.3834 29.3929C23.7037 29.2361 25.0481 29.7698 26.3728 29.3994C26.9893 29.2273 27.5773 29.0073 27.9467 29.1271C27.4418 28.9986 26.6417 29.1555 25.8569 29.0574C25.4678 29.0095 24.9454 29.0923 24.9148 28.4562H47.861C47.9332 28.5695 47.9244 28.6784 47.837 28.7808C47.4173 29.1598 46.8926 29.0988 46.3855 29.1162C44.2083 29.186 42.031 28.9834 39.8494 29.101C38.3433 29.1838 36.8437 29.5977 35.2414 29.0182C35.355 29.5694 35.6348 29.5258 35.7857 29.4996C37.0513 29.2687 38.3105 29.4604 39.5718 29.528C39.9762 29.5497 40.3675 29.4822 40.7304 29.2796C41.1916 29.0226 41.7359 28.857 42.2037 29.0269C43.3229 29.4321 44.4859 29.2034 45.6095 29.406C45.9439 29.467 46.25 29.4169 46.5757 29.3602C47.5091 29.2012 48.4491 29.0814 49.3781 29.4016C49.5508 29.4604 49.7322 29.504 49.9137 29.4909C53.7457 29.1947 57.5777 29.7937 61.4163 29.4604C62.811 29.3384 64.2275 29.7022 65.6549 29.5606C66.4484 29.4822 67.2529 29.4866 68.0333 29.2905C68.5011 29.1751 68.9798 29.1075 69.4367 29.2557C70.5865 29.626 71.5461 29.2491 72.449 28.5738C73.6316 28.5564 74.812 28.5716 75.9902 28.5651C76.751 28.5651 77.5139 28.5629 78.2724 28.5673C78.8298 28.955 79.1337 29.6303 79.8638 29.8438C80.1633 29.931 80.1524 30.2969 79.9119 30.5584C79.4397 30.933 78.8757 30.8568 78.338 30.859C74.5147 30.8677 70.6892 30.859 66.866 30.8655C65.5806 30.8655 65.6287 30.8764 65.5544 32.0963C65.4188 34.3357 64.8264 36.5163 64.5969 38.747C64.328 41.3415 64.1969 43.9404 64.2756 46.5479C64.2909 47.0446 64.4854 47.4498 64.7893 47.831C65.2024 48.3517 65.421 49.0096 65.0232 49.5476C64.2865 50.5453 64.6319 51.5539 64.8002 52.5691C64.9292 53.3555 65.2593 54.094 65.4298 54.8717C65.7511 56.3486 64.962 57.1939 63.4536 57.0305C61.0775 56.7713 60.2687 56.0763 59.6959 53.7934C59.5189 53.0919 59.3374 52.3839 59.2522 51.6694C59.1473 50.7915 58.627 50.5889 57.8838 50.6782C57.0181 50.7806 56.159 50.944 55.2977 51.0747C54.0342 51.2642 52.7642 51.3274 51.4898 51.3034C50.823 51.2904 50.2897 51.5213 49.8874 52.0637C47.0959 55.8149 44.3591 59.6076 41.5479 63.3457C41.502 63.4067 41.4998 63.4786 41.5326 63.5657C41.9392 63.7444 42.3808 63.6529 42.8092 63.6529C54.4999 63.6594 66.1905 63.6551 77.8811 63.6616C78.5304 63.6616 79.1949 63.5592 79.8223 63.838C80.7688 64.692 81.9405 64.6397 83.1012 64.6549C83.6565 64.6615 84.2904 64.5831 84.356 65.4109V65.413Z" fill="#791821"/>
<path d="M150.141 48.8886C149.863 49.4136 149.363 49.333 148.897 49.3373C146.768 49.3526 144.626 49.2044 142.536 49.7839C142.368 49.8318 142.21 49.9189 142.046 49.9887H84.356C83.3133 49.1848 82.0585 49.6684 80.9174 49.4506C80.3731 49.346 79.9272 49.3242 79.9337 48.6424C79.5446 48.2917 79.5425 47.8255 79.5315 47.355C79.5009 46.1742 79.5971 44.9935 79.4463 43.8194C79.4354 42.8173 79.2976 41.9263 78.2221 41.3948C77.6428 41.1073 77.5182 40.5016 78.0276 39.9418C78.0953 39.8677 78.2833 39.8133 78.2549 39.7523C77.6931 38.5258 78.9479 38.491 79.431 37.9507C79.6212 36.8354 79.5119 35.72 79.5184 34.6068C79.5403 31.0103 79.5075 27.4137 79.5381 23.8171C79.2714 22.8695 79.1031 21.9306 79.713 21.0375C80.4453 20.8523 80.5393 21.3882 80.6267 21.8762C80.712 22.3576 80.5721 22.8608 80.7338 23.3423C80.5895 27.7579 80.7098 32.1757 80.6682 36.5936C80.6617 37.3538 80.7032 38.1141 80.6355 38.8744C80.618 40.3884 80.7601 41.9046 80.5961 43.4164C80.6967 44.6036 80.6529 45.7952 80.6682 46.9846C80.6835 48.3135 80.7885 48.4376 82.0804 48.4376C85.1276 48.4376 88.1749 48.4834 91.22 48.4049C92.1228 48.54 93.03 48.3505 93.9328 48.4398C104.412 48.4442 114.89 48.4594 125.367 48.4333C130.889 48.4202 136.406 48.54 141.924 48.6533C143.915 48.6947 145.904 48.3875 147.9 48.6446C148.556 48.7295 149.208 48.6163 149.774 48.2176C150.381 48.1762 150.268 48.5291 150.141 48.8886Z" fill="#68151E"/>
<path d="M24.9148 28.4623C26.0625 28.8282 27.2429 28.7302 28.4189 28.7215C28.8037 28.7193 29.3349 28.5559 29.3567 29.1223C29.3764 29.6125 28.8321 29.6059 28.5129 29.5297C27.7194 29.338 27.0702 29.6669 26.3488 29.8804C25.234 30.2094 24.071 29.8063 22.9234 29.8129C22.5714 29.8129 22.261 29.8063 21.9047 29.8869C21.3845 30.0068 20.8227 29.778 20.6543 29.2792C20.5035 28.8282 21.074 28.8065 21.3735 28.6474C21.4675 28.5973 21.5484 28.5233 21.6358 28.4601C22.7288 28.4601 23.8218 28.4601 24.9148 28.4601V28.4623Z" fill="#72171F"/>
<path d="M17.7032 28.4623C17.8825 28.8544 18.2738 28.8522 18.6126 28.9677C18.8946 29.0635 18.9973 29.2835 18.8684 29.5733C18.7416 29.8564 18.5623 29.9218 18.2607 29.7802C17.172 29.2683 15.9632 29.7279 14.833 29.3794C14.3937 29.2443 14.1204 29.8172 13.7335 30.0024C13.4231 30.1527 13.163 30.5427 12.7629 30.2834C12.3498 30.0155 12.4525 29.5994 12.5378 29.2029C12.5902 28.9568 12.6296 28.7084 12.6755 28.4601H17.7032V28.4623Z" fill="#72171F"/>
<path d="M133.75 28.6518C124.456 28.6605 115.163 28.6692 105.868 28.6758C103.872 28.6758 101.874 28.6627 99.8787 28.6562C99.73 28.5973 99.7278 28.532 99.8721 28.4623H133.744C133.831 28.5015 133.862 28.5429 133.836 28.5843C133.807 28.6278 133.781 28.6496 133.75 28.6496V28.6518Z" fill="#A24853"/>
<path d="M47.8654 28.6779C47.8654 28.606 47.8632 28.5363 47.861 28.4644H76.0514C76.1913 28.5276 76.1935 28.5973 76.0602 28.6692C74.8185 28.6801 73.5769 28.6888 72.3353 28.6997C71.9265 29.1768 71.3603 29.131 70.8204 29.131C64.5728 29.1397 58.3275 29.1746 52.0799 29.1245C51.0635 29.1158 50.047 29.1898 49.0305 29.1267C48.5933 29.1005 48.1474 29.1027 47.8676 28.6779H47.8654Z" fill="#8D2B38"/>
<path d="M76.058 28.6692C76.0537 28.6017 76.0515 28.5319 76.0493 28.4644H99.8699C99.8699 28.5298 99.8721 28.5929 99.8765 28.6583C93.3163 28.6648 86.7562 28.6714 80.1961 28.6801C79.6168 28.6801 79.0375 28.691 78.456 28.6975C77.656 28.6888 76.8581 28.6801 76.058 28.6692Z" fill="#983B4A"/>
<path d="M133.75 28.6518C133.748 28.5886 133.746 28.5254 133.744 28.4623C139.5 28.4623 145.253 28.4579 151.009 28.4753C151.293 28.4753 151.686 28.2292 151.883 28.6801C145.839 28.6714 139.795 28.6605 133.753 28.6518H133.75Z" fill="#AE4F60"/>
<path d="M46.1013 52.1329C44.0246 54.8298 41.9392 57.518 39.8735 60.2236C38.9969 61.3716 37.9935 62.4347 37.3771 63.7613C37.1891 64.1643 36.8677 64.1121 36.553 64.1121C29.1643 64.1055 21.7757 64.0859 14.3893 64.099C13.5477 64.099 13.5739 63.6284 13.5761 63.0446C13.6023 56.3111 13.622 49.5755 13.6373 42.842C13.6461 39.0406 13.6723 35.2393 13.6242 31.438C13.6133 30.486 13.8865 30.2115 14.8549 30.2137C30.5415 30.2703 46.2259 30.2878 61.9125 30.3313C62.4328 30.3313 63.187 30.0612 63.423 30.5383C63.646 30.987 62.9225 31.3247 62.5967 31.6798C58.6248 36.0126 54.9218 40.5721 51.0679 45.0052C50.9061 45.1925 50.7837 45.4147 50.6438 45.6216C50.5257 46.713 49.7366 47.0986 48.8119 47.3121C48.3529 47.4188 47.8654 47.4232 47.4042 47.3644C45.9264 47.177 44.9296 48.0375 43.9765 48.9241C43.3011 49.5515 43.5459 50.1833 44.4684 50.3728C44.8947 50.4621 45.3384 50.3989 45.7691 50.4599C46.2084 50.5209 46.6915 50.5993 46.8052 51.096C46.9276 51.6275 46.6369 51.987 46.1035 52.1329H46.1013Z" fill="#FEFEFE"/>
<path d="M79.737 58.9863C80.2026 60.1212 79.8528 61.3063 79.9447 62.4674C79.9862 62.9989 79.9403 63.537 79.9337 64.075C77.8308 64.3299 75.717 64.1665 73.6119 64.1687C62.7606 64.1731 51.9094 64.1382 41.056 64.1164C40.8462 64.1164 40.6363 64.0881 40.28 64.0642C42.1468 61.8531 43.7557 59.6049 45.3887 57.3742C46.7593 55.5008 48.1495 53.6426 49.4961 51.7539C49.9399 51.1331 50.4405 50.8477 51.2296 50.8913C53.4265 51.0133 55.5775 50.5928 57.7329 50.2377C59.4052 49.9633 59.3964 49.9633 59.7003 51.5731C59.8686 52.4619 60.0457 53.3507 60.273 54.2264C60.7277 55.9757 62.553 57.0693 64.3193 56.6358C65.0975 56.4441 65.3795 55.8907 65.0734 55.137C64.5663 53.8844 64.2602 52.5861 64.0854 51.2529C64.0045 50.6299 63.9826 50.0765 64.5685 49.5951C65.1062 49.1529 65.1018 48.5103 64.4854 48.1312C63.9127 47.7783 63.8733 47.3165 63.8558 46.7544C63.7006 42.1362 64.0766 37.5681 65.0406 33.0457C65.1696 32.4422 65.3401 31.8018 65.0494 31.231C64.6581 30.4642 64.927 30.3161 65.6702 30.3205C70.44 30.3531 75.2098 30.3619 79.9796 30.3771L79.949 30.425L79.9862 30.4664C80.2704 30.6973 80.301 31.0197 80.3032 31.3487C80.3141 32.7189 80.3185 34.0913 80.301 35.4615C80.2966 35.8253 80.2791 36.1957 79.8769 36.3786C79.514 36.9189 79.0768 37.3742 78.4997 37.7118C75.9858 39.1801 74.1278 41.2474 72.8009 43.8267C72.2085 44.9747 71.2379 45.9288 71.0258 47.2751C70.464 50.8346 71.627 53.7385 74.3835 56.0389C75.5989 57.0518 76.9608 57.786 78.4866 58.226C78.9631 58.3632 79.5031 58.4373 79.7348 58.9884L79.737 58.9863Z" fill="#FEFEFE"/>
<path d="M46.1013 52.1329C46.1625 52.0066 46.2172 51.8759 46.2893 51.7561C46.4314 51.5208 46.7637 51.3269 46.5691 51.011C46.4183 50.7649 46.1057 50.8912 45.863 50.8825C45.3559 50.8629 44.8465 50.8934 44.3438 50.8542C43.7732 50.8085 43.2879 50.5754 43.0672 50.0003C42.8333 49.3859 43.1743 48.9481 43.6005 48.5865C44.7919 47.5779 45.9942 46.5126 47.743 46.9766C49.1311 47.3448 49.8612 46.4603 50.6438 45.6216C52.1521 45.199 53.0374 44.051 53.8462 42.8442C54.1151 42.4433 54.3468 42.049 54.8146 41.8617C55.1578 41.7245 55.4792 41.6003 55.5469 41.1559C55.595 40.8422 55.842 40.5655 56.1612 40.7507C56.5219 40.9576 56.2049 41.2191 56.0912 41.4783C55.501 42.8071 54.2004 43.5413 53.3916 44.7154C52.8713 45.4713 53.0549 46.3558 52.5215 47.0638C52.2898 47.3709 52.7511 47.567 53.1117 47.5953C54.8452 47.7347 56.5765 47.8807 58.31 48.0244C58.9855 48.0811 59.3462 47.8785 59.4948 47.1139C59.6675 46.2251 59.8227 45.3907 59.6959 44.4627C59.5516 43.3997 59.8752 42.3627 60.1506 41.3018C60.4566 40.119 60.872 38.8882 60.7518 37.6072C60.7211 37.2783 60.7408 36.884 60.3386 36.8165C59.7528 36.7184 60.0238 37.2042 59.9429 37.47C59.7899 37.9689 59.379 38.1911 58.8893 38.3C58.5854 38.3675 58.3559 38.2303 58.2728 37.9798C58.1067 37.4831 58.4477 37.1563 58.7822 36.8775C59.5276 36.2566 60.2796 35.6663 60.837 34.8363C61.1955 34.3069 61.648 33.6687 62.529 34.1937C62.8372 34.3788 63.1192 34.1849 62.8962 33.771C62.765 33.5271 62.4 33.2918 62.6951 33.0282C63.3181 32.4705 63.6132 31.6275 64.3564 31.194C64.5335 31.0916 64.7281 31.2114 64.7893 31.3988C64.8286 31.5142 64.8155 31.7473 64.7477 31.7843C63.7815 32.2941 63.1891 32.8104 64.1947 33.9105C64.3171 34.0455 64.2012 35.0607 64.1335 35.6205C63.9586 37.0692 64.105 38.5854 63.4514 39.9665C63.294 40.2976 63.4383 40.6745 63.4624 41.0339C63.5848 42.7461 63.8078 44.4518 63.3421 46.1728C63.176 46.7871 63.5542 47.4777 63.9367 48.0223C64.293 48.5277 64.3827 49.0418 64.081 49.5406C63.7509 50.0874 63.67 50.7061 63.8537 51.2136C64.1837 52.1242 63.5673 53.1786 64.3411 53.9955C64.3892 54.0456 64.3652 54.2177 64.3171 54.2983C63.8012 55.1696 62.8896 55.3025 62.0327 55.3004C61.2676 55.3004 60.9135 54.6664 60.9091 53.941C60.8982 52.6601 60.6774 51.499 59.8271 50.4403C59.3899 49.8979 59.0095 49.7084 58.3734 49.802C56.5109 50.0787 54.6463 50.3401 52.7817 50.595C52.5346 50.6298 52.2089 50.6821 52.0341 50.5623C50.8755 49.7737 50.1585 50.1789 49.295 51.1657C48.6895 51.8585 47.6949 52.1721 47.3058 53.1895C47.1243 53.6644 46.5407 53.5511 46.2849 53.0697C46.1406 52.7973 46.156 52.4444 46.0991 52.1264L46.1013 52.1329Z" fill="#72171F"/>
<path d="M47.8654 28.6779C56.0213 28.6844 64.1772 28.6932 72.3331 28.6997C72.202 29.5602 70.7155 30.2551 69.7602 29.8412C69.3449 29.6604 68.9754 29.497 68.5186 29.6212C66.5731 30.1505 64.5969 30.0634 62.6055 30.0002C60.2927 29.9261 57.9756 30.0242 55.6606 29.9675C54.3403 29.9349 52.9762 30.279 51.7018 29.5994C51.4439 29.4621 51.1378 29.5928 50.8908 29.7824C50.5083 30.0765 50.0099 30.0895 49.6361 29.9458C48.5059 29.5166 47.4217 29.5841 46.3068 29.9545C45.9986 30.0568 45.6488 29.8281 45.3559 29.8434C44.1361 29.9044 42.9841 29.5297 41.8081 29.412C40.9708 29.3293 40.1576 30.1287 39.1412 30.0089C38.1225 29.8913 37.0951 29.6277 36.0393 29.961C35.3266 30.1876 34.7342 29.6713 33.9932 29.3619C34.9091 28.7585 35.7551 28.4622 36.741 28.8696C37.1891 29.0548 37.5847 29.0395 38.081 28.8413C39.0406 28.4601 40.0921 28.7019 41.102 28.6888C43.3557 28.6583 45.6095 28.6779 47.8632 28.6757L47.8654 28.6779Z" fill="#72171F"/>
<path d="M60.2817 37.9275C59.9932 39.6833 59.7156 41.2648 59.4773 42.8529C59.2849 44.1425 59.2019 45.4452 59.2565 46.7479C59.2871 47.4799 58.9986 47.6999 58.2947 47.6454C56.7011 47.5212 55.1031 47.4515 53.5074 47.3513C53.2669 47.3361 52.9565 47.4515 52.8144 47.1705C52.6702 46.883 52.9565 46.7196 53.1073 46.5344C54.9545 44.2558 56.7951 41.9728 58.6597 39.7094C59.1275 39.1409 59.4773 38.4503 60.2796 37.9318L60.2817 37.9275Z" fill="#FDFCFC"/>
<path d="M31.9471 29.9806C31.7416 29.9806 31.5973 29.9806 31.453 29.9806C30.9371 29.9719 30.2639 29.9719 30.3032 29.3227C30.3447 28.6256 31.0071 28.6343 31.5776 28.7563C31.7197 28.7868 31.864 28.8173 31.993 28.8761C32.4345 29.0809 33.298 28.8718 33.2018 29.6016C33.1166 30.2398 32.3493 29.8847 31.9493 29.9806H31.9471Z" fill="#72171F"/>
<path d="M57.4028 38.7792C57.6957 38.7901 57.8487 38.9339 57.8466 39.1801C57.8466 39.5417 57.5493 39.6397 57.2673 39.7051C57.0552 39.753 56.9 39.6484 56.9372 39.4219C56.9875 39.1343 57.1295 38.8882 57.4028 38.7814V38.7792Z" fill="#72171F"/>
<path d="M149.97 63.7199C149.922 64.2885 149.623 64.5652 149.039 64.5303C144.98 64.2841 140.92 64.6349 136.852 64.417C132.979 64.2101 129.086 64.3517 125.203 64.3495C115.235 64.3451 105.265 64.3473 95.2969 64.3321C94.77 64.3321 94.1995 64.4998 93.7186 64.112C93.4847 63.5391 93.8607 63.1427 94.147 62.7396C96.8795 58.9056 99.7125 55.1435 102.524 51.3683C102.965 50.7758 103.542 50.4817 104.283 50.4359C107.141 50.2573 110.017 50.2813 112.822 49.5711C113.556 49.3859 113.904 49.7911 113.945 50.5078C114.013 51.6667 114.245 52.8017 114.514 53.9258C114.859 55.3679 116.094 56.1107 117.565 55.8319C118.215 55.7099 118.258 55.3178 118.169 54.7928C117.965 53.6143 117.565 52.4858 117.303 51.3204C117.146 50.6233 117.054 49.9567 117.659 49.4121C118.123 48.9938 117.659 48.617 117.607 48.2205C117.428 47.8044 117.465 47.3665 117.465 46.933C117.461 43.7112 117.465 40.4893 117.465 37.2652C117.465 36.6858 117.638 36.1564 117.786 35.5987C118.208 34.015 118.486 32.3856 118.23 30.7234C118.267 30.5927 118.339 30.4838 118.442 30.3967C118.879 30.1527 119.36 30.2159 119.83 30.2159C126.596 30.2159 133.361 30.2268 140.127 30.2202C141.209 30.2202 142.291 30.5121 143.38 30.2398C143.417 30.2311 143.791 30.0351 143.629 30.4097C143.592 30.4947 143.463 30.5404 143.375 30.6036C143.128 31.2484 142.501 31.3269 141.963 31.499C138.562 32.5925 135.243 33.8887 132.067 35.5312C130.284 36.4549 128.609 37.5332 127.184 38.9687C126.187 39.9708 125.562 41.1951 125.055 42.4804C124.707 43.3583 124.91 43.7308 125.787 44.0793C126.194 44.2405 126.626 44.3124 127.057 44.3908C127.789 44.5237 128.48 44.7829 128.946 45.3885C130.41 47.2947 132.478 47.6868 134.655 47.445C137.499 47.1313 140.311 47.0049 143.126 47.6105C144.04 47.8066 144.864 48.1551 145.467 48.898C146.256 49.8739 146.202 50.73 145.273 51.5731C144.538 52.2375 143.69 52.7603 142.768 53.0958C138.157 54.771 133.576 56.5551 128.668 57.2435C126.832 57.5005 124.965 57.4352 123.14 57.8033C122.727 57.8861 122.318 57.7729 122.108 57.3655C121.885 56.932 122.158 56.603 122.436 56.3068C122.683 56.041 122.987 55.8319 123.221 55.553C123.378 55.3657 123.658 55.1479 123.446 54.9082C123.205 54.6359 122.98 54.9409 122.81 55.0956C121.977 55.8515 121.157 56.6226 120.322 57.3764C119.026 58.5484 117.675 59.6441 116.26 60.668C115.922 60.912 115.436 61.132 115.668 61.6853C115.878 62.1842 116.368 62.1667 116.8 62.1232C124.174 61.3781 131.475 60.278 138.319 57.2544C142.112 55.5792 145.391 53.1023 148.519 50.4207C148.921 50.0765 149.253 49.582 149.903 49.6953C149.981 49.7889 150.062 49.8804 150.141 49.9741C150.36 51.3748 150.287 52.7908 150.217 54.1915C150.078 57.0148 150.176 59.8358 150.13 62.6569C150.123 63.0163 150.174 63.3845 149.968 63.7156L149.97 63.7199Z" fill="#0C0D16"/>
<path d="M80.1983 54.3833C80.2048 49.5276 80.2114 44.6741 80.2201 39.8184C80.2201 39.4611 80.1633 39.0886 80.4125 38.7727C80.559 37.8861 81.3372 37.7097 81.9908 37.4613C84.3232 36.5769 86.7562 36.5682 89.1914 36.823C90.7107 36.9821 92.184 37.3437 93.5699 38.0451C94.4356 38.483 94.7219 38.3 94.9471 37.372C95.3034 35.9059 94.5733 35.1653 92.8748 34.7623C89.1564 33.8822 85.613 34.4965 82.087 35.6663C80.1021 36.3242 80.0802 36.3002 80.0999 34.2852C80.113 32.989 80.0125 31.6885 80.1633 30.3945C80.5174 30.1309 80.9306 30.2028 81.3241 30.2028C93.1196 30.1985 104.915 30.1985 116.711 30.2028C117.067 30.2028 117.445 30.1266 117.769 30.3619C117.823 30.8607 117.493 31.1679 117.187 31.475C112.737 35.9691 108.765 40.8793 104.712 45.7153C103.676 46.9505 102.504 47.5997 100.969 47.5278C99.7431 47.4711 98.8906 48.031 98.0949 48.8087C97.5266 49.3642 97.6315 49.8195 98.3725 50.1005C98.8578 50.2835 99.3868 50.1811 99.883 50.2857C100.653 50.449 100.847 50.815 100.55 51.5404C100.44 51.8106 100.27 52.048 100.102 52.2833C97.5419 55.8493 95.0367 59.4524 92.4922 63.0272C92.1709 63.4782 91.7884 63.8441 91.3402 64.1557C91.1348 64.2166 90.9293 64.3277 90.726 64.3277C87.4907 64.3321 84.2555 64.3125 81.0224 64.3234C80.3251 64.3256 80.1655 63.9879 80.1764 63.3801C80.2048 61.8618 80.2005 60.3434 80.2092 58.8251C80.5218 58.5745 80.8781 58.6007 81.2476 58.6399C85.5758 59.0952 89.3881 57.5855 93.065 55.5618C93.2552 55.4572 93.4431 55.3461 93.5787 55.1675C93.6464 55.0782 93.6989 54.9867 93.6115 54.7558C92.2715 55.0891 90.8987 55.4028 89.5893 55.8689C86.8612 56.8427 84.2358 56.5443 81.6235 55.4855C81.0377 55.2481 80.5174 54.9453 80.1939 54.3789L80.1983 54.3833Z" fill="#0C0D15"/>
<path d="M149.905 49.6996C145.749 53.5685 141.211 56.8339 135.786 58.7531C130.087 60.7703 124.185 61.792 118.195 62.4129C117.616 62.4739 117.039 62.5436 116.461 62.6155C115.797 62.6982 115.338 62.4717 115.1 61.816C114.864 61.1646 115.172 60.8226 115.692 60.4915C118.252 58.8577 120.396 56.7316 122.591 54.6664C122.984 54.2961 123.43 53.7362 123.948 54.3092C124.399 54.808 124.141 55.394 123.638 55.8232C123.146 56.2414 122.657 56.6662 122.136 57.1128C122.394 57.4896 122.733 57.579 123.022 57.47C124.969 56.7316 127.059 57.2304 129.035 56.7577C129.846 56.5638 130.705 56.5377 131.501 56.3002C135.711 55.0455 140.013 54.0565 143.946 52.0022C144.042 51.9521 144.149 51.9107 144.232 51.8454C144.838 51.3705 145.85 51.0938 145.657 50.1288C145.448 49.0701 144.621 48.373 143.557 48.1333C141.124 47.5844 138.656 47.4406 136.177 47.7456C134.284 47.9787 132.511 47.9809 130.622 47.262C129.634 46.8851 129.125 46.4886 128.685 45.6739C128.438 45.2164 127.995 44.9616 127.439 44.8962C126.9 44.8309 126.355 44.7372 125.837 44.5782C124.373 44.1294 124.106 43.5804 124.668 42.1536C125.575 39.8532 127.116 38.0712 129.195 36.7293C133.578 33.8974 138.428 32.1459 143.373 30.6058C144.759 30.3814 146.147 30.1658 147.529 29.9239C148.202 29.8063 148.823 29.9566 149.42 30.2267C150.53 30.73 150.854 31.5752 150.388 32.7014C150.25 33.0325 150.091 33.355 149.942 33.6795C149.712 35.4571 148.313 36.2261 146.973 37.0169C146.512 37.2892 146.057 37.0626 145.703 36.6879C145.38 36.3459 145.102 35.9647 144.776 35.6227C144.276 35.0977 143.716 34.93 143.004 35.1064C138.424 36.237 134.094 37.9841 130.008 40.3259C129.851 40.4152 129.704 40.5263 129.562 40.6374C129.278 40.8596 128.913 41.0687 128.989 41.487C129.064 41.8922 129.466 42.0098 129.809 42.1166C130.474 42.3257 131.149 42.3758 131.853 42.3322C136.5 42.0403 141.146 41.8922 145.751 42.8136C147.155 43.0947 148.289 43.8615 149.321 44.8004C149.614 45.0683 149.874 45.3885 149.765 45.8438C150.617 47.1008 150.543 48.3882 149.903 49.6974L149.905 49.6996Z" fill="#A1844C"/>
<path d="M91.3446 64.1578C91.0604 63.8833 91.4145 63.8071 91.5107 63.6699C94.4071 59.5919 97.3123 55.5182 100.211 51.4402C100.331 51.2725 100.412 51.0786 100.524 50.876C100.04 50.5688 99.5573 50.7104 99.1048 50.717C98.5233 50.7235 98.0228 50.5275 97.5768 50.2181C97.2489 49.9916 96.8773 49.5058 97.1877 49.2269C98.1102 48.3926 98.6917 47.0093 100.281 47.1269C102.086 47.262 103.418 46.7152 104.651 45.1838C108.056 40.9468 111.62 36.8296 115.305 32.8256C116.09 31.9717 116.947 31.1831 117.769 30.364C117.996 30.303 118.232 30.1244 118.442 30.3989C118.418 30.4599 118.409 30.5209 118.416 30.5862C117.616 36.0606 117.6 41.5698 117.683 47.0812C117.69 47.4995 117.552 47.9678 117.996 48.2771C118.51 48.8239 119.013 49.3816 117.878 49.789C117.353 49.9763 117.528 50.3358 117.614 50.6799C117.976 52.1547 118.311 53.6382 118.726 55.1C118.929 55.8167 118.658 56.102 118.02 56.2589C116.011 56.749 114.468 55.8188 114.039 53.8103C113.784 52.6144 113.401 51.4293 113.552 50.1746C113.594 49.8325 113.465 49.7171 113.108 49.8434C110.38 50.8041 107.516 50.6691 104.694 50.8085C103.772 50.8542 103.182 51.1439 102.635 51.9064C99.6972 55.9996 96.6981 60.0515 93.7186 64.1164C92.936 64.6523 92.1381 64.2842 91.3446 64.16V64.1578Z" fill="#A1844C"/>
<path d="M149.767 45.846C148.442 44.3037 146.799 43.3474 144.759 43.0424C140.527 42.4128 136.284 42.378 132.032 42.7222C131.151 42.7941 130.288 42.7745 129.44 42.5239C128.898 42.3627 128.397 42.0883 128.294 41.4848C128.198 40.9163 128.718 40.6658 129.086 40.4152C131.136 39.0189 133.396 38.0124 135.681 37.067C137.764 36.2044 139.904 35.516 142.059 34.8516C143.677 34.3527 144.919 34.5379 145.736 36.0802C146.263 37.0714 146.788 36.8775 147.496 36.2806C148.416 35.5029 149.295 34.7034 149.944 33.6796C150.189 33.9976 150.115 34.3701 150.115 34.7252C150.119 38.0473 150.126 41.3716 150.108 44.6936C150.108 45.0923 150.305 45.589 149.767 45.846Z" fill="#0D0E18"/>
<path d="M80.1633 30.3945C80.172 31.9477 80.2136 33.5031 80.1786 35.0563C80.1633 35.7665 80.3994 35.8188 80.9918 35.6097C83.2827 34.8058 85.6064 34.1349 88.035 33.8343C89.3335 33.6752 90.5379 34.1392 91.7993 34.185C92.4091 34.2068 93.0234 34.307 93.6224 34.442C95.4105 34.8429 96.1843 37.2195 95.0105 38.6224C94.5492 39.1736 94.1055 38.886 93.6573 38.6486C90.2756 36.8514 86.7059 36.8252 83.0684 37.5702C82.1044 37.7663 81.1994 38.1606 80.4103 38.7749C80.0299 38.3479 80.2573 37.8273 80.1808 37.3524C80.1327 37.0496 80.3688 36.5834 79.7654 36.5682C79.6693 36.6292 79.608 36.6052 79.5862 36.4919C79.8966 36.1608 79.9753 35.7709 79.9709 35.3221C79.9578 33.7035 79.9797 32.085 79.9884 30.4664C80.0409 30.4272 80.0999 30.4032 80.1633 30.3967V30.3945Z" fill="#A1844C"/>
<path d="M149.97 63.72C149.811 59.1366 150.082 54.5597 150.143 49.9785C150.377 50.253 150.342 50.5863 150.342 50.9109C150.349 55.0717 150.353 59.2324 150.353 63.3954C150.353 63.7178 150.394 64.0533 150.141 64.319C150.084 64.1186 150.027 63.9204 149.97 63.72Z" fill="#733C4B"/>
<path d="M79.584 36.4897C79.6452 36.5115 79.7064 36.5376 79.7632 36.566C79.8354 37.409 79.584 38.2782 79.9753 39.0929C79.7086 39.4916 79.3435 39.7748 78.9501 40.0492C74.5999 43.0881 74.2742 48.8283 78.2134 52.3922C78.7511 52.8779 79.5665 53.1807 79.5993 54.0891C79.0484 53.9759 78.5959 54.0761 78.3271 54.6991C78.5435 54.954 79.2036 54.7993 79.1402 55.3047C79.0834 55.7491 78.6462 55.5966 78.3358 55.5944C78.0997 55.5944 78.0363 55.736 78.0276 55.9408C78.0123 56.2763 78.174 56.5224 78.4779 56.603C79.7785 56.9472 79.8682 57.9036 79.7326 58.9841C76.6919 58.3806 74.1737 56.9146 72.2741 54.4551C69.8913 51.3705 69.876 47.4123 72.0817 44.197C72.8752 43.0424 73.4545 41.7484 74.3508 40.6396C75.7913 38.8598 77.7237 37.7314 79.5796 36.4854L79.584 36.4897Z" fill="#70151D"/>
<path d="M79.6015 54.0892C78.8036 53.3594 77.8986 52.7604 77.1728 51.9413C73.5397 47.8328 74.6786 41.6918 79.5599 39.1932C79.6824 39.13 79.8354 39.1257 79.9753 39.0952C79.9731 43.831 79.9709 48.5669 79.9643 53.3028C79.9643 53.6143 80.0583 53.9825 79.6015 54.0892Z" fill="#FDFDFD"/>
<path d="M80.1983 54.3832C83.5144 56.1739 86.9311 56.5225 90.5008 55.1675C91.5851 54.7558 92.7393 54.5336 93.8322 54.1393C94.5471 53.8822 94.4837 54.2547 94.4093 54.6926C94.335 55.1457 94.0771 55.5138 93.6814 55.7295C90.2494 57.6117 86.7344 59.2411 82.6837 59.1888C81.8421 59.1779 81.0136 59.0995 80.2114 58.8272C80.207 57.3459 80.2026 55.8624 80.1961 54.3811L80.1983 54.3832Z" fill="#A1844C"/>
<path d="M22.425 54.5945C23.9552 53.9061 25.3476 53.1873 26.9281 52.9912C29.5097 52.6688 31.816 53.4683 34.026 54.6708C35.084 55.248 36.1486 55.7883 37.3858 55.8645C37.8755 55.895 38.1903 56.1935 38.3542 56.6313C38.892 58.0734 38.8964 59.4763 37.9301 60.7573C37.3727 61.4979 36.6776 61.7637 35.7289 61.4042C33.6456 60.6135 31.7963 59.3544 29.7415 58.5091C27.2298 57.4766 24.6853 56.8927 21.9922 57.8295C20.4008 58.3828 19.0935 59.3173 18.0246 60.5961C17.4191 61.3193 16.8529 62.073 16.2321 62.7832C15.7971 63.282 15.2856 63.8114 14.5576 63.343C13.8253 62.8725 14.0898 62.1885 14.4002 61.6003C15.3686 59.7748 16.3283 57.9427 17.371 56.1608C19.1263 53.1546 20.9341 50.181 22.7332 47.2031C23.1835 46.4581 23.4786 45.7349 23.0283 44.8679C22.7747 44.3777 22.9125 43.8789 23.2644 43.4497C25.9051 40.2235 28.5392 36.9885 31.4837 34.0237C31.7373 33.7688 32.052 33.5684 32.3581 33.3767C33.0642 32.9345 33.8358 32.2897 34.6555 32.7472C35.5299 33.2351 35.707 34.2612 35.7748 35.2153C35.871 36.5529 35.296 37.6856 34.5594 38.7422C32.8762 41.1537 30.8017 43.2537 28.9939 45.5672C26.9412 48.1943 24.7946 50.7496 22.8928 53.4922C22.696 53.7776 22.4184 54.039 22.4206 54.5989L22.425 54.5945Z" fill="#74161F"/>
<path d="M117.998 48.2772C117.452 48.1116 117.596 47.6476 117.589 47.2794C117.504 42.5065 117.45 37.7358 117.828 32.9716C117.893 32.159 117.935 31.3095 118.416 30.584C119.238 32.3747 118.394 34.0739 118.084 35.7926C118.018 36.1608 117.802 36.5159 117.802 36.9232C117.802 40.3564 117.791 43.7896 117.802 47.2206C117.802 47.5713 117.928 47.9243 117.996 48.275L117.998 48.2772Z" fill="#261F1D"/>
<path d="M113.845 37.9275C113.281 41.0296 113.084 44.1469 112.944 47.2707C112.925 47.7108 112.695 47.8153 112.308 47.7848C110.682 47.6585 109.049 47.591 107.429 47.4014C106.448 47.2882 106.332 46.9048 106.933 46.1597C109.02 43.5718 111.115 40.986 113.213 38.4067C113.364 38.2216 113.458 37.9493 113.847 37.9275H113.845Z" fill="#0E0E16"/>
</svg>
