<svg width="88" height="88" viewBox="0 0 88 88" fill="none" xmlns="http://www.w3.org/2000/svg">
<g clip-path="url(#clip0_17_1078)">
<path d="M0 77.3462C0.401414 76.5268 1.06246 76.258 1.9592 76.269C4.67887 76.304 7.39855 76.2819 10.2213 76.2819C10.2416 75.9707 10.2729 75.7001 10.2729 75.4275C10.2766 68.4674 10.2858 61.5091 10.249 54.5489C10.2471 54.1051 9.97828 53.5656 9.66157 53.236C7.09657 50.5551 5.84813 47.3586 5.87391 43.6741C5.9181 37.3124 11.0684 31.6743 17.4118 30.9377C17.9016 30.8807 18.4632 30.6266 18.8112 30.2822C24.1199 25.0198 29.4045 19.7334 34.669 14.4267C34.9654 14.1266 35.1845 13.6036 35.1882 13.182C35.2748 6.31756 40.2888 0.819397 47.1865 0.0699833C53.6735 -0.633398 59.8734 3.90359 61.2765 10.455C61.514 11.5598 61.4275 12.7308 61.5545 13.8651C61.6042 14.3107 61.7184 14.8355 61.9964 15.154C66.8631 20.7129 71.7556 26.2498 76.6646 31.7719C76.9611 32.1051 77.4214 32.3924 77.8523 32.4918C81.0047 33.2228 83.3414 35.8817 83.5145 39.1169C83.5992 40.6875 83.5808 42.2655 83.5587 43.8398C83.5513 44.3922 83.7115 44.696 84.2142 44.9814C86.5251 46.2961 87.8803 48.3234 87.9355 50.9694C88.0387 55.9501 87.9871 60.9346 87.9687 65.919C87.965 67.1416 86.9228 67.8045 85.8217 67.2834C83.8827 66.3664 81.9751 65.385 80.0601 64.4183C79.3972 64.0832 79.1854 63.5069 79.1891 62.7814C79.2057 59.8022 79.1965 56.8248 79.1965 53.8455C79.1965 53.5343 79.1965 53.225 79.1965 52.8512H73.3299C73.3299 53.3557 73.3299 53.8345 73.3299 54.3114C73.3299 57.0328 73.3042 59.7524 73.3428 62.4739C73.3576 63.5142 72.9985 64.1918 72.03 64.643C70.2678 65.4623 68.5517 66.3848 66.8005 67.2263C65.5963 67.8045 64.5393 67.2024 64.5357 65.873C64.5209 60.8057 64.4896 55.7347 64.6167 50.6692C64.6793 48.1816 66.0456 46.3017 68.1779 45.044C68.71 44.731 68.9733 44.4438 68.9291 43.7993C68.8555 42.7461 69.1888 41.5419 68.7763 40.6709C68.3804 39.8331 67.2645 39.3323 66.4562 38.6933C61.4661 34.7548 56.4687 30.8291 51.4915 26.8758C50.9189 26.421 50.3609 26.316 49.6336 26.2811C48.0537 26.2056 47.0263 26.909 45.9693 27.9916C41.5887 32.4808 37.1308 36.8944 32.6766 41.308C32.2126 41.7665 32.0911 42.2103 32.15 42.8216C32.5385 46.8909 31.2293 50.3544 28.4102 53.2913C28.1266 53.5859 27.8744 54.0591 27.8725 54.4495C27.8412 61.4667 27.8486 68.4821 27.8504 75.4993C27.8504 75.7221 27.8762 75.9449 27.8983 76.2745H28.935C38.0994 76.2745 47.2656 76.2745 56.43 76.2745C58.2659 76.2745 58.6415 76.6502 58.6415 78.4841C58.6415 81.0049 58.6212 83.5256 58.6525 86.0445C58.6636 86.9376 58.3966 87.6041 57.5662 87.9945H0V77.3407V77.3462ZM55.6732 79.2869H2.97378V85.0208H55.6732V79.2869ZM24.8656 76.234V55.8507C20.9656 57.646 17.1209 57.622 13.2872 55.8728V76.234H24.8656ZM43.9825 25.6476C40.1101 24.1967 37.4034 21.455 35.9818 17.695C31.4521 22.2247 26.9132 26.7635 22.4 31.2765C24.2359 31.7406 25.998 32.6557 27.5595 33.952C29.1136 35.2409 30.2423 36.8668 31.082 38.5516C35.4073 34.2263 39.6922 29.9397 43.9825 25.6476ZM8.78877 44.0387C8.81271 49.6528 13.4198 54.2635 19.0248 54.2801C24.6667 54.2966 29.318 49.6657 29.3309 44.0203C29.3438 38.3803 24.6944 33.7292 19.0525 33.7402C13.4069 33.7494 8.76483 38.4098 8.78877 44.0405V44.0387ZM48.3797 23.4731C54.0105 23.4878 58.5899 18.9416 58.636 13.2906C58.682 7.61936 54.1118 2.9811 48.4459 2.9498C42.7948 2.91849 38.1583 7.52362 38.1417 13.1838C38.1233 18.8606 42.6991 23.4583 48.3797 23.4749V23.4731ZM73.6025 32.7606C69.2845 27.872 65.0126 23.0367 60.6559 18.102C59.2676 21.2874 57.1003 23.5927 54.0123 25.1505C59.1663 29.2106 64.2282 33.1989 69.3361 37.2221C70.1868 35.1194 71.6046 33.6979 73.6043 32.7606H73.6025ZM85.0575 63.5492C85.0575 63.2638 85.0575 63.0429 85.0575 62.8219C85.0575 59.1282 85.0649 55.4364 85.0557 51.7427C85.0483 48.7543 83.2254 46.9461 80.2203 46.9369C77.6148 46.9295 75.0093 46.9332 72.4056 46.9369C69.2293 46.9406 67.4726 48.6935 67.4634 51.8827C67.4542 55.4898 67.4597 59.0969 67.4634 62.7041C67.4634 62.9563 67.4873 63.2086 67.5058 63.5879C68.2994 63.1975 68.9954 62.8164 69.7246 62.5089C70.2531 62.2861 70.4169 61.9675 70.4133 61.3967C70.3838 58.2186 70.3948 55.0424 70.4022 51.8643C70.4059 50.3489 70.8938 49.8683 72.4148 49.8646C74.9632 49.8609 77.5098 49.8609 80.0583 49.8646C81.6289 49.8664 82.1298 50.3599 82.1316 51.9084C82.1353 54.3997 82.1279 56.8892 82.1353 59.3805C82.1371 60.2956 81.8296 61.4464 82.266 62.0614C82.7779 62.7832 83.9472 63.041 84.8329 63.4977C84.8568 63.5106 84.8863 63.5106 85.0612 63.5492H85.0575ZM80.6107 43.9798C80.6107 42.3557 80.6659 40.8145 80.5978 39.277C80.5039 37.1982 78.8245 35.4692 76.8101 35.2593C74.5931 35.0273 72.4553 36.3181 72.0778 38.4448C71.7593 40.2419 71.8569 42.1127 71.7685 43.9798H80.6107Z" fill="white"/>
<path d="M48.3852 20.5269C44.3729 20.5214 41.0603 17.207 41.0713 13.2077C41.0824 9.2047 44.4171 5.87008 48.3981 5.88297C52.4048 5.89402 55.7027 9.20838 55.699 13.2224C55.6972 17.2512 52.4104 20.5325 48.3833 20.5269H48.3852ZM52.7694 13.1819C52.7547 10.7864 50.7624 8.80145 48.3797 8.8125C45.9969 8.82355 44.0064 10.8214 43.9991 13.2077C43.9917 15.6475 45.9969 17.6213 48.4478 17.59C50.8784 17.5587 52.7842 15.6143 52.7694 13.1819Z" fill="#FFAC1F"/>
<path d="M16.1413 67.4877C16.1413 66.0883 16.1284 64.6871 16.145 63.2877C16.1579 62.2658 16.7397 61.6268 17.6033 61.6305C18.4632 61.6342 19.0543 62.2713 19.0617 63.3006C19.0801 66.0718 19.0782 68.8448 19.0617 71.6159C19.0561 72.6858 18.4338 73.3486 17.5481 73.3155C16.69 73.2842 16.1523 72.6471 16.1431 71.6049C16.1302 70.2331 16.1394 68.8613 16.1394 67.4896L16.1413 67.4877Z" fill="white"/>
<path d="M36.8362 24.8927C36.4901 25.4432 36.3133 25.8741 36.0113 26.1816C34.192 28.0358 32.3507 29.8698 30.502 31.6963C29.7452 32.4439 28.9516 32.4899 28.3089 31.8768C27.6534 31.2526 27.6884 30.3853 28.4507 29.6157C30.2792 27.7688 32.126 25.9404 33.9637 24.1028C34.4701 23.5964 35.0925 23.2963 35.7314 23.6664C36.166 23.9186 36.4459 24.4416 36.8362 24.8927Z" fill="white"/>
<path d="M26.3829 44.0055C26.3902 47.9993 23.0611 51.3358 19.0672 51.3358C15.0751 51.3358 11.7423 48.0085 11.7331 44.0147C11.7239 40.0338 15.0622 36.6918 19.0561 36.6826C23.0445 36.6734 26.3755 40.0025 26.3829 44.0037V44.0055ZM23.4386 44.1197C23.5159 41.7205 21.6396 39.7355 19.1924 39.6269C16.7986 39.5201 14.7308 41.494 14.6682 43.9429C14.6074 46.3072 16.5501 48.316 18.9751 48.3952C21.3505 48.4726 23.3612 46.5465 23.4386 44.1179V44.1197Z" fill="#FFAC1F"/>
</g>
<defs>
<clipPath id="clip0_17_1078">
<rect width="88" height="88" fill="white"/>
</clipPath>
</defs>
</svg>
