<svg width="117" height="88" viewBox="0 0 117 88" fill="none" xmlns="http://www.w3.org/2000/svg">
<g clip-path="url(#clip0_17_1084)">
<path d="M117 12.9797C116.863 13.5661 116.692 14.1432 116.597 14.7357C115.962 18.7082 113.92 20.7282 109.912 21.1949C109.103 21.29 108.765 21.5541 108.533 22.343C107.214 26.8559 104.403 30.0977 100.178 32.13C99.7201 32.3511 99.2684 32.7931 99.0455 33.2506C98.4503 34.4632 97.6262 35.4026 96.4449 36.0534C96.1549 36.2131 95.7581 36.5385 95.752 36.7963C95.694 38.8133 95.7214 40.8364 95.7214 42.924C96.512 42.9577 97.1927 42.97 97.8673 43.0222C101.014 43.2678 103.371 45.693 103.572 48.852C103.798 52.4193 103.301 54.1477 98.8074 53.9696C95.1567 53.8253 91.4969 53.9512 87.8431 53.9359C85.4774 53.9266 84.3664 52.7877 84.348 50.4054C84.3175 46.4851 85.9262 43.937 89.0244 43.1941C90.0408 42.9516 91.1245 42.9761 92.2294 42.8718V36.7227C91.912 36.695 91.622 36.649 91.332 36.649C86.9518 36.6428 82.5746 36.6367 78.1943 36.6582C77.8067 36.6582 77.3183 36.7349 77.0497 36.9744C73.6035 40.0413 70.1878 43.145 66.708 46.2917C66.9827 46.7061 67.3124 47.05 67.4558 47.4583C67.8679 48.6218 68.4632 49.8037 68.515 50.9979C68.6616 54.2459 68.5853 57.5062 68.5517 60.7603C68.5456 61.4357 68.7837 61.8348 69.2568 62.3107C70.4594 63.5202 71.6224 64.7881 72.645 66.1542C73.5027 67.2963 73.3013 68.383 72.3794 68.9571C71.4484 69.5373 70.5358 69.1904 69.7543 67.9594C65.5267 61.2945 56.4732 60.8033 51.7694 66.98C49.0649 70.532 48.8115 75.4439 51.1375 79.2752C53.4787 83.1341 57.9017 85.1633 62.2881 84.3989C66.6531 83.6376 70.203 80.1747 71.0852 75.8154C71.1371 75.5544 71.189 75.2904 71.2622 75.0325C71.5461 74.0501 72.3153 73.5098 73.2005 73.6633C74.1376 73.826 74.7145 74.6457 74.5711 75.711C74.2201 78.3174 73.1731 80.629 71.5339 82.6613C67.697 87.4136 61.2136 89.2249 55.5483 87.1435C49.8372 85.0467 46.0735 79.5515 46.1376 73.4054C46.1407 73.0708 46.1376 72.7331 46.1376 72.334H28.7295C28.6105 73.6633 28.5952 74.9988 28.3602 76.2943C27.2583 82.3758 22.1241 87.2325 16.1901 87.8772C9.62128 88.5925 3.76059 85.2155 1.15076 79.2138C-1.28814 73.6019 0.216711 66.8266 4.92357 62.8111C5.90035 61.976 6.26665 61.1748 6.21475 59.9192C6.11402 57.5492 6.17812 55.173 6.18728 52.7969C6.19339 51.4431 6.81914 50.6694 7.87833 50.6541C8.95279 50.6418 9.59991 51.4093 9.60601 52.7509C9.61822 55.084 9.60601 57.4172 9.60601 59.8701C10.592 59.6859 11.4955 59.4802 12.4112 59.3574C18.7939 58.4978 24.8316 61.8839 27.4048 67.8274C27.7619 68.6501 28.1832 68.8742 29.0104 68.8374C30.4878 68.7729 31.9712 68.8189 33.5432 68.8189V60.5301C32.4657 60.5301 31.376 60.5393 30.2863 60.5301C28.1984 60.5055 27.0477 59.3635 27.0141 57.2514C26.9897 55.8362 27.0385 54.4178 27.0019 52.9995C26.9652 51.5444 27.3804 50.3563 28.9127 49.5704C27.4506 48.1152 26.1014 46.6693 24.6454 45.3461C23.1741 44.0107 22.585 42.4328 22.6369 40.4526C22.7223 37.1218 22.6613 33.7909 22.6613 30.4569C22.6613 30.0455 22.6613 29.6342 22.6613 29.1399C22.1821 29.1184 21.8127 29.0846 21.4434 29.0846C18.2444 29.0816 15.0455 29.0816 11.8465 29.0846C10.0334 29.0846 9.61212 29.4991 9.60907 31.2889C9.60907 35.3105 9.60907 39.3321 9.60907 43.3537C9.60907 43.6607 9.62128 43.9677 9.60296 44.2717C9.53276 45.3277 8.81849 46.0522 7.87833 46.04C6.98092 46.0277 6.20865 45.3339 6.20254 44.3453C6.17507 39.5961 6.11708 34.8469 6.23612 30.1008C6.29717 27.6295 8.43388 25.7599 10.9399 25.6494C11.7336 25.6156 12.5303 25.6432 13.4368 25.6432C13.4368 24.0622 13.5284 22.5395 13.4063 21.0352C13.3178 19.9761 12.4112 19.5187 11.5046 19.1012C6.21475 16.6606 4.52675 10.1339 7.95159 5.45526C11.7275 0.313104 19.7126 0.52186 22.7864 6.09688C24.3646 8.95807 26.4463 9.41856 29.3553 8.97649C29.3553 7.70553 29.3492 6.41616 29.3553 5.12678C29.3736 2.55109 30.4298 1.48275 32.9602 1.47968C36.3484 1.47661 39.7397 1.47968 43.1279 1.47968C46.0399 1.47968 46.8763 2.22261 47.1907 5.26493C48.7444 5.26493 50.3256 5.27414 51.9067 5.26493C53.1063 5.25572 54.1625 5.56578 54.9683 6.51746C56.1801 7.94499 56.1801 13.7564 54.9561 15.1839C54.2144 16.0496 53.2528 16.4273 52.1234 16.4211C50.4934 16.4119 48.8634 16.4211 47.1449 16.4211C47.2029 18.6438 46.2872 20.016 44.0009 20.2708V25.6494C45.7286 25.6494 47.4288 25.6862 49.129 25.6402C51.339 25.5788 52.9934 26.4598 54.2266 28.3141C55.8718 30.7885 57.6026 33.2045 59.3577 35.7341C60.5268 34.6842 61.6318 33.6988 62.7337 32.7072C64.9742 30.6872 67.2116 28.6641 69.446 26.641C71.6133 24.6762 73.9881 24.3201 76.7475 25.3485C77.9013 25.7783 79.2749 25.6248 80.618 25.7415C80.1326 24.3201 79.748 23.0491 79.2474 21.8242C79.1345 21.5479 78.64 21.3023 78.2951 21.2655C76.2621 21.0444 74.3177 20.5164 73.0754 18.7973C70.9051 15.7918 70.3648 12.3626 71.6163 8.90588C72.5504 6.32713 74.7207 5.02854 77.4953 4.90267C77.9044 4.88425 78.3134 4.86583 78.8414 4.84127C78.8414 4.2058 78.8231 3.64093 78.8445 3.07912C78.9147 1.33233 80.0441 0.119697 81.784 0.0429483C83.3804 -0.0276605 84.9829 0.0153188 86.5824 0.0122488C92.7117 0.0122488 98.8441 0.0122488 104.973 0.0122488C108.203 0.0122488 109.061 0.865694 109.164 4.15668C109.17 4.34394 109.201 4.53121 109.228 4.80443C109.531 4.83513 109.818 4.88732 110.108 4.89346C113.548 4.9917 115.84 6.75999 116.802 10.054C116.841 10.1953 116.933 10.3211 117.003 10.4531V12.9797H117ZM65.1421 59.5846C65.1421 57.0518 65.197 54.2643 65.1085 51.483C65.081 50.6633 64.8277 49.73 64.3729 49.0608C60.133 42.8441 55.8108 36.6858 51.5587 30.4753C50.8811 29.4868 50.118 29.0662 48.9184 29.0754C41.7604 29.1184 34.6024 29.0969 27.4445 29.0969H26.2449C26.1747 29.3333 26.1136 29.4377 26.1136 29.5451C26.1075 33.4501 26.0831 37.3551 26.1289 41.26C26.135 41.6898 26.4372 42.1994 26.7546 42.5249C28.7998 44.637 30.8663 46.7307 32.9755 48.7753C33.3387 49.1252 33.9462 49.3739 34.4529 49.3923C36.5438 49.4629 38.6408 49.3831 40.7317 49.4445C42.6059 49.4998 43.6621 50.6295 43.6957 52.5145C43.7231 54.0464 43.7109 55.5783 43.7018 57.1102C43.6865 59.4556 42.6059 60.5301 40.2678 60.5424C39.2238 60.5485 38.1768 60.5424 37.1482 60.5424V68.8312C40.0663 68.8312 42.9173 68.7975 45.7622 68.8527C46.5985 68.8681 46.9892 68.6348 47.3586 67.8335C49.5838 62.9983 53.3169 60.0236 58.6099 59.4034C60.7161 59.1548 62.8925 59.5078 65.1421 59.5876V59.5846ZM82.3456 3.53962C82.3151 3.72995 82.2693 3.87424 82.2693 4.0216C82.2693 9.00105 82.1411 13.9836 82.3548 18.9538C82.4311 20.7129 83.3041 22.4505 83.8932 24.1697C84.3023 25.3547 85.163 25.8213 86.4664 25.6678C87.5928 25.5358 88.7466 25.6402 89.8913 25.6402C90.5018 25.6402 91.1123 25.6739 91.7197 25.634C94.708 25.4468 97.4613 25.8029 98.9875 28.8483C102.797 26.9664 105.395 23.5342 105.578 19.4389C105.81 14.2414 105.678 9.02868 105.7 3.82512C105.7 3.75758 105.639 3.69004 105.569 3.54269H82.3456V3.53962ZM16.9227 25.5788H32.5268C32.5268 23.9517 32.5451 22.3922 32.5054 20.8357C32.4993 20.6116 32.2612 20.277 32.0537 20.1971C29.7399 19.3069 29.3584 18.785 29.3522 16.3444C29.3522 15.1041 29.3522 13.8608 29.3522 12.5069C28.0031 12.5069 26.8523 12.6267 25.7351 12.4824C23.1161 12.1447 21.3365 10.6312 20.143 8.27961C19.0197 6.06618 16.7243 4.91802 14.4747 5.27414C12.0541 5.65788 10.2409 7.37705 9.72506 9.77468C9.17867 12.3166 10.4943 14.8585 13.0644 16.0128C15.7353 17.2132 17.0143 19.227 16.9288 22.1558C16.8983 23.261 16.9227 24.3661 16.9227 25.5757V25.5788ZM14.1816 84.534C20.1217 84.6537 25.0636 79.8677 25.1948 73.8629C25.3291 67.7997 20.604 62.7988 14.5968 62.6422C8.64144 62.4857 3.56218 67.3546 3.44619 73.3318C3.3302 79.4502 8.08285 84.4112 14.1786 84.534H14.1816ZM43.598 16.6882V5.01012H32.8503V16.6882H43.598ZM64.669 43.3998C64.8796 43.2555 65.0108 43.188 65.1177 43.0928C68.6555 39.9001 72.2024 36.7196 75.7158 33.4992C77.1412 32.1945 77.2511 30.3648 76.0729 29.1338C74.855 27.8567 73.2097 27.8874 71.714 29.2289C69.559 31.1661 67.4101 33.1093 65.2611 35.0526C63.9669 36.2223 62.6788 37.395 61.3479 38.6045C62.4865 40.25 63.567 41.8096 64.669 43.3998ZM80.0929 33.2014C84.6258 33.2014 89.1495 33.2106 93.6763 33.1953C95.1354 33.1922 96.0236 32.3572 95.9992 31.0985C95.9748 29.892 95.1018 29.1031 93.6946 29.0908C91.0298 29.0693 88.3651 29.0846 85.7003 29.0846C83.8413 29.0846 81.9793 29.0846 80.099 29.0846C80.1693 29.8153 80.2791 30.4538 80.2791 31.0893C80.2791 31.7647 80.1662 32.437 80.096 33.2014H80.0929ZM100.065 50.4484C100.401 47.6363 99.3752 46.4421 96.7165 46.4298C94.7782 46.4206 92.843 46.4022 90.9047 46.436C88.5451 46.4759 87.3639 48.0845 87.956 50.4484H100.065ZM30.5122 52.9381V57.0089H40.1976V52.9381H30.5122ZM78.7987 8.44232C75.7402 8.07393 74.1712 9.59355 74.5039 12.5192C74.5955 13.3143 74.7084 14.1125 74.8763 14.8953C75.2976 16.857 76.7261 17.864 78.7987 17.6706V8.44232ZM109.225 8.47609V17.7043C111.509 17.7719 112.785 16.7342 113.151 14.5669C113.258 13.9252 113.349 13.2806 113.459 12.642C113.944 9.77161 112.177 8.00025 109.228 8.47916L109.225 8.47609ZM36.0096 25.5696H40.4051V20.2923H36.0096V25.5696ZM52.2822 12.9152V8.82299H47.1846V12.9152H52.2822Z" fill="white"/>
<path d="M60.42 79.6344C57.102 79.6313 54.3914 76.8868 54.4158 73.559C54.4402 70.2741 57.1142 67.6002 60.3955 67.5726C63.7105 67.545 66.4516 70.268 66.4607 73.5928C66.4699 76.9206 63.7502 79.6406 60.42 79.6344ZM60.4688 76.1838C61.8546 76.1684 63.0054 75.0203 63.0267 73.6296C63.0481 72.2021 61.8516 71.014 60.4077 71.0324C59.0158 71.0478 57.8651 72.1959 57.8529 73.5805C57.8406 75.0172 59.0311 76.2022 60.4719 76.1838H60.4688Z" fill="#FFAC1F"/>
<path d="M14.3434 79.6344C11.0163 79.6344 8.29654 76.9052 8.31485 73.5836C8.33316 70.2465 11.062 67.545 14.3862 67.5726C17.6767 67.6033 20.3293 70.268 20.3476 73.5651C20.3659 76.9052 17.6706 79.6313 14.3465 79.6344H14.3434ZM14.377 76.1807C15.775 76.1592 16.9014 75.0264 16.9136 73.6204C16.9258 72.1806 15.7414 71.0079 14.2946 71.0263C12.8935 71.0447 11.7611 72.1867 11.7519 73.5836C11.7427 75.0172 12.9393 76.1991 14.377 76.1807Z" fill="#FFAC1F"/>
</g>
<defs>
<clipPath id="clip0_17_1084">
<rect width="117" height="88" fill="white"/>
</clipPath>
</defs>
</svg>
