<svg width="82" height="91" viewBox="0 0 82 91" fill="none" xmlns="http://www.w3.org/2000/svg">
<g clip-path="url(#clip0_17_1028)">
<path d="M42.0792 0C42.5224 0.154318 42.975 0.284894 43.4038 0.470076C46.0363 1.60016 47.2227 3.68226 47.4252 6.45523C47.6444 9.43713 47.9255 12.4143 48.1852 15.3938C48.2042 15.6241 48.2733 15.8496 48.3329 16.1416C49.9957 16.1416 51.6276 16.1583 53.2595 16.1369C55.5466 16.1084 57.7526 16.5049 59.8801 17.324C60.7544 17.6611 61.1427 18.314 60.9354 19.0214C60.6972 19.831 59.9039 20.2156 58.9843 19.831C55.6228 18.4232 52.0993 18.8909 48.7188 18.8078C48.5306 20.5029 48.3519 22.1197 48.1637 23.7982C49.8695 23.7982 51.7063 23.7673 53.5407 23.8053C58.4292 23.9074 62.4911 27.1267 63.3273 31.9058C63.8991 35.1702 63.9276 38.5391 63.2677 41.8035C62.3529 46.3191 58.2863 49.555 53.6645 49.5835C45.4026 49.6333 37.1407 49.6167 28.8787 49.6001C23.0634 49.5882 18.8253 45.6614 18.4751 39.871C18.3369 37.5704 18.3583 35.2462 18.5203 32.948C18.8753 27.9173 23.1492 23.943 28.2117 23.8172C30.1342 23.7697 32.0591 23.81 33.8578 23.81C33.6648 22.141 33.4814 20.548 33.2932 18.9146C24.8788 17.927 16.6287 20.3605 13.8176 30.5122C13.6056 31.2767 13.4674 32.0886 13.4769 32.8768C13.5174 36.0676 13.3006 39.3083 13.7819 42.4398C14.8229 49.2179 21.0813 54.4789 27.9663 54.5573C36.495 54.6546 45.0262 54.638 53.555 54.5763C61.7883 54.5169 68.2611 48.1899 68.5756 39.9374C68.6709 37.4565 68.6375 34.9589 68.4874 32.4803C68.2802 29.0806 66.8531 26.1557 64.559 23.6462C64.3993 23.4705 64.2231 23.3091 64.0682 23.1287C63.5131 22.4829 63.5012 21.7493 64.0277 21.2199C64.5923 20.6548 65.3499 20.662 66.0027 21.3053C67.9324 23.207 69.4285 25.4149 70.2337 28.0027C70.703 29.5151 71.1104 31.1057 71.1747 32.6774C71.3296 36.5424 71.7036 40.4526 70.5887 44.2417C70.1003 45.8989 69.3189 47.4705 68.6256 49.1941C68.7304 49.3033 68.9472 49.5384 69.1735 49.7663C72.7018 53.2847 76.2658 56.7723 79.7559 60.3311C83.8535 64.5143 82.0858 71.3637 76.5135 72.933C73.6762 73.733 71.1628 73.0208 69.0425 70.998C68.0586 70.0579 67.1295 69.0608 66.0336 67.9426C65.9074 68.6548 65.8311 69.1866 65.7168 69.7065C64.659 74.5307 61.4857 77.5316 57.1118 79.4001C56.0945 79.8345 55.7324 80.3093 55.8063 81.3943C55.8825 82.5363 55.8539 83.7186 55.6323 84.8368C54.9391 88.3671 51.8301 90.9264 48.2161 90.9739C44.5021 91.0237 40.7856 90.9929 37.0716 90.9858C36.0996 90.9858 35.5016 90.4729 35.4873 89.68C35.4706 88.8585 36.09 88.3267 37.1121 88.3244C40.6189 88.3172 44.1257 88.3244 47.6325 88.3196C51.0201 88.3149 53.1452 86.2067 53.1619 82.8449C53.1642 82.1968 53.1619 81.551 53.1619 80.8459C45.0381 82.5553 36.9977 82.5624 28.9264 80.8506C28.6667 83.5144 28.7858 85.9859 31.3563 87.6216C32.052 88.0656 32.1663 88.8775 31.747 89.4829C31.3206 90.1002 30.5821 90.2522 29.865 89.7963C27.6709 88.4003 26.4344 86.3918 26.2153 83.8088C26.1295 82.8093 26.1486 81.7932 26.1986 80.7889C26.2296 80.1574 26.0175 79.8488 25.4196 79.6185C23.1206 78.7329 21.0694 77.4533 19.378 75.6418C17.403 73.5289 16.3572 70.998 16.0355 67.9354C14.9873 68.9872 14.0558 69.9202 13.1267 70.8556C11.733 72.2563 10.0678 73.1015 8.08093 73.206C4.83142 73.3793 1.98929 71.6581 0.690922 68.7854C-0.612216 65.9008 -0.0499847 62.6673 2.24897 60.3406C5.4818 57.0691 8.75275 53.8379 12.0165 50.5996C12.5192 50.101 13.0743 49.6547 13.6127 49.1775C12.2333 46.9387 11.2042 44.7142 11.0017 42.2712C10.6038 37.4375 10.0559 32.5207 11.8379 27.8579C14.4561 20.9991 19.5876 17.1506 26.8918 16.1939C27.0372 16.1749 27.1849 16.1559 27.4374 16.1226C27.4374 15.8045 27.4374 15.4888 27.4374 15.1706C27.4374 12.7728 27.416 10.3725 27.4445 7.97467C27.4946 3.80571 31.404 0.849935 35.4254 1.94678C35.9685 2.09397 36.2854 1.98476 36.7571 1.67138C37.7481 1.01375 38.8679 0.546048 39.9351 0C40.6475 0 41.3622 0 42.0745 0L42.0792 0ZM18.699 54.4766C18.699 58.7072 18.6752 62.9403 18.7061 67.1733C18.7276 70.1457 19.8925 72.6338 22.1319 74.5996C24.4476 76.6318 27.2373 77.6883 30.189 78.3649C35.6326 79.6137 41.1477 79.6683 46.6748 79.1959C49.9386 78.9181 53.1452 78.3056 56.1588 76.9452C60.883 74.8156 63.5179 71.3589 63.3464 65.9887C63.2344 62.4394 63.3249 58.8829 63.3249 55.3289C63.3249 55.0273 63.3249 54.7282 63.3249 54.3151C63.0033 54.4979 62.8484 54.581 62.6984 54.6712C59.9992 56.2975 57.0808 57.221 53.9194 57.2305C45.212 57.2519 36.507 57.278 27.7995 57.1925C26.1962 57.1759 24.5595 56.7866 23.011 56.3236C21.553 55.8892 20.1927 55.1318 18.6966 54.4742L18.699 54.4766ZM40.9548 46.9363C40.9548 46.9363 40.9548 46.9268 40.9548 46.9245C45.2025 46.9245 49.4526 46.9696 53.7003 46.9102C57.3929 46.858 60.5209 44.0114 60.8115 40.36C60.9902 38.0951 60.9998 35.7993 60.8663 33.5297C60.621 29.3584 57.5096 26.5094 53.3143 26.4619C50.9963 26.4358 48.6807 26.4429 46.3627 26.4691C46.0053 26.4738 45.6051 26.5996 45.2978 26.7872C42.439 28.5464 39.5992 28.5488 36.738 26.7967C36.4522 26.621 36.0924 26.4738 35.7661 26.4691C33.2717 26.4477 30.7751 26.4216 28.2808 26.4786C24.6453 26.5593 21.5221 29.3845 21.2124 32.9813C21.0361 35.0111 21.098 37.0624 21.1052 39.1041C21.1242 43.8096 24.2737 46.9221 29.0145 46.934C32.9954 46.9458 36.9763 46.934 40.9572 46.934L40.9548 46.9363ZM41.0382 25.4221C43.9732 25.4102 46.1816 22.9126 45.9124 19.9568C45.5622 16.1274 45.2454 12.2956 44.9142 8.46374C44.8523 7.75625 44.7927 7.04876 44.7284 6.34127C44.5283 4.14284 43.0465 2.67326 41.0215 2.66614C38.9631 2.65901 37.4742 4.15471 37.2812 6.403C36.8905 10.9423 36.5022 15.4816 36.0948 20.0186C35.8328 22.9506 38.0888 25.4363 41.0358 25.4244L41.0382 25.4221ZM15.1898 51.3237C15.1112 51.3641 15.0183 51.3854 14.9611 51.4448C11.2637 55.1294 7.5592 58.8046 3.88325 62.5106C3.06135 63.3391 2.68732 64.4241 2.69208 65.5874C2.70161 67.6767 3.65693 69.2483 5.56042 70.1149C7.46152 70.9814 9.31021 70.7226 10.8563 69.3006C12.4501 67.8357 13.9653 66.2878 15.4614 64.7233C15.7663 64.4051 15.9879 63.8662 15.9927 63.4246C16.0355 59.9323 15.995 56.4376 16.0332 52.9452C16.0403 52.2069 15.7949 51.7083 15.1898 51.3237ZM66.9937 51.2501L66.6268 51.2572C66.4196 51.7368 66.0384 52.214 66.0312 52.696C65.9812 56.3355 65.9931 59.9774 66.0217 63.6193C66.0241 63.9564 66.2004 64.3719 66.4362 64.614C67.8585 66.0836 69.3117 67.5247 70.7745 68.9563C72.9162 71.055 75.9489 71.1096 77.9286 69.1011C79.8917 67.1092 79.8083 64.1511 77.7023 62.0381C74.8125 59.1393 71.9037 56.2619 69.0115 53.3678C68.3231 52.677 67.6655 51.9552 66.9937 51.2477V51.2501ZM34.7893 4.56781C32.3355 3.93866 30.1866 5.52932 30.1247 7.97467C30.0937 9.18784 30.1152 10.401 30.1152 11.6166C30.1152 13.0885 30.1152 14.5628 30.1152 16.087H33.7506C34.0937 12.2623 34.4391 8.44474 34.7869 4.56781H34.7893Z" fill="white"/>
<path d="M26.8942 67.8025C26.8847 64.9678 29.1288 62.7195 31.9638 62.7195C34.7845 62.7195 37.0787 65.0034 37.0668 67.7977C37.0525 70.5446 34.7702 72.8285 32.0138 72.8546C29.1979 72.8807 26.9037 70.6158 26.8942 67.8025ZM31.9352 65.388C30.6106 65.3999 29.5791 66.4397 29.5719 67.7645C29.5672 69.113 30.6607 70.2051 31.9972 70.1861C33.2836 70.1671 34.3747 69.0726 34.3866 67.793C34.3962 66.473 33.2789 65.3761 31.9352 65.3904V65.388Z" fill="#FFAC1F"/>
<path d="M48.4972 66.2925C46.689 66.2925 44.8784 66.2997 43.0702 66.2902C42.072 66.2854 41.5146 65.813 41.4955 64.9986C41.4764 64.1535 42.0625 63.6335 43.0941 63.6311C46.77 63.6216 50.4483 63.624 54.1243 63.6311C55.1463 63.6311 55.7752 64.1677 55.7681 64.9796C55.7609 65.7916 55.1415 66.2878 54.1028 66.2925C52.2351 66.2997 50.3673 66.2925 48.4996 66.2925H48.4972Z" fill="#FFAC1F"/>
<path d="M45.7599 69.2673C46.6795 69.2673 47.6014 69.246 48.521 69.2745C49.393 69.3006 49.9123 69.792 49.9361 70.547C49.96 71.3352 49.4216 71.9026 48.5186 71.9169C46.6485 71.9477 44.7784 71.9477 42.9082 71.9169C42.0053 71.9026 41.4741 71.3376 41.5003 70.5422C41.5241 69.7706 42.022 69.3006 42.913 69.2745C43.8612 69.2483 44.8117 69.2673 45.7623 69.2673H45.7599Z" fill="#FFAC1F"/>
<path d="M30.0293 32.4803C32.0305 32.4779 33.6934 34.0092 33.8268 35.9797C33.8816 36.7988 33.4194 37.4303 32.6928 37.5277C31.9161 37.6321 31.3372 37.2166 31.1919 36.3762C31.0752 35.6948 30.8322 35.1607 30.046 35.1559C29.2646 35.1535 29.0025 35.6687 28.8882 36.3596C28.7476 37.2048 28.1735 37.625 27.3992 37.53C26.6726 37.4398 26.1985 36.8107 26.2462 35.994C26.3581 34.0401 28.0353 32.4803 30.0293 32.4779V32.4803Z" fill="#FFAC1F"/>
<path d="M48.1875 36.0201C48.2828 34.0354 49.9981 32.4589 52.0373 32.4827C54.029 32.5064 55.7085 34.109 55.7752 36.0462C55.8014 36.8202 55.3488 37.4209 54.6579 37.5277C53.8789 37.6464 53.2714 37.2309 53.1356 36.4024C53.0213 35.7234 52.7973 35.1773 52.0111 35.1607C51.1726 35.1417 50.9367 35.7115 50.8176 36.4261C50.6866 37.2119 50.11 37.6132 49.362 37.5348C48.6258 37.4565 48.1446 36.8392 48.1851 36.0201H48.1875Z" fill="#FFAC1F"/>
<path d="M41.1644 41.6017C39.6564 41.6017 38.4914 41.0984 37.5409 40.1155C36.9524 39.5077 36.9262 38.7551 37.4265 38.2091C37.9244 37.6654 38.6868 37.6464 39.3395 38.1569C40.7189 39.2347 41.2764 39.2323 42.7034 38.1355C43.3228 37.6607 44.0637 37.6725 44.5544 38.1664C45.0786 38.691 45.0833 39.465 44.5139 40.0728C43.5801 41.0699 42.4127 41.5803 41.1668 41.5993L41.1644 41.6017Z" fill="#FFAC1F"/>
</g>
<defs>
<clipPath id="clip0_17_1028">
<rect width="82" height="91" fill="white"/>
</clipPath>
</defs>
</svg>
