<svg width="158" height="98" viewBox="0 0 158 98" fill="none" xmlns="http://www.w3.org/2000/svg">
<rect width="158" height="98" rx="10" fill="white"/>
<path d="M44 80.3941C44 80.3028 44 80.2115 44 80.1175C44.0694 79.3956 44.1971 78.6738 44.1971 77.952C44.2082 56.2274 44.2166 34.5057 44.1805 12.7811C44.1777 11.4093 44.5359 10.9972 45.9574 11C66.3201 11.047 86.68 11.0332 107.04 11.0332C108.373 11.0332 109.04 11.7163 109.042 13.0826C109.042 35.1279 109.039 57.1733 109.067 79.2186C109.067 80.1313 108.833 80.5904 107.942 80.9444C97.9052 84.9243 87.8905 88.9677 77.848 92.931C77.1594 93.202 76.1793 93.2241 75.4963 92.9531C64.9818 88.8046 54.4951 84.5896 44 80.3913L44 80.3941ZM103.744 68.4767C103.744 67.9429 103.744 67.5004 103.744 67.0606C103.744 58.6142 103.719 50.165 103.78 41.7186C103.789 40.38 103.392 40.0315 102.073 40.037C85.0807 40.0785 68.0915 40.0758 51.0994 40.0426C49.8778 40.0426 49.4363 40.3108 49.4474 41.6273C49.5085 49.7059 49.503 57.7873 49.4419 65.8659C49.4336 67.0413 49.8639 67.5861 50.8718 68.0148C55.5196 69.9812 60.4173 70.4956 65.3566 70.1112C71.2205 69.6549 77.0623 68.8666 82.9067 68.1725C88.3458 67.5253 93.7766 66.726 99.2657 67.5059C100.704 67.7106 102.112 68.1171 103.744 68.4767ZM49.4891 68.8169C49.4891 71.1041 49.4447 73.4383 49.5335 75.7698C49.5474 76.1543 50.0721 76.7074 50.4803 76.8595C58.8708 80.0179 67.2752 83.1376 75.6907 86.2242C76.1988 86.4094 76.8901 86.4233 77.3927 86.2407C85.822 83.1902 94.232 80.0843 102.656 77.0254C103.508 76.7157 103.764 76.2013 103.752 75.3716C103.728 73.856 103.705 72.3376 103.789 70.8275C103.839 69.8955 103.45 69.4447 102.597 69.3313C100.324 69.0271 98.0524 68.5486 95.7729 68.4933C87.6351 68.2969 79.6666 70.0089 71.6176 70.822C66.7143 71.3171 61.7916 71.8702 56.9023 70.9299C54.4506 70.4597 52.0823 69.5719 49.4891 68.8169ZM91.1029 19.062C88.6346 19.0039 86.8549 20.0217 86.2329 21.9771C85.4333 24.4938 86.1608 26.5626 88.5124 27.9841C89.4925 28.576 89.4897 29.1568 88.9844 30.0031C88.232 31.2643 87.4712 32.5254 86.7882 33.8253C86.1219 35.0947 85.9386 36.4499 86.5023 37.8107C86.8937 38.7538 87.6517 39.4175 88.6568 39.0469C89.2732 38.8174 90.0173 38.1066 90.1228 37.5064C90.3144 36.4333 89.3815 36.1015 88.4264 35.9715C88.1765 35.9383 87.9599 35.6507 87.7295 35.4819C87.996 35.2828 88.282 34.8929 88.5208 34.9205C89.5092 35.0367 90.5476 35.1307 91.4499 35.5124C93.1991 36.2453 94.9705 36.5606 96.8419 36.3559C99.7766 36.0323 101.926 34.1323 102.195 31.6515C102.523 28.6175 101.354 26.6262 98.6938 25.6914C96.8141 25.0304 96.7308 24.8036 97.7664 23.111C98.244 22.3283 98.8826 21.6092 99.1852 20.7657C99.3629 20.2651 99.1435 19.5156 98.8603 19.0122C98.7604 18.8325 97.9469 19.0178 97.4666 19.0869C96.8363 19.1782 96.2088 19.4326 95.5841 19.4133C94.1625 19.3718 92.7465 19.2058 91.1029 19.0703V19.062ZM83.512 18.9376C81.9738 20.0245 80.4329 19.8807 78.7365 19.5018C75.8045 18.8463 73.2974 19.6926 71.4815 22.2453C69.1632 25.5033 68.7328 28.9936 70.1905 32.6803C71.2761 35.4239 74.2663 37.1773 77.0095 36.8482C79.2335 36.5799 81.4602 36.3227 83.6897 36.0738C84.6392 35.9687 85.2112 35.4764 84.9447 34.525C84.4504 32.755 84.3838 31.0375 84.8697 29.2425C85.1446 28.2275 84.4477 27.5804 83.5786 27.6523C80.9299 27.8708 78.2783 28.092 75.624 28.2082C74.2497 28.269 73.6805 27.6218 73.9998 26.333C74.3496 24.917 74.7633 23.4678 75.4769 22.2149C75.8489 21.5594 76.8762 21.0423 77.6786 20.9206C78.928 20.727 79.3473 21.7613 79.5861 22.8261C79.8054 23.7941 80.1275 24.8368 81.4185 24.5436C83.09 24.1647 84.4116 20.7933 83.5092 18.9403L83.512 18.9376ZM59.1984 36.0572C59.1984 36.0987 59.1984 36.1402 59.1984 36.1789C61.3613 36.1789 63.5269 36.2342 65.687 36.1485C66.4006 36.1208 67.6 35.8581 67.7 35.4764C67.886 34.7739 67.5612 33.8253 67.1808 33.1228C66.8004 32.4231 66.0258 31.9446 65.5538 31.2809C65.3233 30.96 65.2622 30.3958 65.3705 30.0114C65.4233 29.8289 66.0674 29.8455 66.4172 29.7072C67.0003 29.4776 67.7388 29.3283 68.0637 28.8885C68.2608 28.623 67.9221 27.525 67.6084 27.4172C67.0142 27.2098 66.0591 27.1959 65.626 27.5527C64.9568 28.1031 64.582 29.0185 64.1211 29.804C63.402 31.0236 62.7801 32.3097 61.9749 33.4685C61.7389 33.8087 61.0226 33.9442 60.5395 33.9221C60.359 33.9138 60.0702 33.1864 60.0702 32.7882C60.0841 29.851 60.0813 26.9083 60.2646 23.9794C60.3146 23.1691 60.9754 22.3947 61.3502 21.6009C61.5667 21.1446 61.7805 20.6827 61.9943 20.2236C61.4668 20.0715 60.942 19.8005 60.4117 19.7866C58.0323 19.7285 55.6501 19.7175 53.2679 19.7479C52.7292 19.7562 52.1962 19.9996 51.6603 20.1351C51.813 20.6606 51.9213 21.2027 52.1267 21.7033C52.4988 22.6132 53.2151 23.4761 53.2845 24.397C53.4511 26.6317 53.49 28.9079 53.2595 31.1315C53.1402 32.271 52.3461 33.3468 51.8269 34.4365C51.6075 34.8956 51.3049 35.316 51.0411 35.7558C51.5992 35.9604 52.1573 36.3448 52.7126 36.3393C54.8754 36.3117 57.0355 36.1623 59.1956 36.0572H59.1984Z" fill="#362D2C"/>
<path d="M103.744 68.4766C102.114 68.1171 100.704 67.7105 99.2657 67.5059C93.7766 66.726 88.3458 67.5252 82.9067 68.1724C77.0623 68.8666 71.2233 69.6548 65.3566 70.1112C60.4173 70.4956 55.5224 69.9812 50.8718 68.0148C49.8639 67.5889 49.4308 67.044 49.4419 65.8658C49.503 57.7872 49.5085 49.7059 49.4474 41.6273C49.4363 40.3108 49.8778 40.0398 51.0994 40.0425C68.0915 40.0785 85.0807 40.0813 102.073 40.037C103.392 40.0342 103.791 40.38 103.78 41.7185C103.719 50.165 103.747 58.6114 103.744 67.0606C103.744 67.5031 103.744 67.9429 103.744 68.4766ZM102.281 41.3977C101.776 41.3701 101.459 41.3396 101.143 41.3396C84.8308 41.3396 68.5218 41.3479 52.21 41.312C51.0661 41.312 50.8107 41.7241 50.8162 42.7474C50.8468 48.3977 50.8496 54.048 50.8051 59.6983C50.7996 60.5889 51.1439 61.001 51.9046 61.3522C54.72 62.6521 57.7019 63.1389 60.7588 63.2135C68.0804 63.3933 75.2187 61.8196 82.4264 60.9069C87.4157 60.2764 92.4106 59.8007 97.4305 60.4893C99.0408 60.7106 100.629 61.0978 102.278 61.4214V41.3977H102.281Z" fill="white"/>
<path d="M49.4891 68.8169C52.0823 69.5691 54.4507 70.4569 56.9023 70.9299C61.7917 71.8702 66.7143 71.3198 71.6176 70.822C79.6666 70.0061 87.6351 68.2941 95.7729 68.4933C98.0524 68.5486 100.326 69.0271 102.597 69.3313C103.45 69.4447 103.839 69.8955 103.789 70.8275C103.705 72.3376 103.728 73.856 103.753 75.3716C103.766 76.204 103.511 76.7157 102.656 77.0254C94.2292 80.0843 85.822 83.1902 77.3927 86.2407C76.8873 86.4233 76.196 86.4094 75.6907 86.2241C67.2752 83.1376 58.8708 80.0179 50.4803 76.8595C50.0694 76.7046 49.5474 76.1515 49.5335 75.7698C49.4447 73.4383 49.4891 71.1013 49.4891 68.8169ZM101.787 75.7588C101.206 75.6066 100.962 75.5237 100.712 75.4767C94.9622 74.3814 89.2482 75.2029 83.5453 75.8749C74.6106 76.9259 65.7259 78.6849 56.6413 77.562C63.1327 80.0373 69.6269 82.4573 76.1432 84.8275C76.5486 84.9741 77.1261 84.8136 77.5731 84.6505C82.7985 82.756 88.0155 80.8366 93.2324 78.9199C95.9784 77.9105 98.7243 76.8927 101.79 75.7615L101.787 75.7588Z" fill="white"/>
<path d="M91.1029 19.062C92.7466 19.1948 94.1626 19.3607 95.5841 19.405C96.206 19.4243 96.8363 19.1699 97.4666 19.0786C97.9469 19.0095 98.7576 18.8242 98.8604 19.0039C99.1436 19.5073 99.3629 20.2568 99.1852 20.7574C98.8853 21.6009 98.2468 22.32 97.7664 23.1027C96.7308 24.7981 96.8169 25.0249 98.6938 25.6831C101.354 26.6179 102.523 28.6092 102.195 31.6432C101.926 34.124 99.7766 36.024 96.8419 36.3476C94.9705 36.555 93.1991 36.2398 91.4499 35.5041C90.5476 35.1252 89.5092 35.0311 88.5208 34.9122C88.282 34.8846 87.9932 35.2745 87.7295 35.4737C87.9599 35.6451 88.1765 35.93 88.4264 35.9632C89.3815 36.0932 90.3171 36.4251 90.1228 37.4981C90.0145 38.0955 89.2732 38.8091 88.6568 39.0386C87.6517 39.412 86.891 38.7482 86.5023 37.8024C85.9386 36.4389 86.1219 35.0837 86.7882 33.817C87.4713 32.5171 88.2292 31.256 88.9844 29.9948C89.4898 29.1485 89.4953 28.5677 88.5124 27.9759C86.158 26.5543 85.4305 24.4856 86.233 21.9688C86.8549 20.0134 88.6346 18.9984 91.1029 19.0537V19.062ZM94.6318 35.3547C96.095 35.2192 97.1389 34.7242 97.6915 33.5045C98.2023 32.3761 97.7803 31.4883 96.4781 30.8605C94.6873 29.9976 93.9932 30.1137 93.3324 31.3721C92.9909 32.0221 92.6355 32.6609 92.2968 33.3109C91.9414 33.994 91.9941 34.5693 92.8215 34.8403C93.474 35.0533 94.1431 35.2164 94.6346 35.3547H94.6318ZM89.0899 32.7135C90.5754 32.4922 95.7507 23.288 95.2371 21.7171C92.7105 25.3346 90.9196 29.0268 89.0899 32.7135ZM93.6128 21.9052C93.5851 21.7282 93.5573 21.5484 93.5323 21.3714C93.1075 21.164 92.6855 20.7823 92.2579 20.7795C91.3028 20.774 90.3088 21.092 90.3727 22.2398C90.3949 22.6713 91.3861 23.4871 91.636 23.3876C92.3745 23.0916 92.9659 22.4251 93.6128 21.9052Z" fill="white"/>
<path d="M83.512 18.9375C84.4144 20.7905 83.0955 24.1619 81.4213 24.5408C80.1303 24.834 79.8082 23.7885 79.5888 22.8233C79.3473 21.7613 78.928 20.7269 77.6814 20.9178C76.879 21.0422 75.8517 21.5594 75.4797 22.2121C74.7689 23.465 74.3524 24.9142 74.0026 26.3302C73.6833 27.619 74.2525 28.2662 75.6268 28.2054C78.2811 28.0892 80.9327 27.8679 83.5814 27.6495C84.4477 27.5775 85.1473 28.2247 84.8725 29.2397C84.3838 31.0347 84.4532 32.7522 84.9474 34.5222C85.214 35.4764 84.642 35.9659 83.6925 36.071C81.4657 36.3199 79.239 36.5771 77.0123 36.8454C74.2691 37.1773 71.2761 35.4211 70.1933 32.6775C68.7356 28.9936 69.166 25.5033 71.4843 22.2425C73.3001 19.6898 75.8073 18.8435 78.7392 19.499C80.4357 19.8779 81.9738 20.0217 83.5148 18.9348L83.512 18.9375ZM74.8577 32.1299C74.7439 32.3069 74.6328 32.4811 74.519 32.6581C75.0632 33.2528 75.5185 33.9912 76.1738 34.4116C77.5481 35.2966 79.3279 34.7075 79.7332 33.3717C79.9498 32.6581 79.7832 32.1575 78.9641 32.1382C77.5953 32.105 76.2238 32.1299 74.855 32.1299H74.8577ZM76.9984 29.5108C76.9984 29.5108 76.9984 29.4886 76.9984 29.4803C76.3126 29.4803 75.6185 29.4278 74.941 29.508C74.6717 29.5412 74.4357 29.8675 74.1858 30.0611C74.4052 30.2852 74.6134 30.6917 74.8411 30.7028C76.2571 30.7747 77.6786 30.7885 79.0946 30.7415C79.3445 30.7332 79.5805 30.3377 79.8248 30.122C79.5694 29.9201 79.3306 29.5771 79.053 29.5412C78.3783 29.4555 77.6842 29.5135 76.9984 29.5135V29.5108Z" fill="white"/>
<path d="M59.1984 36.0572C57.0383 36.1623 54.8782 36.3116 52.7154 36.3393C52.1601 36.3448 51.5992 35.9604 51.0439 35.7557C51.3077 35.3187 51.6103 34.8984 51.8297 34.4365C52.3516 33.3468 53.1457 32.2709 53.2623 31.1315C53.4928 28.9051 53.4539 26.6317 53.2873 24.397C53.2179 23.476 52.5043 22.6104 52.1295 21.7032C51.9241 21.1999 51.8158 20.6578 51.6631 20.1351C52.1989 19.9996 52.7348 19.7534 53.2706 19.7479C55.6529 19.7175 58.0351 19.7258 60.4145 19.7866C60.9448 19.8004 61.4696 20.0715 61.9971 20.2236C61.7833 20.6827 61.5723 21.1418 61.353 21.6009C60.9754 22.3919 60.3173 23.1663 60.2674 23.9794C60.0841 26.9083 60.0869 29.851 60.073 32.7881C60.073 33.1864 60.359 33.9138 60.5422 33.9221C61.0253 33.9442 61.7417 33.8087 61.9777 33.4685C62.7801 32.3069 63.4048 31.0236 64.1239 29.8039C64.5848 29.0213 64.9624 28.103 65.6287 27.5527C66.0619 27.1959 67.017 27.2097 67.6111 27.4172C67.9249 27.525 68.2608 28.623 68.0665 28.8885C67.7416 29.3282 67.0003 29.4776 66.42 29.7071C66.0702 29.8454 65.4233 29.8288 65.3733 30.0114C65.265 30.3958 65.3261 30.96 65.5565 31.2808C66.0313 31.9446 66.8032 32.4231 67.1836 33.1228C67.5639 33.8253 67.8888 34.7739 67.7028 35.4764C67.6 35.8608 66.4034 36.1208 65.6898 36.1484C63.5297 36.2342 61.3641 36.1789 59.2012 36.1789C59.2012 36.1374 59.2012 36.0959 59.2012 36.0572H59.1984ZM57.402 34.0714C58.1739 33.0702 58.3322 22.8703 57.6658 21.7392C56.7579 22.4527 56.4886 32.5807 57.402 34.0714Z" fill="white"/>
<path d="M102.278 41.3978V61.4214C100.629 61.1006 99.0408 60.7106 97.4305 60.4894C92.4106 59.8007 87.4157 60.2764 82.4264 60.907C75.2187 61.8169 68.0804 63.3906 60.7588 63.2136C57.7019 63.1389 54.72 62.6521 51.9046 61.3523C51.1439 61.001 50.7996 60.5889 50.8052 59.6984C50.8496 54.0481 50.844 48.3977 50.8163 42.7474C50.8107 41.7241 51.0661 41.3093 52.21 41.312C68.5218 41.348 84.8308 41.3369 101.143 41.3397C101.459 41.3397 101.776 41.3701 102.281 41.3978H102.278ZM60.0147 45.3859C59.8259 44.7719 59.6343 44.1607 59.4455 43.5467C59.3289 43.5605 59.2123 43.5716 59.0957 43.5854C58.918 44.1883 58.7375 44.7885 58.4738 45.6846C59.1707 45.538 59.6066 45.4467 60.0425 45.3527V46.3788H56.5969C56.6691 46.7273 56.7746 47.3025 56.9051 47.8723C57.0578 48.5388 56.9967 49.0947 56.1776 49.2026C55.5002 49.2911 54.8449 49.2745 54.7894 48.3341C54.77 48.005 54.7311 47.6787 54.6978 47.3523C54.5673 47.3468 54.4396 47.344 54.3091 47.3385C54.2674 47.9829 54.0286 48.6992 54.2341 49.2523C54.4507 49.8359 55.0448 50.602 55.5585 50.6684C56.086 50.7375 57.1494 50.1318 57.2188 49.7004C57.477 48.1018 58.4432 48.0244 59.7037 48.0244C60.0175 48.0244 60.5839 47.3883 60.5894 47.0342C60.6005 46.4894 61.2558 45.5435 60.0147 45.3887V45.3859ZM87.7323 59.6292C87.6184 59.2863 87.5629 59.0263 87.4518 58.794C83.3315 50.1982 71.7259 49.197 66.2118 57.0212C65.4566 58.0943 65.0901 59.5048 64.793 60.8157C64.5542 61.8556 65.029 62.5249 66.3423 62.3424C71.0734 61.6869 75.8128 61.0978 80.5523 60.4949C82.9067 60.1962 85.264 59.9279 87.7323 59.632V59.6292ZM94.132 47.745C94.2264 47.7367 94.3208 47.7312 94.4152 47.7229C94.5818 48.1322 94.6984 48.572 94.9289 48.9426C95.2482 49.4598 95.7701 49.728 96.0117 48.9592C96.2893 48.0797 96.778 48.2097 97.5138 48.1073C98.3245 47.9967 99.9126 48.713 99.9376 46.9789C99.3324 46.6636 98.8326 46.4037 98.3356 46.1437C98.3939 46.0165 98.4522 45.892 98.5133 45.7648C98.9409 45.7095 99.3685 45.6514 100.213 45.5435C99.5906 45.0457 99.2407 44.7636 98.8881 44.4815C98.4189 45.1342 97.9497 45.7842 97.3444 46.6222V42.7723C97.1639 42.764 96.9835 42.753 96.803 42.7447C96.6697 44.0611 96.5364 45.3748 96.381 46.9126C95.7174 46.423 95.287 46.105 94.8678 45.798C93.3324 46.7964 92.927 48.8651 94.132 50.815V47.7423V47.745ZM87.4518 48.2899C88.5235 48.2318 89.4731 48.2207 90.4115 48.1129C90.9807 48.0465 91.8859 47.9774 92.0191 47.6538C92.3023 46.9706 92.1774 46.1188 92.219 45.3389C92.0552 45.3389 91.8914 45.3389 91.7276 45.3389V46.5309C91.3639 46.4839 91.064 46.3898 90.7753 46.4175C90.009 46.4922 89.2482 46.6996 88.4847 46.7051C87.5379 46.7107 86.8688 46.9817 86.6328 47.9608C86.3829 49.0007 86.6078 49.9133 87.5601 50.4637C88.357 50.9228 89.1843 50.8952 90.0506 50.0489C88.7956 49.9769 87.6101 50.0074 87.4546 48.2954L87.4518 48.2899ZM70.3571 42.7668C70.1794 42.753 70.0045 42.7419 69.8268 42.7281C69.0993 43.9865 69.5935 45.408 69.4964 46.7494C69.3603 48.5969 71.0318 47.7699 71.7925 48.2926C72.0452 47.6814 72.4922 47.0702 72.4894 46.4618C72.4894 45.939 71.9702 45.4191 71.6815 44.8991C71.3955 45.3223 71.1067 45.7399 70.8319 46.1686C70.743 46.3069 70.693 46.47 70.6264 46.6222C70.5375 46.6194 70.4487 46.6139 70.3626 46.6111V42.7723L70.3571 42.7668ZM69.0438 44.7996C68.6329 44.3709 68.3525 43.8399 68.0165 43.8012C67.7194 43.7652 67.1891 44.2188 67.0531 44.5672C66.5644 45.8395 66.0369 47.1338 65.8509 48.4669C65.7565 49.1306 66.1785 50.1346 66.7088 50.5494C67.3252 51.0334 68.3164 51.0362 69.0855 50.082C68.7023 50.0572 68.4802 50.0157 68.2636 50.035C67.2058 50.1318 66.7227 49.6368 66.7143 48.6024C66.706 47.6316 67.0003 47.0425 68.1415 47.037C68.4802 47.037 68.8189 46.4949 69.2604 46.1133C68.3441 45.8312 67.8194 45.668 67.2919 45.5048C67.3002 45.3693 67.3085 45.2365 67.3168 45.101C67.7999 45.0181 68.2803 44.9323 69.0466 44.7996H69.0438ZM79.6277 47.5763C79.4334 47.5874 79.239 47.5984 79.0447 47.6095C79.1863 48.4835 79.1918 49.4155 79.5361 50.201C79.6805 50.5273 80.8105 50.8315 81.0409 50.6297C81.6351 50.1125 82.2237 49.3547 82.3625 48.6079C82.593 47.3634 82.4736 46.0524 82.493 44.7691C82.5042 44.1275 82.493 43.4859 82.493 42.8415C82.3209 42.8193 82.146 42.7972 81.9738 42.7751C81.8739 43.342 81.6879 43.9118 81.6879 44.4787C81.6879 45.668 81.8711 46.8628 81.7878 48.0437C81.7573 48.4696 81.1742 48.8596 80.8466 49.2634C80.4634 48.9205 80.0525 48.6052 79.7138 48.2235C79.5944 48.088 79.6527 47.7948 79.6277 47.5736V47.5763ZM62.1082 44.7747C60.5534 46.3207 60.6561 47.6593 62.2803 48.5277C61.7139 49.1915 61.1725 49.8304 60.6089 50.4941C61.5779 51.0777 62.1998 50.8011 62.3969 49.8248C62.6024 48.8043 62.7468 47.7478 62.7357 46.7107C62.7301 46.1105 62.3608 45.5131 62.111 44.7774L62.1082 44.7747ZM75.9239 50.4029C75.9683 50.5439 76.01 50.6877 76.0544 50.8288C76.5236 50.6573 77.2566 50.6158 77.4121 50.295C78.1368 48.8209 78.2922 47.2361 77.7342 45.6514C77.6481 45.4025 77.3177 45.2421 77.0984 45.0402C76.8984 45.2642 76.6347 45.455 76.5125 45.715C75.9267 46.9817 76.171 47.7395 77.4926 48.5747C76.9595 49.197 76.4403 49.7999 75.9211 50.4029H75.9239ZM83.1233 47.1117C82.9012 47.8833 82.8568 48.6964 83.8507 48.9232C84.928 49.1694 85.3084 48.3784 85.3639 47.4629C85.4333 46.293 85.114 45.2697 84.0867 44.5451C82.904 45.8616 84.8281 46.2709 84.7725 47.474C84.1839 47.344 83.6814 47.2334 83.1261 47.1089L83.1233 47.1117ZM74.4912 47.4021C73.9026 47.344 73.3557 47.2887 72.7976 47.2306C72.6449 48.0824 72.6754 48.8956 73.7555 48.9564C74.7522 49.0117 75.0299 48.265 75.066 47.3938C75.1132 46.2405 74.7661 45.2808 73.8221 44.5313C72.5866 45.8478 74.4857 46.2543 74.494 47.4021H74.4912ZM62.5191 50.2618L62.9356 50.779C63.3909 50.5909 64.0239 50.5301 64.2655 50.1927C65.1012 49.02 64.918 47.1117 63.7685 46.0192C63.8407 47.6897 64.7236 49.4404 62.5191 50.2646V50.2618Z" fill="#362D2C"/>
<path d="M101.784 75.7587C98.7188 76.8899 95.9756 77.9077 93.2269 78.9172C88.0099 80.8338 82.7929 82.7532 77.5676 84.6477C77.1206 84.8081 76.5431 84.9713 76.1377 84.8247C69.6241 82.4545 63.1271 80.0345 56.6357 77.5592C65.7204 78.6821 74.6051 76.9231 83.5398 75.8721C89.2427 75.2028 94.9566 74.3786 100.707 75.4739C100.959 75.5209 101.204 75.6039 101.781 75.756L101.784 75.7587Z" fill="#362D2C"/>
<path d="M94.6318 35.3547C94.1403 35.2164 93.4712 35.0532 92.8187 34.8403C91.9941 34.5692 91.9414 33.994 92.294 33.3108C92.6299 32.6609 92.9881 32.0193 93.3296 31.3721C93.9904 30.1137 94.6845 29.9975 96.4753 30.8604C97.7775 31.4882 98.1995 32.376 97.6887 33.5044C97.1361 34.7241 96.0922 35.2192 94.629 35.3547H94.6318Z" fill="#362D2C"/>
<path d="M89.0899 32.7134C90.9169 29.0268 92.7105 25.3346 95.237 21.717C95.7535 23.288 90.5753 32.4922 89.0899 32.7134Z" fill="#362D2C"/>
<path d="M93.6128 21.9051C92.9631 22.4251 92.3745 23.0916 91.636 23.3875C91.3861 23.4871 90.3949 22.6712 90.3727 22.2398C90.3116 21.092 91.3028 20.774 92.2579 20.7795C92.6827 20.7795 93.1075 21.1612 93.5323 21.3713C93.5601 21.5484 93.5878 21.7281 93.6128 21.9051Z" fill="#362D2C"/>
<path d="M74.8577 32.1299C76.2265 32.1299 77.5981 32.105 78.9669 32.1382C79.786 32.1576 79.9526 32.6582 79.736 33.3717C79.3306 34.7076 77.5509 35.2967 76.1766 34.4116C75.5185 33.9885 75.066 33.2528 74.5218 32.6582C74.6356 32.4812 74.7467 32.3069 74.8605 32.1299H74.8577Z" fill="#362D2C"/>
<path d="M76.9984 29.5108C77.6842 29.5108 78.3783 29.4527 79.053 29.5384C79.3306 29.5744 79.5666 29.9146 79.8248 30.1192C79.5805 30.335 79.3445 30.7305 79.0946 30.7388C77.6786 30.7858 76.2571 30.7719 74.8411 30.7C74.6134 30.689 74.4024 30.2824 74.1858 30.0584C74.4357 29.8648 74.6717 29.5384 74.941 29.5053C75.6185 29.425 76.3098 29.4776 76.9984 29.4776C76.9984 29.4887 76.9984 29.4997 76.9984 29.508V29.5108Z" fill="#362D2C"/>
<path d="M57.402 34.0714C56.4886 32.5807 56.7551 22.4527 57.6658 21.7392C58.3349 22.8704 58.1739 33.0702 57.402 34.0714Z" fill="#362D2C"/>
<path d="M87.735 59.6265C85.2667 59.9224 82.9095 60.1907 80.555 60.4894C75.8156 61.0923 71.0762 61.6814 66.3451 62.3369C65.029 62.5194 64.557 61.8501 64.7958 60.8102C65.0956 59.4993 65.4594 58.0887 66.2146 57.0157C71.7286 49.1915 83.3343 50.1927 87.4546 58.7885C87.5656 59.0208 87.6212 59.2808 87.735 59.6237V59.6265Z" fill="white"/>
<path d="M94.1348 47.7422V50.8149C92.9326 48.8651 93.338 46.7936 94.8706 45.798C95.2898 46.1077 95.7202 46.423 96.3837 46.9125C96.5392 45.3748 96.6725 44.0611 96.8058 42.7446C96.9862 42.7529 97.1667 42.764 97.3472 42.7723V46.6221C97.9497 45.7841 98.4217 45.1314 98.8909 44.4815C99.2435 44.7636 99.5961 45.0457 100.215 45.5435C99.3712 45.6541 98.9437 45.7095 98.5161 45.7648C98.4578 45.892 98.3995 46.0164 98.3384 46.1437C98.8354 46.4036 99.3351 46.6636 99.9404 46.9789C99.9154 48.713 98.3273 47.9967 97.5165 48.1073C96.7808 48.2069 96.2921 48.0769 96.0145 48.9591C95.7729 49.728 95.2509 49.4625 94.9316 48.9426C94.704 48.5719 94.5846 48.1322 94.418 47.7229C94.3236 47.7312 94.2292 47.7367 94.1348 47.745V47.7422Z" fill="white"/>
<path d="M60.0147 45.3831C61.2558 45.538 60.6005 46.4839 60.5894 47.0287C60.5811 47.3827 60.0175 48.0188 59.7037 48.0188C58.4404 48.0188 57.477 48.0963 57.2188 49.6948C57.1494 50.1263 56.086 50.732 55.5585 50.6628C55.0476 50.5965 54.4534 49.8304 54.2341 49.2468C54.0286 48.6937 54.2674 47.9773 54.309 47.3329C54.4395 47.3385 54.5673 47.3412 54.6978 47.3468C54.7283 47.6731 54.7672 47.9995 54.7894 48.3286C54.8477 49.2662 55.5002 49.2855 56.1776 49.197C56.9967 49.0892 57.0578 48.5332 56.9051 47.8667C56.7746 47.297 56.6691 46.7245 56.5969 46.3732H60.0425V45.3472L60.0147 45.3804V45.3831Z" fill="white"/>
<path d="M87.4546 48.2898C87.6129 50.0018 88.7956 49.9714 90.0506 50.0433C89.1843 50.8896 88.3569 50.92 87.5601 50.4581C86.6078 49.9078 86.3829 48.9951 86.6328 47.9552C86.8688 46.9789 87.5379 46.7079 88.4847 46.6996C89.2482 46.694 90.009 46.4866 90.7753 46.4119C91.064 46.3843 91.3666 46.4783 91.7276 46.5253V45.3333C91.8914 45.3333 92.0552 45.3333 92.219 45.3333C92.1774 46.116 92.3023 46.9651 92.0191 47.6482C91.8858 47.9718 90.9807 48.0437 90.4115 48.1073C89.4731 48.2152 88.5208 48.2262 87.4518 48.2843L87.4546 48.2898Z" fill="white"/>
<path d="M70.3598 42.7668V46.6056C70.4487 46.6083 70.5375 46.6139 70.6236 46.6166C70.6902 46.4645 70.7402 46.3013 70.8291 46.1631C71.1039 45.7344 71.3955 45.3168 71.6787 44.8936C71.9674 45.4136 72.4866 45.9363 72.4866 46.4562C72.4866 47.0647 72.0424 47.6787 71.7897 48.2871C71.029 47.7644 69.3575 48.5913 69.4936 46.7439C69.5935 45.4025 69.0965 43.9837 69.824 42.7225C70.0017 42.7364 70.1766 42.7474 70.3543 42.7613L70.3598 42.7668Z" fill="white"/>
<path d="M69.0466 44.7996C68.283 44.9323 67.7999 45.0181 67.3168 45.101C67.3085 45.2365 67.3002 45.3693 67.2918 45.5048C67.8166 45.668 68.3441 45.8312 69.2604 46.1133C68.8189 46.4977 68.4802 47.037 68.1414 47.037C67.0003 47.0425 66.706 47.6316 66.7143 48.6024C66.7254 49.6368 67.2058 50.1318 68.2636 50.035C68.4802 50.0157 68.7023 50.0571 69.0854 50.082C68.3164 51.0362 67.3252 51.0334 66.7088 50.5494C66.1785 50.1346 65.7592 49.1306 65.8509 48.4669C66.0397 47.1338 66.5644 45.8395 67.0531 44.5672C67.1863 44.2188 67.7194 43.7652 68.0165 43.8011C68.3552 43.8399 68.6357 44.3736 69.0438 44.7996H69.0466Z" fill="white"/>
<path d="M79.6305 47.5763C79.6527 47.7976 79.5944 48.0907 79.7166 48.2263C80.0553 48.6079 80.4662 48.9232 80.8494 49.2662C81.1798 48.8596 81.76 48.4724 81.7906 48.0465C81.8739 46.8683 81.6906 45.6707 81.6906 44.4815C81.6906 43.9145 81.8766 43.3448 81.9766 42.7778C82.1487 42.8 82.3237 42.8221 82.4958 42.8442C82.4958 43.4858 82.5041 44.1275 82.4958 44.7719C82.4764 46.0552 82.5958 47.3634 82.3653 48.6107C82.2265 49.3574 81.6379 50.1152 81.0437 50.6324C80.8133 50.8343 79.6805 50.5301 79.5389 50.2037C79.1918 49.421 79.189 48.4862 79.0474 47.6123C79.2418 47.6012 79.4361 47.5901 79.6305 47.5791V47.5763Z" fill="white"/>
<path d="M62.1137 44.7747C62.3664 45.5104 62.7329 46.1077 62.7384 46.7079C62.7495 47.745 62.6051 48.7988 62.3997 49.8221C62.2026 50.7984 61.5806 51.0777 60.6116 50.4914C61.1753 49.8276 61.7194 49.1887 62.2831 48.525C60.6588 47.6565 60.5561 46.3179 62.1109 44.7719L62.1137 44.7747Z" fill="white"/>
<path d="M75.9294 50.4028C76.4486 49.7999 76.9678 49.197 77.5009 48.5747C76.1793 47.7395 75.935 46.9817 76.5208 45.715C76.6402 45.455 76.9068 45.2642 77.1067 45.0402C77.326 45.2421 77.6564 45.4052 77.7425 45.6514C78.2978 47.2361 78.1451 48.8209 77.4204 50.295C77.2622 50.6158 76.5292 50.6573 76.0627 50.8288C76.0183 50.6877 75.9766 50.5439 75.9322 50.4028H75.9294Z" fill="white"/>
<path d="M83.1261 47.1117C83.6841 47.2361 84.1867 47.3467 84.7725 47.4767C84.8308 46.2736 82.9067 45.8616 84.0867 44.5479C85.114 45.2697 85.4333 46.2958 85.3639 47.4657C85.3084 48.3783 84.928 49.1721 83.8507 48.9259C82.8568 48.6992 82.9012 47.886 83.1233 47.1144L83.1261 47.1117Z" fill="white"/>
<path d="M74.494 47.4021C74.4885 46.2571 72.5866 45.8505 73.8221 44.5313C74.7661 45.2808 75.1132 46.2433 75.066 47.3938C75.0299 48.2622 74.7522 49.0117 73.7555 48.9564C72.6754 48.8956 72.6449 48.0825 72.7976 47.2306C73.3584 47.2859 73.9054 47.3413 74.4912 47.4021H74.494Z" fill="white"/>
<path d="M62.5219 50.2618C64.7264 49.4376 63.8435 47.6897 63.7713 46.0165C64.9207 47.1117 65.104 49.0173 64.2683 50.1899C64.0267 50.5301 63.3909 50.5882 62.9383 50.7762L62.5219 50.2591V50.2618Z" fill="white"/>
<path d="M60.0425 45.3499C59.6066 45.4412 59.1706 45.5325 58.4738 45.6818C58.7375 44.7885 58.918 44.1856 59.0957 43.5827C59.2123 43.5688 59.3289 43.5578 59.4455 43.5439C59.6343 44.1579 59.8259 44.7691 60.0147 45.3831L60.0425 45.3499Z" fill="white"/>
</svg>
