<svg width="38" height="47" viewBox="0 0 38 47" fill="none" xmlns="http://www.w3.org/2000/svg">
<path d="M18.0731 22.7891L1.0769 43.0274C1.07754 43.0316 1.07882 43.0351 1.07946 43.0393C1.60069 45.2368 3.38979 46.855 5.51317 46.855C6.36199 46.855 7.15892 46.5975 7.84234 46.1456L7.89662 46.1099L27.028 33.7247L18.0731 22.7891" fill="#EB3131"/>
<path d="M35.2683 19.3429L35.252 19.3304L26.9925 13.9586L17.6872 23.2482L27.0249 33.7227L35.2409 28.4043C36.6813 27.5319 37.6591 25.8283 37.6591 23.8637C37.6591 21.9133 36.6944 20.2182 35.2683 19.3429" fill="#F6B60B"/>
<path d="M1.07628 4.61591C0.974114 5.03859 0.92041 5.48132 0.92041 5.94107V41.703C0.92041 42.1619 0.973475 42.6062 1.07692 43.0273L18.6581 23.3068L1.07628 4.61591Z" fill="#5778C5"/>
<path d="M18.1985 23.8218L26.9956 13.9552L7.88595 1.52526C7.19135 1.05853 6.38069 0.789162 5.5132 0.789162C3.38981 0.789162 1.59832 2.4102 1.07693 4.61044C1.07629 4.61259 1.07629 4.61402 1.07629 4.61599L18.1985 23.8218Z" fill="#3BAD49"/>
</svg>
