<?xml version="1.0" encoding="UTF-8" standalone="no"?>
<!-- Created with Inkscape (http://www.inkscape.org/) -->

<svg
   version="1.1"
   id="svg2"
   width="1333.3333"
   height="1333.3333"
   viewBox="0 0 1333.3333 1333.3333"
   sodipodi:docname="robotronicsCharacter.ai"
   xmlns:inkscape="http://www.inkscape.org/namespaces/inkscape"
   xmlns:sodipodi="http://sodipodi.sourceforge.net/DTD/sodipodi-0.dtd"
   xmlns="http://www.w3.org/2000/svg"
   xmlns:svg="http://www.w3.org/2000/svg">
  <defs
     id="defs6">
    <clipPath
       clipPathUnits="userSpaceOnUse"
       id="clipPath16">
      <path
         d="M 0,1000 H 1000 V 0 H 0 Z"
         id="path14" />
    </clipPath>
    <clipPath
       clipPathUnits="userSpaceOnUse"
       id="clipPath44">
      <path
         d="m 446.818,151.12 h 17.84 v -20.342 h -17.84 z"
         id="path42" />
    </clipPath>
    <clipPath
       clipPathUnits="userSpaceOnUse"
       id="clipPath80">
      <path
         d="m 553.571,151.12 h 17.841 v -20.342 h -17.841 z"
         id="path78" />
    </clipPath>
    <clipPath
       clipPathUnits="userSpaceOnUse"
       id="clipPath104">
      <path
         d="M 619.578,479.088 H 764.561 V 389.297 H 619.578 Z"
         id="path102" />
    </clipPath>
    <clipPath
       clipPathUnits="userSpaceOnUse"
       id="clipPath152">
      <path
         d="m 231.05,521.313 h 136.715 v -84.67 H 231.05 Z"
         id="path150" />
    </clipPath>
  </defs>
  <sodipodi:namedview
     id="namedview4"
     pagecolor="#ffffff"
     bordercolor="#000000"
     borderopacity="0.25"
     inkscape:showpageshadow="2"
     inkscape:pageopacity="0.0"
     inkscape:pagecheckerboard="0"
     inkscape:deskcolor="#d1d1d1" />
  <g
     id="g8"
     inkscape:groupmode="layer"
     inkscape:label="robotronicsCharacter"
     transform="matrix(1.3333333,0,0,-1.3333333,0,1333.3333)">
    <g
       id="g10">
      <g
         id="g12"
         clip-path="url(#clipPath16)">
        <g
           id="g18"
           transform="translate(471.5078,128.998)">
          <path
             d="m 0,0 c 0,-20.021 -22.327,-35.567 -53.807,-35.567 -31.476,0 -55.628,7.795 -55.628,27.814 0,20.022 24.428,36.023 55.904,36.023 C -20.628,28.27 0,28.829 0,0"
             style="fill:#ffac29;fill-opacity:1;fill-rule:nonzero;stroke:none"
             id="path20" />
        </g>
        <g
           id="g22"
           transform="translate(362.0552,121.2275)">
          <path
             d="m 0,0 c 0,-19.989 24.184,-27.797 55.628,-27.797 31.484,0 53.807,15.539 53.807,35.568 0,1.239 -0.036,2.443 -0.144,3.573 C 101.338,-1.131 83.1,-9.559 59.897,-9.559 30.459,-9.559 7.443,-2.736 4.597,14.481 1.606,10.067 0,5.142 0,0"
             style="fill:#342a28;fill-opacity:1;fill-rule:nonzero;stroke:none"
             id="path24" />
        </g>
        <g
           id="g26"
           transform="translate(461.8115,263.6855)">
          <path
             d="m 0,0 c -6.487,3.964 -22.676,4.842 -22.676,4.842 -31.787,-27.529 -35.012,-81.571 -26.54,-120.198 3.135,-12.342 27.906,-14.318 33.644,-4.863 C -20.071,-79.893 -23.047,-36.532 0,0"
             style="fill:#e26400;fill-opacity:1;fill-rule:nonzero;stroke:none"
             id="path28" />
        </g>
        <g
           id="g30"
           transform="translate(423.3018,138.8096)">
          <path
             d="m 0,0 c 8.499,-2.663 19.368,-1.205 22.945,4.671 -4.524,40.308 -7.475,83.68 15.576,120.195 -6.491,3.976 -22.688,4.852 -22.688,4.852 -0.399,-0.366 -0.801,-0.732 -1.204,-1.095 3.577,-0.729 7.041,-1.75 9.301,-3.138 C 0.879,88.971 3.831,45.598 8.354,5.252 6.748,2.627 3.683,0.877 0,0"
             style="fill:#342a28;fill-opacity:1;fill-rule:nonzero;stroke:none"
             id="path32" />
        </g>
        <g
           id="g34"
           transform="translate(447.7969,238.3906)">
          <path
             d="m 0,0 c -5.078,6.293 -18.344,8.865 -25.671,6.112 m 22.002,-22.819 c -6.903,4.403 -23.859,9.638 -30.964,0 M -5.297,-37.08 c -7.571,5.865 -23.259,8.08 -32.189,2.446 m -0.816,-25.265 c 8.563,4.966 24.079,3.866 32.189,-1.629"
             style="fill:none;stroke:#342a28;stroke-width:1;stroke-linecap:round;stroke-linejoin:miter;stroke-miterlimit:10;stroke-dasharray:none;stroke-opacity:1"
             id="path36" />
        </g>
        <g
           id="g38">
          <g
             id="g40" />
          <g
             id="g52">
            <g
               clip-path="url(#clipPath44)"
               id="g50">
              <g
                 transform="translate(452.8003,150.6436)"
                 id="g48">
                <path
                   d="m 0,0 c 6.529,-3.361 11.769,-8.404 11.857,-16.174 0.057,-4.947 -7.411,-4.896 -7.637,0 C 4,-11.337 -0.06,-8.802 -3.983,-6.815 -8.524,-4.519 -4.523,2.33 0,0"
                   style="fill:#f2c737;fill-opacity:1;fill-rule:nonzero;stroke:none"
                   id="path46" />
              </g>
            </g>
          </g>
        </g>
        <g
           id="g54"
           transform="translate(546.7217,128.998)">
          <path
             d="m 0,0 c 0,-20.021 22.327,-35.567 53.807,-35.567 31.475,0 55.629,7.795 55.629,27.814 0,20.022 -24.429,36.023 -55.905,36.023 C 20.629,28.27 0,28.829 0,0"
             style="fill:#ffac29;fill-opacity:1;fill-rule:nonzero;stroke:none"
             id="path56" />
        </g>
        <g
           id="g58"
           transform="translate(656.1748,121.2275)">
          <path
             d="m 0,0 c 0,-19.989 -24.185,-27.797 -55.629,-27.797 -31.483,0 -53.807,15.539 -53.807,35.568 0,1.239 0.036,2.443 0.145,3.573 7.952,-12.475 26.19,-20.903 49.394,-20.903 29.438,0 52.454,6.823 55.299,24.04 C -1.606,10.067 0,5.142 0,0"
             style="fill:#342a28;fill-opacity:1;fill-rule:nonzero;stroke:none"
             id="path60" />
        </g>
        <g
           id="g62"
           transform="translate(556.418,263.6855)">
          <path
             d="m 0,0 c 6.486,3.964 22.677,4.842 22.677,4.842 31.786,-27.529 35.011,-81.571 26.54,-120.198 -3.136,-12.342 -27.906,-14.318 -33.645,-4.863 C 20.07,-79.893 23.048,-36.532 0,0"
             style="fill:#e26400;fill-opacity:1;fill-rule:nonzero;stroke:none"
             id="path64" />
        </g>
        <g
           id="g66"
           transform="translate(594.9277,138.8096)">
          <path
             d="m 0,0 c -8.499,-2.663 -19.368,-1.205 -22.945,4.671 4.523,40.308 7.475,83.68 -15.576,120.195 6.491,3.976 22.688,4.852 22.688,4.852 0.398,-0.366 0.802,-0.732 1.204,-1.095 -3.577,-0.729 -7.041,-1.75 -9.301,-3.138 C -0.879,88.971 -3.831,45.598 -8.354,5.252 -6.748,2.627 -3.683,0.877 0,0"
             style="fill:#342a28;fill-opacity:1;fill-rule:nonzero;stroke:none"
             id="path68" />
        </g>
        <g
           id="g70"
           transform="translate(596.1035,244.5029)">
          <path
             d="M 0,0 C -7.326,2.753 -20.593,0.181 -25.671,-6.112 M 8.962,-22.819 c -7.105,9.637 -24.061,4.403 -30.964,0 m 33.817,-17.927 c -8.93,5.634 -24.619,3.419 -32.189,-2.446 m 0.815,-24.449 c 8.112,5.495 23.627,6.596 32.19,1.629"
             style="fill:none;stroke:#342a28;stroke-width:1;stroke-linecap:round;stroke-linejoin:miter;stroke-miterlimit:10;stroke-dasharray:none;stroke-opacity:1"
             id="path72" />
        </g>
        <g
           id="g74">
          <g
             id="g76" />
          <g
             id="g88">
            <g
               clip-path="url(#clipPath80)"
               id="g86">
              <g
                 transform="translate(565.4287,150.6436)"
                 id="g84">
                <path
                   d="m 0,0 c -6.528,-3.361 -11.769,-8.404 -11.857,-16.174 -0.056,-4.947 7.412,-4.896 7.638,0 0.219,4.837 4.28,7.372 8.202,9.359 C 8.524,-4.519 4.523,2.33 0,0"
                   style="fill:#f2c737;fill-opacity:1;fill-rule:nonzero;stroke:none"
                   id="path82" />
              </g>
            </g>
          </g>
        </g>
        <g
           id="g90"
           transform="translate(742.7646,374.2227)">
          <path
             d="m 0,0 c 6.907,59.788 -99.73,104.87 -129.402,46.941 l 5.093,47.813 C -62.155,126.98 21.109,77.829 22.053,9.977 Z"
             style="fill:#b3afad;fill-opacity:1;fill-rule:nonzero;stroke:none"
             id="path92" />
        </g>
        <g
           id="g94"
           transform="translate(613.3828,421.1562)">
          <path
             d="m 0,0 5.08,47.804 c 1.611,0.848 3.223,1.607 4.832,2.291 59.812,26.674 136.147,-18.277 141.267,-81.511 0.124,-1.812 0.206,-3.698 0.248,-5.546 l -22.056,-9.964 C 136.309,12.854 29.658,57.932 0,0"
             style="fill:#342a28;fill-opacity:1;fill-rule:nonzero;stroke:none"
             id="path96" />
        </g>
        <g
           id="g98">
          <g
             id="g100" />
          <g
             id="g112">
            <g
               clip-path="url(#clipPath104)"
               opacity="0.5"
               id="g110">
              <g
                 transform="translate(619.5781,436.2217)"
                 id="g108">
                <path
                   d="m 0,0 3.717,35.029 c 59.811,26.674 136.146,-18.276 141.266,-81.51 l -15.612,-0.444 C 136.309,12.854 29.658,57.933 0,0"
                   style="fill:#b3afad;fill-opacity:1;fill-rule:nonzero;stroke:none"
                   id="path106" />
              </g>
            </g>
          </g>
        </g>
        <g
           id="g114"
           transform="translate(677.2148,450.3203)">
          <path
             d="M 0,0 C 0,14.813 12.559,26.833 28.053,26.833 43.546,26.833 56.105,14.813 56.105,0 56.105,-14.826 43.546,-26.842 28.053,-26.842 12.559,-26.842 0,-14.826 0,0"
             style="fill:#e26400;fill-opacity:1;fill-rule:nonzero;stroke:none"
             id="path116" />
        </g>
        <g
           id="g118"
           transform="translate(677.2012,450.3242)">
          <path
             d="m 0,0 c 0,14.821 12.557,26.833 28.046,26.833 15.076,0 27.386,-11.327 28.005,-25.594 -5.08,6.594 -13.259,10.848 -22.471,10.848 -15.49,0 -28.047,-12.012 -28.047,-26.833 0,-0.444 0,-0.884 0.084,-1.328 C 2.064,-11.611 0,-6.026 0,0"
             style="fill:#ffac29;fill-opacity:1;fill-rule:nonzero;stroke:none"
             id="path120" />
        </g>
        <g
           id="g122"
           transform="translate(653.041,477.3291)">
          <path
             d="M 0,0 C -5.553,-8.473 -6.704,-19.064 -3.869,-29.849 M 22.177,0.252 C 15.474,-4.263 10.571,-19.812 11.863,-29.097 m 88.726,-23.774 C 92.804,-53.358 83.126,-57.98 78.14,-63.711 m 7.302,-13.526 c 5.685,4.934 12.871,8.965 20.655,9.876"
             style="fill:none;stroke:#4e5265;stroke-width:1;stroke-linecap:round;stroke-linejoin:miter;stroke-miterlimit:10;stroke-dasharray:none;stroke-opacity:1"
             id="path124" />
        </g>
        <g
           id="g126"
           transform="translate(774.5352,336.4541)">
          <path
             d="m 0,0 c 6.034,5.885 6.119,15.566 0.188,21.524 -5.923,5.952 -15.782,5.981 -21.55,0.065 C -27.058,15.748 -27.021,6.049 -21.28,0.276 -15.487,-5.55 -5.819,-5.675 0,0 m -34.343,-3.222 c 0.799,1.463 1.331,3.663 0.84,5.144 -2.754,8.31 -1.884,15.934 2.98,23.278 0.944,1.425 1.135,3.809 0.765,5.559 -1.145,5.423 -2.729,10.753 -4.248,16.517 9.455,-1.129 17.891,0.979 25.689,6.869 1.597,-5.906 2.872,-11.299 4.588,-16.547 0.539,-1.646 1.988,-3.416 3.503,-4.245 6.512,-3.559 11.675,-8.499 13.136,-15.741 0.941,-4.664 3.204,-7.091 7.078,-8.83 0.737,-0.331 1.43,-0.763 2.127,-1.175 5.411,-3.188 10.818,-6.383 16.35,-9.649 -8.771,-15.229 -17.264,-29.974 -26.071,-45.268 -1.492,4.043 -2.449,7.283 -0.879,11.015 3.349,7.967 6.406,16.056 9.655,24.278 -4.399,1.703 -8.397,3.356 -12.483,4.752 -0.936,0.32 -2.491,0.135 -3.225,-0.468 -6.044,-4.966 -12.869,-6.692 -20.549,-5.574 -0.899,0.13 -2.267,-0.144 -2.798,-0.762 -2.893,-3.37 -5.593,-6.907 -8.439,-10.486 0.783,-0.785 1.291,-1.397 1.899,-1.886 6.028,-4.843 11.958,-9.818 18.156,-14.432 3.183,-2.369 4.018,-5.446 4.481,-9.147 -0.626,0.082 -1.067,0.019 -1.371,0.194 -14.32,8.246 -28.625,16.512 -43.487,25.096 4.27,7.407 8.413,14.388 12.303,21.508"
             style="fill:#e26400;fill-opacity:1;fill-rule:nonzero;stroke:none"
             id="path128" />
        </g>
        <g
           id="g130"
           transform="translate(770.6426,340.6475)">
          <path
             d="m 0,0 c 3.706,3.696 3.707,10.026 0.002,13.589 -3.865,3.716 -9.568,3.496 -13.458,-0.519 -3.64,-3.757 -3.535,-9.448 0.239,-13.104 C -9.529,-3.606 -3.602,-3.591 0,0 m -17.47,17.396 c 5.769,5.916 15.627,5.886 21.551,-0.065 5.931,-5.958 5.846,-15.64 -0.188,-21.524 -5.82,-5.675 -15.488,-5.55 -21.281,0.276 -5.74,5.772 -5.777,15.472 -0.082,21.313"
             style="fill:#ffac29;fill-opacity:1;fill-rule:nonzero;stroke:none"
             id="path132" />
        </g>
        <g
           id="g134"
           transform="translate(757.4258,340.6133)">
          <path
             d="M 0,0 C 3.688,-3.572 9.615,-3.557 13.217,0.034 16.923,3.73 16.924,10.061 13.219,13.623 9.354,17.339 3.65,17.119 -0.239,13.104 -3.879,9.348 -3.774,3.656 0,0"
             style="fill:#e26400;fill-opacity:1;fill-rule:nonzero;stroke:none"
             id="path136" />
        </g>
        <g
           id="g138"
           transform="translate(251.604,535.5269)">
          <path
             d="m 0,0 c -6.513,-56.377 94.042,-98.889 122.021,-44.264 l -4.803,-45.085 C 58.61,-119.739 -19.905,-73.39 -20.795,-9.407 Z"
             style="fill:#b3afad;fill-opacity:1;fill-rule:nonzero;stroke:none"
             id="path140" />
        </g>
        <g
           id="g142"
           transform="translate(373.6064,491.2705)">
          <path
             d="m 0,0 -4.79,-45.078 c -1.519,-0.8 -3.039,-1.516 -4.557,-2.16 -56.4,-25.153 -128.382,17.234 -133.209,76.862 -0.117,1.708 -0.194,3.487 -0.234,5.229 l 20.797,9.396 C -128.535,-12.121 -27.966,-54.629 0,0"
             style="fill:#342a28;fill-opacity:1;fill-rule:nonzero;stroke:none"
             id="path144" />
        </g>
        <g
           id="g146">
          <g
             id="g148" />
          <g
             id="g160">
            <g
               clip-path="url(#clipPath152)"
               opacity="0.5"
               id="g158">
              <g
                 transform="translate(367.7646,477.0645)"
                 id="g156">
                <path
                   d="m 0,0 -3.505,-33.032 c -56.4,-25.153 -128.382,17.234 -133.209,76.862 l 14.721,0.418 C -128.535,-12.122 -27.966,-54.629 0,0"
                   style="fill:#b3afad;fill-opacity:1;fill-rule:nonzero;stroke:none"
                   id="path154" />
              </g>
            </g>
          </g>
        </g>
        <g
           id="g162"
           transform="translate(313.415,463.7695)">
          <path
             d="m 0,0 c 0,-13.969 -11.843,-25.303 -26.453,-25.303 -14.61,0 -26.452,11.334 -26.452,25.303 0,13.98 11.842,25.311 26.452,25.311 C -11.843,25.311 0,13.98 0,0"
             style="fill:#e26400;fill-opacity:1;fill-rule:nonzero;stroke:none"
             id="path164" />
        </g>
        <g
           id="g166"
           transform="translate(313.4282,463.7656)">
          <path
             d="m 0,0 c 0,-13.977 -11.841,-25.303 -26.447,-25.303 -14.216,0 -25.823,10.682 -26.407,24.135 4.79,-6.218 12.502,-10.229 21.189,-10.229 14.606,0 26.447,11.326 26.447,25.302 0,0.419 0,0.833 -0.079,1.252 C -1.947,10.949 0,5.683 0,0"
             style="fill:#ffac29;fill-opacity:1;fill-rule:nonzero;stroke:none"
             id="path168" />
        </g>
        <g
           id="g170"
           transform="translate(255.6406,511.1328)">
          <path
             d="m 0,0 c -2.502,-2.689 -5.532,-4.895 -8.835,-6.556 -3.307,-1.634 -6.956,-2.726 -10.641,-2.757 3.577,0.82 6.971,2.036 10.196,3.652 3.236,1.595 6.266,3.57 9.28,5.661"
             style="fill:#4b3e3c;fill-opacity:1;fill-rule:nonzero;stroke:none"
             id="path172" />
        </g>
        <g
           id="g174"
           transform="translate(241.3584,488.1562)">
          <path
             d="m 0,0 c 1.985,0.325 3.906,0.842 5.789,1.452 1.877,0.628 3.719,1.358 5.496,2.222 1.784,0.847 3.509,1.82 5.169,2.896 1.65,1.091 3.246,2.276 4.714,3.652 C 19.992,8.587 18.519,7.157 16.905,5.934 15.295,4.697 13.541,3.658 11.716,2.772 8.063,1.053 4.043,-0.108 0,0"
             style="fill:#4b3e3c;fill-opacity:1;fill-rule:nonzero;stroke:none"
             id="path176" />
        </g>
        <g
           id="g178"
           transform="translate(315.2983,438.0635)">
          <path
             d="m 0,0 c 0.949,0.849 1.844,1.724 2.545,2.77 l 0.556,0.752 0.496,0.797 c 0.342,0.523 0.645,1.069 0.925,1.629 1.153,2.217 2.104,4.538 2.869,6.921 0.78,2.378 1.385,4.817 1.812,7.287 0.106,0.617 0.184,1.24 0.278,1.861 0.083,0.623 0.114,1.249 0.178,1.875 0.061,0.626 0.063,1.254 0.098,1.885 L 9.726,27.675 C 10.26,25.183 10.228,22.589 9.965,20.05 9.71,17.502 9.118,14.999 8.342,12.561 7.536,10.134 6.534,7.757 5.187,5.569 3.851,3.399 2.202,1.311 0,0"
             style="fill:#4b3e3c;fill-opacity:1;fill-rule:nonzero;stroke:none"
             id="path180" />
        </g>
        <g
           id="g182"
           transform="translate(336.2109,438.3008)">
          <path
             d="m 0,0 c 1.161,2.15 2.14,4.371 2.86,6.669 0.709,2.301 1.217,4.655 1.472,7.044 0.278,2.386 0.306,4.798 0.189,7.208 -0.058,1.206 -0.18,2.41 -0.334,3.612 L 3.945,26.341 C 3.835,26.938 3.737,27.54 3.647,28.146 4.054,26.992 4.373,25.811 4.669,24.619 4.924,23.42 5.134,22.209 5.287,20.987 5.589,18.543 5.589,16.059 5.325,13.602 5.038,11.147 4.485,8.715 3.582,6.416 3.359,5.841 3.096,5.281 2.856,4.715 2.593,4.158 2.306,3.613 2.028,3.065 L 1.067,1.494 C 0.724,0.986 0.362,0.49 0,0"
             style="fill:#4b3e3c;fill-opacity:1;fill-rule:nonzero;stroke:none"
             id="path184" />
        </g>
        <g
           id="g186"
           transform="translate(221.6455,571.1411)">
          <path
             d="m 0,0 c -5.69,-5.549 -5.771,-14.679 -0.178,-20.296 5.586,-5.612 14.882,-5.64 20.322,-0.061 5.37,5.507 5.335,14.654 -0.077,20.097 C 14.604,5.233 5.487,5.352 0,0 m 32.384,3.039 c -0.754,-1.38 -1.255,-3.455 -0.792,-4.851 2.597,-7.836 1.776,-15.026 -2.81,-21.951 -0.89,-1.343 -1.071,-3.591 -0.722,-5.241 1.081,-5.114 2.574,-10.14 4.006,-15.575 -8.916,1.064 -16.87,-0.924 -24.223,-6.477 -1.507,5.568 -2.708,10.654 -4.327,15.603 -0.508,1.552 -1.874,3.222 -3.304,4.003 -6.14,3.355 -11.009,8.013 -12.386,14.843 -0.887,4.397 -3.021,6.686 -6.675,8.326 -0.694,0.312 -1.347,0.72 -2.005,1.108 -5.102,3.006 -10.201,6.019 -15.417,9.099 8.271,14.36 16.278,28.264 24.584,42.685 1.406,-3.812 2.309,-6.866 0.829,-10.385 -3.159,-7.513 -6.041,-15.141 -9.105,-22.894 4.148,-1.605 7.918,-3.165 11.772,-4.481 0.882,-0.302 2.348,-0.128 3.041,0.441 5.698,4.683 12.135,6.31 19.377,5.256 0.847,-0.123 2.136,0.136 2.637,0.719 2.729,3.178 5.275,6.512 7.959,9.888 -0.739,0.74 -1.218,1.318 -1.791,1.779 C 17.349,29.5 11.755,34.191 5.91,38.542 2.909,40.776 2.123,43.678 1.686,47.167 2.276,47.091 2.692,47.15 2.979,46.984 16.481,39.209 29.972,31.415 43.985,23.32 39.958,16.335 36.053,9.752 32.384,3.039"
             style="fill:#e26400;fill-opacity:1;fill-rule:nonzero;stroke:none"
             id="path188" />
        </g>
        <g
           id="g190"
           transform="translate(225.3164,567.187)">
          <path
             d="m 0,0 c -3.495,-3.486 -3.496,-9.454 -0.002,-12.814 3.644,-3.504 9.023,-3.296 12.69,0.489 3.432,3.543 3.334,8.909 -0.226,12.358 C 8.985,3.401 3.396,3.387 0,0 m 16.473,-16.403 c -5.44,-5.579 -14.736,-5.551 -20.322,0.061 -5.592,5.617 -5.512,14.747 0.178,20.296 5.487,5.352 14.604,5.234 20.067,-0.26 5.412,-5.443 5.447,-14.59 0.077,-20.097"
             style="fill:#ffac29;fill-opacity:1;fill-rule:nonzero;stroke:none"
             id="path192" />
        </g>
        <g
           id="g194"
           transform="translate(237.7788,567.2197)">
          <path
             d="m 0,0 c -3.477,3.369 -9.067,3.354 -12.462,-0.033 -3.496,-3.486 -3.496,-9.454 -0.002,-12.814 3.644,-3.504 9.022,-3.296 12.689,0.489 C 3.657,-8.815 3.56,-3.448 0,0"
             style="fill:#e26400;fill-opacity:1;fill-rule:nonzero;stroke:none"
             id="path196" />
        </g>
        <g
           id="g198"
           transform="translate(367.6807,411.4697)">
          <path
             d="M 0,0 C -0.017,-0.614 0.065,-1.211 0.042,-1.824 -1.292,-37.87 16.67,-158.364 87.311,-160.066 v 0.323 h 96.659 v 0.17 c 0,0 56.714,0.986 71.509,65.096 l 19.755,98.779 c 0.782,3.907 1.793,23.888 2.544,29.363 0.059,0.422 0.096,0.819 0.117,1.245 0.199,4.137 2.067,22.513 2.073,29.008 10e-4,0.597 0.075,1.181 0.058,1.777 l -0.294,10.717 c -0.282,10.269 -4.064,20.235 -11.078,27.741 -0.043,0.046 -0.085,0.091 -0.127,0.136 -11.261,11.989 -32.258,33.43 -50.364,31.048 0,0 19.726,32.22 23.014,48.658 0,0 37.175,-7.349 48.001,53.919 l 5.918,26.302 c 0,0 9.206,52.604 -30.905,61.81 0,0 -3.945,65.755 -70.358,71.672 0,0 -7.891,35.508 -52.604,30.576 0,0 -58.192,13.48 -78.083,-37.48 0,0 -72.988,-20.219 -62.139,-86.796 0,0 -38.959,-5.918 -32.549,-70.522 0,0 1.973,-72.988 58.687,-72.002 0,0 5.425,-18.74 17.261,-30.576 0,0 -40.244,-14.04 -48.733,-34.976 -0.743,-1.831 -1.201,-3.552 -1.609,-5.805 -0.42,-2.325 -0.513,-4.699 -0.335,-7.055 z"
             style="fill:#342a28;fill-opacity:1;fill-rule:nonzero;stroke:none"
             id="path200" />
        </g>
        <g
           id="g202"
           transform="translate(476.8965,816.4517)">
          <path
             d="m 0,0 c 0,0 -27.617,0.556 -27.617,-22.645 v -77.886 c 0,0 -20.567,37.431 -40.293,44.637 0,0 -28.768,17.014 -25.133,-67.626 0,0 4.174,-95.824 47.589,-141.084 6.597,-6.876 15.847,-10.57 25.376,-10.57 h 98.326 c 0,0 54.577,-3.876 54.248,168.467 0,0 8.548,76.856 -58.193,77.543 L 60.166,-83.032 v 71.71 C 60.166,-11.322 55.234,5.147 0,0"
             style="fill:#ffac29;fill-opacity:1;fill-rule:nonzero;stroke:none"
             id="path204" />
        </g>
        <g
           id="g206"
           transform="translate(492.0776,817.4619)">
          <path
             d="m 0,0 c 0,0 44.79,-22.63 44.59,-81.809 v 69.546 c 0,0 -4.486,14.18 -44.59,12.263"
             style="fill:#fcfba9;fill-opacity:1;fill-rule:nonzero;stroke:none"
             id="path208" />
        </g>
        <g
           id="g210"
           transform="translate(546.4209,770.6523)">
          <path
             d="m 0,0 c 0,0 47.759,0.508 46.772,-50.781 0,0 3.097,-121.432 -7.752,-153.981 0,0 27.126,66.111 24.036,167.583 -0.601,19.7 -11.204,38.241 -28.778,47.164 -7.764,3.943 -17.565,6.612 -29.894,6.72 z"
             style="fill:#fcfba9;fill-opacity:1;fill-rule:nonzero;stroke:none"
             id="path212" />
        </g>
        <g
           id="g214"
           transform="translate(513.3057,782.9087)">
          <path
             d="m 0,0 c -0.602,-2.044 -1.649,-3.961 -3.018,-5.62 -1.383,-1.647 -3.105,-3.016 -5.028,-4.011 -3.851,-2.002 -8.524,-2.322 -12.655,-0.948 -4.122,1.399 -7.651,4.48 -9.513,8.401 -0.931,1.955 -1.474,4.086 -1.582,6.235 -0.087,2.149 0.236,4.309 0.991,6.301 -1.22,-4.08 -0.82,-8.563 1.108,-12.279 1.901,-3.726 5.27,-6.657 9.235,-7.947 3.939,-1.37 8.395,-1.068 12.161,0.751 C -4.52,-7.32 -1.491,-3.989 0,0"
             style="fill:#362928;fill-opacity:1;fill-rule:nonzero;stroke:none"
             id="path216" />
        </g>
        <g
           id="g218"
           transform="translate(471.5835,816.0332)">
          <path
             d="m 0,0 c 0,0 -47.138,5.316 -24.452,-95.422 l -19.465,28.482 c -0.646,0.802 -16.296,27.553 -33.63,11.123 -9.406,-8.915 -29.434,-99.031 25.785,-192.877 11.235,-19.095 14.07,-24.759 35.275,-26.008 l 43.743,-0.015 c 3.218,0.127 0,10.634 -4.279,20.081 C 13.705,-234.169 -3.614,-175.728 0,0"
             style="fill:#e26400;fill-opacity:1;fill-rule:nonzero;stroke:none"
             id="path220" />
        </g>
        <g
           id="g222"
           transform="translate(468.5562,686.2666)">
          <path
             d="m 0,0 c 0,-15.962 -12.94,-28.902 -28.902,-28.902 -15.962,0 -28.902,12.94 -28.902,28.902 0,15.962 12.94,28.902 28.902,28.902 C -12.94,28.902 0,15.962 0,0"
             style="fill:#362928;fill-opacity:1;fill-rule:nonzero;stroke:none"
             id="path224" />
        </g>
        <g
           id="g226"
           transform="translate(447.1313,658.0981)">
          <path
             d="m 0,0 c -3.677,-0.896 -7.539,-1.079 -11.303,-0.499 -3.76,0.597 -7.404,1.953 -10.659,3.953 -6.535,3.996 -11.308,10.719 -13.02,18.196 -1.708,7.478 -0.329,15.607 3.818,22.046 2.064,3.216 4.756,6.02 7.884,8.192 3.138,2.158 6.696,3.672 10.397,4.462 -7.361,-1.802 -13.87,-6.569 -17.792,-12.961 -1.95,-3.196 -3.317,-6.749 -3.924,-10.44 -0.617,-3.688 -0.488,-7.491 0.348,-11.132 0.828,-3.643 2.365,-7.124 4.523,-10.177 2.151,-3.06 4.925,-5.668 8.071,-7.7 C -15.347,-0.112 -7.413,-1.577 0,0"
             style="fill:#fcfba9;fill-opacity:1;fill-rule:nonzero;stroke:none"
             id="path228" />
        </g>
        <g
           id="g230"
           transform="translate(575.3232,686.2666)">
          <path
             d="m 0,0 c 0,-15.962 -12.94,-28.902 -28.902,-28.902 -15.962,0 -28.903,12.94 -28.903,28.902 0,15.962 12.941,28.902 28.903,28.902 C -12.94,28.902 0,15.962 0,0"
             style="fill:#362928;fill-opacity:1;fill-rule:nonzero;stroke:none"
             id="path232" />
        </g>
        <g
           id="g234"
           transform="translate(563.1084,694.1572)">
          <path
             d="m 0,0 c 0,-7.038 -5.705,-12.743 -12.742,-12.743 -7.037,0 -12.742,5.705 -12.742,12.743 0,7.038 5.705,12.743 12.742,12.743 C -5.705,12.743 0,7.038 0,0"
             style="fill:#fdfaad;fill-opacity:1;fill-rule:nonzero;stroke:none"
             id="path236" />
        </g>
        <g
           id="g238"
           transform="translate(460.5312,694.1572)">
          <path
             d="m 0,0 c 0,-7.038 -5.705,-12.743 -12.743,-12.743 -7.037,0 -12.742,5.705 -12.742,12.743 0,7.038 5.705,12.743 12.742,12.743 C -5.705,12.743 0,7.038 0,0"
             style="fill:#fdfaad;fill-opacity:1;fill-rule:nonzero;stroke:none"
             id="path240" />
        </g>
        <g
           id="g242"
           transform="translate(553.4258,658.2261)">
          <path
             d="m 0,0 c -3.682,-0.876 -7.54,-1.037 -11.293,-0.438 -3.749,0.615 -7.373,1.987 -10.604,3.995 -6.486,4.005 -11.257,10.67 -12.962,18.121 -1.704,7.452 -0.301,15.529 3.799,21.953 2.038,3.214 4.706,6.024 7.816,8.207 3.119,2.17 6.665,3.702 10.361,4.512 -7.37,-1.762 -13.922,-6.498 -17.895,-12.895 -4.007,-6.384 -5.32,-14.352 -3.595,-21.666 C -32.75,14.453 -28.104,7.846 -21.722,3.838 -15.362,-0.197 -7.403,-1.617 0,0"
             style="fill:#fcfba9;fill-opacity:1;fill-rule:nonzero;stroke:none"
             id="path244" />
        </g>
        <g
           id="g246"
           transform="translate(402.7725,516.4058)">
          <path
             d="m 0,0 c 21.851,10.758 69.375,23.286 161.599,5.873 0,0 47.747,-10.995 55.425,-48.029 0.363,-1.748 0.46,-3.522 0.429,-5.307 -0.4,-22.38 -4.861,-176.764 -51.888,-203.63 -3.864,-2.208 -8.353,-3.069 -12.801,-2.921 l -73.687,2.457 c 0,0 -64.44,-2.631 -81.536,100.604 0,0 -12.828,64.137 -13.571,124.612 C -16.167,-15.224 -9.975,-4.912 0,0"
             style="fill:#ffac1f;fill-opacity:1;fill-rule:nonzero;stroke:none"
             id="path248" />
        </g>
        <g
           id="g250"
           transform="translate(503.3203,524.9277)">
          <path
             d="m 0,0 c 0,0 113.787,-5.392 109.733,-76.304 0,0 -11.671,-111.035 -25.847,-148.804 0,0 19.787,177.859 -83.886,225.108"
             style="fill:#fff49d;fill-opacity:1;fill-rule:nonzero;stroke:none"
             id="path252" />
        </g>
        <g
           id="g254"
           transform="translate(427.5972,524.9277)">
          <path
             d="m 0,0 c 0,0 -11.781,-162.845 89.654,-261.26 0,0 -98.895,-16.984 -113.805,85.002 0,0 -18.764,82.815 -16.52,141.365 0.413,10.774 6.188,20.637 15.311,26.161 C -17.338,-3.875 -6.972,-1.315 0,0"
             style="fill:#e26400;fill-opacity:1;fill-rule:nonzero;stroke:none"
             id="path256" />
        </g>
        <g
           id="g258"
           transform="translate(350.9141,666.4844)">
          <path
             d="m 0,0 c 0.439,9.382 1.524,18.717 9.153,19.678 10.306,1.297 7.939,-9.786 9.224,-15.807 4.487,-21.034 8.092,-42.257 11.937,-63.426 0.769,-4.236 4.256,-9.727 -0.838,-12.411 -5.504,-2.899 -9.943,1.8 -13.081,5.937 C 9.424,-56.84 8.683,-45.391 6.298,-34.657 3.615,-22.582 1.836,-10.305 0,0"
             style="fill:#e26400;fill-opacity:1;fill-rule:nonzero;stroke:none"
             id="path260" />
        </g>
        <g
           id="g262"
           transform="translate(629.2441,616.8755)">
          <path
             d="m 0,0 c -3.9,-3.186 -9.805,-6.246 -9.112,1.824 2.676,31.187 6.716,62.257 10.494,93.341 0.057,0.471 3.262,0.56 4.997,0.827 C 14.621,84.997 16.517,73.387 13.418,59.604 8.952,39.74 10.632,18.517 0,0"
             style="fill:#ffc848;fill-opacity:1;fill-rule:nonzero;stroke:none"
             id="path264" />
        </g>
        <g
           id="g266"
           transform="translate(629.2441,616.8755)">
          <path
             d="M 0,0 C 2.531,14.693 4.805,29.437 7.662,44.066 11.071,61.521 11.913,78.808 6.379,95.992 15.671,90.389 19.834,81.997 18.455,71.42 16.112,53.456 13.094,35.581 10.597,17.635 9.552,10.127 6.485,4.106 0,0"
             style="fill:#fcfba9;fill-opacity:1;fill-rule:nonzero;stroke:none"
             id="path268" />
        </g>
        <g
           id="g270"
           transform="translate(449.1704,593.5586)">
          <path
             d="M 0,0 C 0,0 75.937,-37.557 115.142,27.192"
             style="fill:none;stroke:#342a28;stroke-width:4;stroke-linecap:butt;stroke-linejoin:miter;stroke-miterlimit:10;stroke-dasharray:none;stroke-opacity:1"
             id="path272" />
        </g>
        <g
           id="g274"
           transform="translate(445.6953,586.5146)">
          <path
             d="m 0,0 c -3.88,1.925 -5.461,6.636 -3.533,10.523 1.929,3.886 6.637,5.476 10.516,3.551"
             style="fill:#342a28;fill-opacity:1;fill-rule:nonzero;stroke:none"
             id="path276" />
        </g>
        <g
           id="g278"
           transform="translate(557.3213,624.4507)">
          <path
             d="m 0,0 c 2.171,3.817 7.013,5.16 10.814,2.998 3.802,-2.163 5.124,-7.01 2.952,-10.828"
             style="fill:#342a28;fill-opacity:1;fill-rule:nonzero;stroke:none"
             id="path280" />
        </g>
        <g
           id="g282"
           transform="translate(701.5977,656.6333)">
          <path
             d="m 0,0 c 5.214,-5.958 4.838,-15.039 -1.22,-20.118 -6.057,-5.079 -15.533,-3.979 -20.747,1.98"
             style="fill:#362a25;fill-opacity:1;fill-rule:nonzero;stroke:none"
             id="path284" />
        </g>
        <g
           id="g286"
           transform="translate(650.6055,662.9478)">
          <path
             d="M 0,0 C 0,0 24.329,3.545 40.011,-15.404"
             style="fill:none;stroke:#362a25;stroke-width:28;stroke-linecap:butt;stroke-linejoin:miter;stroke-miterlimit:10;stroke-dasharray:none;stroke-opacity:1"
             id="path288" />
        </g>
        <g
           id="g290"
           transform="translate(473.8896,447.1533)">
          <path
             d="m 0,0 c 0,-17.976 -14.573,-32.549 -32.549,-32.549 -17.976,0 -32.548,14.573 -32.548,32.549 0,17.977 14.572,32.549 32.548,32.549 C -14.573,32.549 0,17.977 0,0"
             style="fill:#342a28;fill-opacity:1;fill-rule:nonzero;stroke:none"
             id="path292" />
        </g>
        <g
           id="g294"
           transform="translate(449.0166,415.4453)">
          <path
             d="m 0,0 c -3.934,-1.28 -8.15,-1.72 -12.277,-1.246 -4.127,0.485 -8.138,1.854 -11.739,3.926 -7.234,4.131 -12.705,11.12 -15.227,19.059 -2.48,7.953 -1.994,16.817 1.573,24.345 1.766,3.76 4.272,7.179 7.377,9.939 3.112,2.751 6.821,4.805 10.779,6.007 -7.912,-2.528 -14.442,-8.611 -17.855,-16.087 -3.48,-7.475 -3.891,-16.23 -1.398,-24.053 C -36.333,14.047 -30.982,7.104 -23.85,2.967 -16.771,-1.208 -7.935,-2.459 0,0"
             style="fill:#fff49d;fill-opacity:1;fill-rule:nonzero;stroke:none"
             id="path296" />
        </g>
        <g
           id="g298"
           transform="translate(422.0522,523.8037)">
          <path
             d="m 0,0 5.498,-46.89 22.697,0.407 -6.42,50.149 z"
             style="fill:#fff49d;fill-opacity:1;fill-rule:nonzero;stroke:none"
             id="path300" />
        </g>
        <g
           id="g302"
           transform="translate(422.0571,531.748)">
          <path
             d="m 0,0 6.411,-55.266 22.685,1.003 -7.397,59.095 z"
             style="fill:#342a28;fill-opacity:1;fill-rule:nonzero;stroke:none"
             id="path304" />
        </g>
        <g
           id="g306"
           transform="translate(604.207,927.4995)">
          <path
             d="m 0,0 c 0,-17.25 -13.984,-31.233 -31.233,-31.233 -17.25,0 -31.235,13.983 -31.235,31.233 0,17.25 13.985,31.233 31.235,31.233 C -13.984,31.233 0,17.25 0,0"
             style="fill:#362928;fill-opacity:1;fill-rule:nonzero;stroke:none"
             id="path308" />
        </g>
        <g
           id="g310"
           transform="translate(506.7393,794.6118)">
          <path
             d="m 0,0 c 0,-4.741 -3.843,-8.584 -8.583,-8.584 -4.741,0 -8.544,3.815 -8.834,8.584"
             style="fill:#362928;fill-opacity:1;fill-rule:nonzero;stroke:none"
             id="path312" />
        </g>
        <g
           id="g314"
           transform="translate(550.499,910.7319)">
          <path
             d="m 0,0 c 0,0 -48.682,-6.329 -43.75,-116.386 h -17.401 c 0,0 -11.203,113.51 55.233,133.154 z"
             style="fill:#362928;fill-opacity:1;fill-rule:nonzero;stroke:none"
             id="path316" />
        </g>
        <g
           id="g318"
           transform="translate(563.1084,949.8647)">
          <path
             d="m 0,0 c 2.557,1.319 5.405,2.085 8.3,2.298 2.898,0.186 5.841,-0.215 8.605,-1.162 5.546,-1.891 10.219,-6.15 12.733,-11.461 2.482,-5.325 2.77,-11.641 0.685,-17.117 -1.038,-2.732 -2.609,-5.252 -4.603,-7.364 -2.015,-2.09 -4.423,-3.792 -7.072,-4.916 5.122,2.616 9.123,7.19 10.952,12.541 0.898,2.673 1.34,5.502 1.185,8.313 -0.141,2.809 -0.851,5.58 -2.052,8.119 -1.184,2.546 -2.865,4.862 -4.935,6.766 C 21.733,-2.069 19.276,-0.6 16.646,0.416 11.36,2.427 5.284,2.27 0,0"
             style="fill:#fcfba9;fill-opacity:1;fill-rule:nonzero;stroke:none"
             id="path320" />
        </g>
        <g
           id="g322"
           transform="translate(297.3716,636.1616)">
          <path
             d="m 0,0 c -5.214,-5.958 -4.837,-15.039 1.22,-20.118 6.057,-5.079 15.533,-3.978 20.747,1.98"
             style="fill:#362a25;fill-opacity:1;fill-rule:nonzero;stroke:none"
             id="path324" />
        </g>
        <g
           id="g326"
           transform="translate(348.3638,642.4761)">
          <path
             d="M 0,0 C 0,0 -24.33,3.545 -40.01,-15.404"
             style="fill:none;stroke:#362a25;stroke-width:28;stroke-linecap:butt;stroke-linejoin:miter;stroke-miterlimit:10;stroke-dasharray:none;stroke-opacity:1"
             id="path328" />
        </g>
      </g>
    </g>
  </g>
</svg>
