<svg width="158" height="98" viewBox="0 0 158 98" fill="none" xmlns="http://www.w3.org/2000/svg">
<rect width="158" height="98" rx="10" fill="white"/>
<g clip-path="url(#clip0_172_2399)">
<path d="M31.93 29C34.7767 29.9879 37.7341 30.7114 40.2711 32.4411C48.1661 37.8176 51.577 45.2985 50.279 54.6596C49.0843 63.2753 42.2218 70.275 33.5488 72.4198C33.0178 72.552 32.2877 72.3279 31.93 73H24.5587C18.5554 72.1186 13.828 69.1439 10.229 64.3293C6.85866 59.8195 5.64547 54.7441 6.08429 49.1803C6.83654 39.6502 12.0101 33.4914 20.6573 29.8741C22.1581 29.2461 23.7769 29.4187 25.2962 29H31.93Z" fill="#3B693D"/>
<path d="M73.9017 43.4585C73.9017 44.3105 73.9017 45.1662 73.9017 46.0183C73.9017 46.3194 73.9312 46.6462 73.5366 46.7527C73.0683 46.8776 72.8987 46.6058 72.7512 46.2202C72.4414 45.4307 72.1575 44.619 71.7408 43.8845C70.2732 41.2918 67.9869 40.2157 65.0959 40.7739C63.2927 41.1228 62.1607 42.254 61.8251 44.0608C61.4564 46.0586 62.1164 47.4138 63.868 48.3282C65.4573 49.1546 67.2531 49.3676 68.9309 49.9258C71.3536 50.73 73.721 51.6518 74.3552 54.5384C75.2697 58.6957 72.4082 62.2029 67.6514 62.7354C65.5421 62.9704 63.5103 62.7244 61.5891 61.7071C61.1208 61.4574 60.4939 60.5723 59.8523 61.8503C59.4835 62.5885 58.8161 62.1845 58.7719 61.3325C58.6797 59.6285 58.5949 57.9208 58.5285 56.2131C58.5137 55.8752 58.4105 55.4492 58.9452 55.361C59.4024 55.2839 59.6126 55.5557 59.7417 55.934C59.8412 56.2241 59.9297 56.5142 60.033 56.8007C61.4748 60.7155 64.7493 62.269 68.6876 60.8588C70.3285 60.2712 71.302 59.0813 71.3905 57.3001C71.479 55.5116 70.6825 54.2005 68.9973 53.5872C67.1609 52.9188 65.2619 52.4267 63.4071 51.8061C60.1289 50.708 58.7202 48.7616 58.8567 45.5849C58.9894 42.4596 60.8295 40.3553 64.0266 39.5473C66.464 38.9304 68.7576 39.3527 71.0107 40.2855C71.3426 40.4214 71.6966 40.7225 72.0026 40.6821C73.5809 40.4655 73.5772 40.4361 73.6841 42.1842C73.7099 42.6102 73.7468 43.0362 73.7763 43.4622C73.8169 43.4622 73.8574 43.4622 73.8943 43.4622L73.9017 43.4585Z" fill="#3B683C"/>
<path d="M150.329 43.4989C150.384 44.351 150.436 45.2066 150.495 46.0587C150.517 46.4002 150.41 46.683 150.071 46.7711C149.713 46.8629 149.503 46.6205 149.385 46.3157C149.186 45.8053 149.027 45.2764 148.81 44.7733C147.56 41.883 145.601 40.6234 142.508 40.7005C140.232 40.7593 138.787 41.9234 138.344 44.0645C137.898 46.2349 138.713 47.7517 141.022 48.6184C142.792 49.2831 144.669 49.6687 146.453 50.304C149.813 51.5013 151.096 53.2714 150.996 56.3526C150.908 59.0592 149.012 61.4353 146.088 62.3094C143.352 63.1247 140.66 63.0402 138.053 61.6998C137.574 61.4537 136.958 60.5466 136.364 61.8393C136.014 62.6032 135.376 62.1625 135.328 61.4647C135.21 59.6358 135.188 57.8033 135.133 55.9744C135.122 55.6512 135.177 55.3574 135.597 55.3464C135.929 55.339 136.173 55.4382 136.279 55.8018C136.42 56.2682 136.586 56.7309 136.763 57.1826C138.208 60.8661 142.032 62.3939 145.66 60.6935C147.169 59.9847 148.024 58.7654 148.002 57.0651C147.98 55.3684 147.158 54.1308 145.542 53.5615C143.699 52.9115 141.8 52.4157 139.949 51.7841C135.49 50.2563 133.99 45.9742 136.611 42.0997C138.315 39.5804 140.992 39.125 143.78 39.3013C144.982 39.3784 146.18 39.7677 147.335 40.1496C148.039 40.381 148.599 41.1302 149.296 40.0431C149.529 39.6832 150.244 39.8044 150.248 40.5683C150.248 41.5452 150.248 42.5221 150.248 43.4989C150.274 43.4989 150.303 43.4989 150.329 43.4989Z" fill="#3B683C"/>
<path d="M127.444 62.269C126.279 62.269 125.11 62.2763 123.945 62.269C123.532 62.269 123.004 62.3718 122.909 61.7879C122.802 61.1342 123.366 61.1305 123.76 61.1489C125.471 61.226 125.785 60.2051 125.781 58.8022C125.759 53.613 125.752 48.4201 125.785 43.2272C125.792 41.8059 125.446 40.8291 123.775 40.8548C123.377 40.8621 122.831 40.8878 122.901 40.2268C122.953 39.7383 123.366 39.731 123.738 39.731C126.257 39.731 128.772 39.731 131.29 39.731C131.722 39.731 132.209 39.709 132.161 40.3553C132.124 40.8841 131.678 40.8437 131.335 40.8254C129.399 40.7336 129.045 41.817 129.067 43.4879C129.14 48.6184 129.126 53.7488 129.074 58.8793C129.059 60.363 129.472 61.2297 131.128 61.1599C131.545 61.1416 132.249 60.9873 132.15 61.7989C132.076 62.4049 131.519 62.2543 131.121 62.2617C129.893 62.28 128.665 62.269 127.437 62.269H127.444Z" fill="#3C693E"/>
<path d="M36.7169 38.9047C38.1145 39.1397 38.2546 39.0883 37.9411 38.2399C37.5318 37.1345 38.1476 36.569 38.9331 36.5396C40.1868 36.4992 39.2428 37.3843 39.2281 37.8213C39.1986 38.688 39.7665 38.6145 40.3196 38.6696C40.8063 38.7174 41.4258 38.7761 41.4258 39.3784C41.4258 39.8632 40.7215 39.764 40.4597 39.9954C39.5157 40.829 37.672 40.9943 37.3143 40.8548C34.8731 39.8852 35.0612 40.9135 35.6217 42.5918C35.7028 42.8306 35.4189 43.0729 35.1681 43.0436C34.9653 43.0178 34.6925 42.8489 34.615 42.6726C34.4675 42.3458 34.4675 41.9602 34.3606 41.615C34.2131 41.1486 34.0545 40.6344 33.4166 40.6858C33.2101 40.7042 32.9003 40.8474 32.8413 41.009C32.6606 41.5085 33.1511 41.7362 33.3834 42.074C33.5899 42.3752 33.7743 42.6873 33.955 43.0032C34.1688 43.3704 34.1541 43.7156 33.7411 43.925C33.4498 44.0755 33.1695 44.0168 32.9114 43.7744C32.609 43.4953 32.7086 42.5037 32.0301 42.9848C31.3921 43.4365 30.6878 43.7817 30.0868 44.2591C29.8545 44.4428 30.1642 44.8614 30.474 44.9275C30.9791 45.0304 31.3221 45.9044 32.0338 45.1369C32.8671 44.2371 34.0471 44.2041 35.0833 44.6117C36.1085 45.0157 36.4035 44.5713 36.6431 43.767C36.7648 43.3594 36.8976 42.9554 37.0635 42.5661C37.2811 42.0483 37.5503 41.4828 38.2583 41.7949C38.7893 42.0263 38.7893 42.5147 38.6381 43.0436C38.5127 43.4732 38.1071 44.0682 38.7045 44.3399C39.3092 44.6191 39.4604 43.8882 39.7443 43.543C40.3823 42.7644 41.1603 42.6396 42.049 42.9775C42.403 43.1133 42.6501 43.3814 42.6206 43.8148C42.5911 44.2738 42.2592 44.4207 41.8905 44.5015C41.1161 44.6705 40.0283 43.925 39.6042 45.023C39.217 46.0219 40.7105 46.2019 40.8469 47.2045C39.9951 47.2449 39.5563 46.7564 39.2576 46.1211C39.029 45.6327 38.6934 45.3352 38.1771 45.2397C37.672 45.1442 37.1115 45.1662 36.8496 45.6216C36.562 46.1174 37.2073 46.2827 37.4101 46.6132C37.5908 46.907 38.4205 46.8078 38.0075 47.3844C37.7494 47.748 37.3917 48.2585 36.6763 47.6562C35.6328 46.7785 35.4853 47.513 35.618 48.4348C35.6733 48.5523 35.1829 48.9269 35.7655 48.7873C36.2191 48.6771 36.6542 48.5156 37.1078 48.7653C37.5355 48.9452 38.1919 48.8057 38.2103 49.5549C36.6247 50.282 37.5134 51.0422 38.1771 51.8024C37.3327 52.5002 36.5915 52.2835 35.9757 51.5013C34.9174 50.1498 33.7632 50.495 32.6016 51.2956C31.064 52.3533 30.2785 53.87 30.5182 55.6953C30.8206 58.0052 31.1672 60.4034 34.2094 60.9616C32.9851 61.8467 31.6466 61.5492 30.9128 60.3005C30.1384 58.9785 29.707 57.5131 29.1723 56.0845C28.8883 55.3207 28.5675 54.1932 27.4539 54.6853C26.5947 55.0636 27.2105 55.9523 27.406 56.6134C27.878 58.2219 28.6155 59.7754 28.6081 61.6226C27.4613 61.3692 27.2105 60.6604 27.1847 59.7387C27.1736 59.3677 27.3506 58.7177 26.6758 58.8095C26.1227 58.8866 25.5216 59.4191 25.8683 59.9737C27.3875 62.4086 24.7067 61.1562 24.2679 61.843C23.5562 60.9763 22.579 61.7548 21.7641 61.5382C21.6719 60.6972 22.3578 60.789 22.7265 60.6421C24.9501 59.7533 25.6691 58.6847 25.5474 56.3159C25.5364 56.0735 25.4995 55.8311 25.4737 55.5888C25.2697 53.5983 24.1462 52.6655 22.1033 52.7903C23.6115 51.729 23.5083 50.7007 22.3098 49.7422C21.7419 49.2868 20.9749 48.6882 20.3776 49.4227C19.3451 50.6933 20.9086 51.2075 21.5576 52.0118C20.7131 52.3313 20.3186 51.6151 19.6991 51.6151C19.0058 51.6151 18.1245 51.4792 17.9549 52.2211C17.6156 53.6974 16.1148 53.4036 15.3515 54.1785C15.2519 54.2777 14.8574 54.274 14.85 54.2483C14.3669 52.4818 12.6596 52.9409 11.5128 52.379C11.0261 52.1403 10.6647 51.527 10.9929 50.9724C11.3727 50.3334 11.9811 50.6493 12.431 50.9541C13.2386 51.5013 13.9834 52.1403 14.791 52.6912C15.2151 52.9813 15.7866 53.007 16.2144 52.816C16.8118 52.5479 16.3693 52.1293 16.1996 51.762C15.8161 50.9247 16.4578 51.0569 16.9298 51.0018C17.3575 50.9504 18.0544 51.2773 18.0434 50.4913C18.036 49.9515 17.5087 49.7238 17.0072 49.6063C16.8892 49.5769 16.7638 49.5659 16.6421 49.5585C16.0927 49.5365 15.5027 49.5842 15.1634 49.0297C15.0196 48.791 15.1782 48.589 15.3921 48.4274C15.971 47.9904 16.5499 48.1263 17.1178 48.4274C17.4386 48.6 17.7189 48.8461 18.036 49.0224C18.3605 49.2023 18.7477 49.3639 19.0316 49.015C19.2529 48.7432 19.0611 48.4348 18.8694 48.1924C18.5486 47.7921 17.8516 47.3697 18.6149 46.8923C19.216 46.514 19.5553 47.1861 19.924 47.5681C20.1748 47.8288 20.4366 48.0895 20.7389 48.2879C20.9971 48.4605 21.3658 48.5302 21.5613 48.2291C21.7862 47.8802 21.458 47.7076 21.1962 47.546C20.8459 47.3257 20.3075 47.1274 20.6136 46.6022C20.986 45.9632 21.5023 46.4075 21.8673 46.6536C23.4382 47.715 22.9883 46.3194 23.1395 45.6473C24.8136 45.9779 26.2739 45.1442 27.8189 44.777C29.0174 44.4942 28.9215 43.8478 28.0218 42.8746C28.0808 43.7266 28.0107 44.3767 27.3027 44.6962C26.5947 45.0157 25.8793 45.1773 25.2193 44.6815C24.2789 43.9764 23.6631 44.3914 23.1063 45.1809C22.8187 45.2691 22.4942 45.4858 22.2545 45.416C21.6055 45.2287 20.9159 44.4134 20.514 45.7098C20.4956 45.7722 20.1379 45.8236 20.0088 45.7502C18.4711 44.8908 16.5831 45.6877 15.0823 44.7256C14.5624 44.3914 13.4377 44.6815 13.5667 43.767C13.6774 42.9995 14.5218 42.6102 15.3699 42.5698C16.1443 42.9554 16.4836 44.0535 17.6451 43.8111C16.8376 43.4806 16.1001 43.0252 15.3404 42.6065C15.0012 41.435 15.7571 40.9429 16.502 41.5489C17.4608 42.3274 18.5375 42.1438 19.5774 42.5257C18.9468 41.5305 19.4225 40.0284 17.859 39.5033C17.2985 39.316 17.4165 38.5705 17.6673 38.0416C17.9033 37.5422 18.3163 37.2888 18.862 37.4357C19.3303 37.5605 19.7581 37.8213 20.2264 37.9351C20.3923 37.9755 20.691 37.8139 20.809 37.656C20.9713 37.4393 20.8643 37.1823 20.5988 37.0758C20.1453 36.8921 19.2529 37.0941 19.4889 36.2642C19.7138 35.4856 20.5583 35.6178 21.2331 35.6582C22.284 36.9252 23.5156 37.5312 25.2819 37.4908C27.2916 37.4504 28.1545 38.4493 28.3831 40.2782C28.8379 40.8633 29.5803 40.8009 30.6104 40.0909C29.7918 40.2929 29.2608 41.0053 28.5675 40.4691C28.4274 38.7247 27.6124 37.421 26.0526 36.58C25.6581 36.367 25.4589 35.985 25.3078 35.5811C25.4368 34.707 25.883 34.8245 26.4583 35.1881C26.7828 35.3974 27.1368 35.8418 27.5461 35.3167C27.9296 34.8282 27.5608 34.5454 27.2031 34.2884C26.8897 34.0643 26.2813 33.9946 26.6611 33.4106C26.9192 33.0103 27.406 32.9295 27.8116 33.1242C28.5528 33.4804 29.2755 33.6677 30.0978 33.4363C30.3707 33.3592 30.78 33.3629 30.7763 33.7889C30.7726 34.2773 30.4076 34.292 29.9983 34.2333C29.541 34.1672 28.9436 33.9358 28.7371 34.5528C28.6523 34.8062 28.9436 35.1991 29.0948 35.515C29.1686 35.6619 29.3825 35.9006 29.4267 35.8785C32.4947 34.4059 31.7093 37.3182 32.4357 38.4897C33.081 38.699 33.3096 37.8507 34.014 37.9535C34.202 38.3097 33.4645 39.7677 34.9469 38.934C35.5369 38.688 36.1269 38.7027 36.7243 38.901L36.7169 38.9047Z" fill="#FDFDFD"/>
<path d="M23.0953 45.1773C23.3681 44.6778 22.5163 43.9176 23.3939 43.6055C24.0466 43.3741 24.8395 43.4475 25.2193 44.0645C25.7355 44.8982 26.2739 44.4575 26.875 44.34C27.653 44.1857 28.3536 44.0902 27.3285 43.2309C27.0335 42.9811 26.8123 42.6433 27.1884 42.3238C27.4834 42.0777 27.9185 42.0667 28.1914 42.3458C28.715 42.8783 29.4525 43.2345 29.3198 44.2555C29.1907 45.2617 28.5565 45.0598 27.9185 45.1736C27.1663 45.3058 26.344 45.4894 25.7355 45.9118C24.703 46.6279 23.9286 46.3378 23.1248 45.64C23.1137 45.4858 23.1026 45.3315 23.0916 45.1736L23.0953 45.1773Z" fill="#3C683B"/>
<path d="M25.3041 35.5811C26.1891 36.5286 27.4982 36.8298 28.3389 38.0343C28.9953 38.9708 28.7372 39.5621 28.656 40.348C28.5122 40.5169 28.3537 40.5316 28.184 40.3884C27.6493 38.4493 26.3034 37.7332 24.2347 38.0086C22.5495 38.2326 21.5945 37.2448 21.2257 35.6546C21.2257 35.5334 21.2257 35.4122 21.2257 35.291C22.0775 34.8687 22.6933 35.269 23.3386 35.8015C23.7996 36.1797 24.3343 36.8738 24.9648 35.9557C25.0791 35.8308 25.1898 35.706 25.3041 35.5811Z" fill="#426D41"/>
<path d="M29.6996 66.4189C29.5004 65.9855 29.2681 65.5632 29.1096 65.1152C28.8883 64.4945 29.235 64.0759 29.7143 63.7453C30.2675 63.3671 30.8464 63.356 31.4253 63.6829C31.9195 63.962 32.1739 64.5092 31.8678 64.9058C31.311 65.6256 31.949 65.9488 32.1481 66.463C32.4984 67.3664 31.9231 67.987 31.2336 68.3984C30.4703 68.8501 29.6074 68.6848 29.1133 67.9944C28.6523 67.3444 28.7076 66.6062 29.7365 66.3858C29.8876 66.5548 30.013 66.7421 30.1863 66.8926C30.0425 66.7164 29.8729 66.5658 29.6996 66.4226V66.4189Z" fill="#EEF2EF"/>
<path d="M34.2831 64.1787C34.2168 65.6257 36.2892 65.218 36.2892 66.5254C36.2892 67.3554 35.8208 68.2221 34.9395 68.5012C34.0177 68.795 33.2617 68.3654 32.8819 67.4656C32.3509 66.2059 32.9483 65.2474 33.8111 64.3881C33.8886 64.3109 34.025 64.2889 34.2831 64.175V64.1787Z" fill="#EFF3F0"/>
<path d="M42.6243 50.9982C42.1375 50.9027 41.9974 50.2306 41.3927 50.282C40.917 50.6125 41.92 51.1781 41.2488 51.4572C40.6441 51.7069 40.504 51.1818 40.4192 50.8109C40.2864 50.2159 39.5415 50.4032 39.3793 49.9001C39.2502 49.5035 38.9405 49.0444 39.0474 48.7175C39.2576 48.0785 39.7001 48.5486 40.0688 48.6845C40.2127 48.7359 40.4708 48.7322 40.5593 48.6441C42.0601 47.1421 42.1154 48.6221 42.4547 49.5365C42.6022 49.9295 42.7902 50.3077 42.9562 50.6897C43.0262 50.9908 42.9967 51.1818 42.6206 50.9945L42.6243 50.9982Z" fill="#F6F8F7"/>
<path d="M27.5793 66.0113C28.4716 66.7641 28.4864 67.5941 27.5756 68.2625C26.9487 68.7215 26.1264 69.1072 25.7355 67.8989C26.6353 67.102 25.6175 67.2746 25.3188 67.0836C25.3336 66.4666 25.9826 65.8974 25.1898 65.218C24.6551 64.7589 25.0423 64.1493 25.6544 63.8261C25.9236 63.6572 26.0932 63.8078 26.2481 64.0098C26.4435 64.5092 26.7717 64.9095 27.2179 65.218C27.3912 65.4604 27.2326 65.8533 27.583 66.0113H27.5793Z" fill="#EAEFEB"/>
<path d="M21.5539 68.4902C22.7376 67.3224 22.3836 66.1288 22.2361 64.9756C22.1992 64.6745 21.2331 64.601 21.9706 64.0942C22.3098 63.8592 22.7634 63.6352 23.1506 63.6609C23.7775 63.7013 23.5156 64.3036 23.5673 64.6818C23.7332 65.8754 23.1285 67.1865 24.2384 68.3139C23.4013 68.6628 22.6306 68.4865 21.5539 68.4902Z" fill="#EFF3F0"/>
<path d="M24.9648 35.9557C25.1566 36.2458 25.3483 36.5396 25.5659 36.8702C23.6447 37.4688 22.8187 35.3497 21.222 35.291C20.6763 33.8183 21.388 33.5429 22.5274 34.1195C23.4198 34.5712 24.1573 35.3314 24.9611 35.9557H24.9648Z" fill="#F5F7F5"/>
<path d="M34.4196 35.7317C34.4417 36.2421 34.2979 36.5616 33.907 36.6938C33.5936 36.8003 31.5433 34.3545 31.5986 33.9064C31.665 33.3556 32.0375 33.0507 32.5795 33.036C34.6998 32.981 33.376 35.1845 34.4196 35.7317Z" fill="#F5F8F6"/>
<path d="M44.4533 52.0779C43.985 53.22 43.2106 53.7452 42.2334 53.9068C41.6618 53.9986 41.0239 53.7636 40.987 53.1392C40.9391 52.4084 41.6287 52.0301 42.2187 52.1734C42.9746 52.3607 43.6568 52.6728 44.4533 52.0779Z" fill="#F0F4F1"/>
<path d="M35.7766 34.2186C36.5141 34.3691 37.2368 34.6115 37.4433 35.4085C37.5613 35.8712 37.093 35.9924 36.7206 35.9446C35.961 35.8455 35.3046 35.4562 35.0428 34.7511C34.8953 34.3508 35.4078 34.2406 35.7766 34.2186Z" fill="#E6EDE8"/>
<path d="M38.1661 51.7988C37.152 51.9016 36.728 51.3764 36.7538 50.4363C36.7833 49.4447 37.5577 49.5916 38.1993 49.5512C37.5872 50.293 38.3873 51.0533 38.1661 51.7988Z" fill="#4F764E"/>
<path d="M36.7169 38.9047C36.1306 39.327 35.5406 39.3821 34.9395 38.9377C34.8621 38.508 34.3569 37.9058 34.9985 37.6964C35.9499 37.3879 36.2449 38.3465 36.7169 38.9047Z" fill="#D9E3DB"/>
<path d="M42.6243 50.9982C42.7349 50.8953 42.8492 50.7962 42.9598 50.6933C43.9002 51.2846 44.8921 50.921 45.9652 50.6786C45.0912 52.1146 44.4754 52.144 42.6243 50.9982Z" fill="#D0DCD3"/>
<path d="M27.5793 66.0112C27.1995 65.879 27.1368 65.5595 27.1073 65.2217C26.7606 64.8397 26.4472 64.4284 26.0158 64.1346C25.8941 64.0318 25.7724 63.9289 25.6507 63.8261C27.6715 63.1137 28.0218 63.5103 27.5793 66.0112Z" fill="#E4EBE6"/>
<path d="M25.3151 67.0836C25.8793 67.1203 26.0195 65.9819 26.7791 66.5658C27.0925 66.8082 27.2326 67.1424 27.0999 67.4949C26.8344 68.1854 26.2296 67.8952 25.7281 67.8952C25.3594 67.741 25.2967 67.4325 25.3115 67.0799L25.3151 67.0836Z" fill="#487248"/>
<path d="M13.7069 48.3797C13.3123 48.2475 12.7186 48.2842 12.9509 47.8031C13.198 47.3 13.67 46.8483 14.1531 46.5435C14.4628 46.3488 14.6914 46.8042 14.5919 47.076C14.4038 47.5791 14.4223 48.2952 13.7069 48.3797Z" fill="#E1E8E2"/>
<path d="M12.4568 49.4263C13.6589 49.5806 14.4407 49.5732 14.8758 50.3702C14.9164 50.4436 14.6177 50.8366 14.4444 50.8623C13.5852 50.9982 13.1648 50.4179 12.4568 49.4263Z" fill="#E7EEE9"/>
<path d="M37.0967 48.7616C36.669 48.9012 36.1158 48.6258 35.8024 49.1326C35.5922 49.4741 35.4595 49.9552 34.9063 49.6357C34.7773 49.5622 34.6372 49.3456 34.6482 49.2097C34.6925 48.6441 35.0538 48.4054 35.6107 48.4348C36.1269 48.4568 36.6763 48.3173 37.0967 48.7653V48.7616Z" fill="#70906F"/>
<path d="M42.4473 47.77C43.4208 47.0906 43.9518 47.4432 44.409 47.939C44.5676 48.1116 44.5492 48.4605 44.3021 48.5596C43.513 48.8754 43.2364 48.0638 42.4473 47.7737V47.77Z" fill="#D6E1D9"/>
<path d="M17.6488 47.0759C17.5861 47.6158 17.2395 47.7076 16.856 47.6892C16.5315 47.6709 16.0116 47.8104 16.1148 47.2155C16.1701 46.896 16.3287 46.4773 16.8007 46.5398C17.1621 46.5875 17.4903 46.7564 17.6488 47.0759Z" fill="#E0E8E2"/>
<path d="M114.549 50.0874C116.92 50.8365 119.092 51.6665 120.018 54.1161C121.12 57.0284 119.553 60.0765 116.341 61.2517C113.826 62.1698 111.186 62.247 108.546 62.28C106.337 62.3057 104.124 62.3424 101.916 62.3535C101.521 62.3535 100.975 62.4857 101.02 61.7879C101.053 61.2848 101.451 61.2517 101.823 61.2627C103.568 61.3178 103.929 60.3666 103.907 58.8132C103.837 53.624 103.841 48.4311 103.907 43.2382C103.925 41.7729 103.593 40.8621 101.949 40.8474C101.554 40.8474 100.975 40.9025 101.027 40.2598C101.075 39.6685 101.613 39.731 102.03 39.742C105.832 39.8301 109.645 39.5106 113.439 39.955C116.278 40.2892 118.008 41.5966 118.473 43.7597C119.007 46.2423 118.037 48.0638 115.382 49.5695C115.124 49.7164 114.877 49.8817 114.549 50.0874ZM108.461 51.2589C107.687 51.2001 107.351 51.4645 107.384 52.2872C107.469 54.3585 107.443 56.4371 107.561 58.5084C107.635 59.779 108.258 60.7596 109.674 60.8477C110.95 60.9249 112.233 61.0057 113.502 60.5796C115.818 59.7974 116.725 58.6516 116.743 56.3085C116.762 53.9214 115.777 52.5149 113.572 51.7437C112.451 51.3507 111.286 51.3397 109.906 51.2662C109.567 51.2662 109.014 51.2993 108.465 51.2589H108.461ZM107.344 42.9481C107.454 43.969 107.366 45.012 107.366 46.0476C107.366 50.3518 107.709 50.6089 111.964 49.4961C112.259 49.419 112.547 49.3125 112.823 49.1913C114.7 48.3723 115.574 46.9143 115.46 44.8357C115.349 42.8416 114.162 41.7545 112.344 41.2844C111.407 41.042 110.423 40.9723 109.46 40.829C107.653 40.4765 107.167 41.3065 107.344 42.9517V42.9481Z" fill="#3B683C"/>
<path d="M94.419 62.1038C93.132 62.1038 91.8414 62.1038 90.5545 62.1038C90.1931 62.1038 89.758 62.1258 89.7211 61.6263C89.6879 61.1526 90.0861 61.1048 90.4549 60.9983C92.5863 60.3924 92.6895 60.1757 91.9225 58.1412C90.9884 55.6586 89.1999 54.4173 86.5572 54.4173H85.8197C82.7025 54.4173 80.6437 55.8801 79.6431 58.8059C79.2154 60.0435 79.2228 60.991 80.8711 61.1379C81.2177 61.1673 81.686 61.215 81.5717 61.7402C81.4648 62.2213 80.9965 62.0964 80.6609 62.1001C79.0052 62.1148 77.3458 62.1148 75.6901 62.1001C75.3472 62.1001 74.8973 62.1882 74.8014 61.6924C74.7056 61.2113 75.0706 61.0351 75.4541 61.002C77.1319 60.8661 77.5892 59.5367 78.1091 58.3064C80.5503 52.5296 82.9582 46.7381 85.3956 40.9576C85.6611 40.3259 85.7128 39.5364 86.749 39.4776C87.8958 39.4152 87.999 40.2672 88.3014 40.9539C90.9048 46.9291 93.5008 52.9079 96.0857 58.8903C96.5577 59.9847 97.0113 61.0461 98.49 61.0167C98.8735 61.0094 99.2422 61.204 99.1648 61.6778C99.0837 62.1772 98.6338 62.0927 98.2835 62.0964C96.9965 62.1074 95.7059 62.1001 94.419 62.1001V62.1038ZM89.7248 53.0401C88.3641 49.9736 87.0808 47.0796 85.6722 43.9066C84.3558 47.1678 83.1868 50.069 81.9921 53.0401H89.7285H89.7248Z" fill="#3B683C"/>
<path d="M22.9109 41.2735C23.2944 40.6602 24.1315 41.2735 24.5186 40.6822C24.5113 40.572 24.5334 40.4508 24.4891 40.359C24.1794 39.7237 22.7486 40.337 23.0252 39.4593C23.3645 38.3832 24.2347 39.4776 24.88 39.4739C25.3041 39.4739 25.7429 39.5327 26.1448 39.6612C26.5873 39.8008 26.7975 40.1974 26.8528 40.6455C26.8934 40.9686 26.5947 41.4387 26.4546 41.3065C24.9611 39.8963 25.1603 44.3547 23.5046 42.1291C23.2944 41.85 22.874 41.7178 22.9109 41.2698V41.2735Z" fill="#426C40"/>
<path d="M25.6028 50.7778C25.5733 50.9504 25.7429 51.6041 24.9574 51.7143C24.6366 51.7584 23.0252 49.5696 23.0879 49.1693C23.1874 48.5082 23.7 48.769 24.0909 48.7543C25.2746 48.7102 25.7576 49.3088 25.6064 50.7778H25.6028Z" fill="#406C40"/>
<path d="M19.3856 38.5227C20.4108 38.464 22.0775 40.1386 22.0406 41.0677C22.0296 41.3762 21.9632 41.6774 21.6239 41.8059C21.2441 41.9491 20.8606 41.8904 20.632 41.5709C20.0899 40.818 19.9609 39.8375 19.0095 39.2756C18.5191 38.9891 19.0095 38.5778 19.3856 38.519V38.5227Z" fill="#406B3F"/>
<path d="M29.3972 48.8204C28.6966 49.1582 28.6966 49.6908 28.8588 50.3628C28.9695 50.8219 28.9031 51.3544 28.4311 51.6555C28.1508 51.8355 27.8485 51.7033 27.594 51.5123C27.1257 51.1561 27.17 50.7448 27.3507 50.2306C27.6457 49.3896 27.7784 48.4568 28.9252 48.3209C29.176 48.4017 29.3382 48.5633 29.3972 48.8241V48.8204Z" fill="#4C744B"/>
<path d="M15.3331 42.6029C16.0484 42.3605 16.6606 42.702 17.2063 43.0399C17.7816 43.3961 18.7846 43.0069 18.9616 44.0021C19.0095 44.2702 18.7329 44.4575 18.4896 44.4097C17.564 44.2298 16.3656 44.8284 15.8235 43.5137C15.6908 43.1905 15.5174 42.882 15.3663 42.5662L15.3368 42.6029H15.3331Z" fill="#466F44"/>
<path d="M28.184 40.3883C28.3426 40.3736 28.5011 40.3626 28.656 40.3479C29.4156 40.5169 29.8987 39.9733 30.4776 39.6649C30.8058 39.4886 31.193 39.36 31.477 39.7016C31.606 39.8595 31.6392 40.157 31.6023 40.37C31.5212 40.8584 31.1488 40.8915 30.769 40.7446C30.3117 40.5683 29.9208 40.4838 29.8655 41.1412C29.8213 41.6553 29.7401 42.1695 29.0985 42.1732C28.3795 42.1732 28.5638 41.4864 28.3868 41.0824C28.291 40.8621 28.2504 40.6197 28.184 40.3883Z" fill="#3F693C"/>
<path d="M29.3972 48.8204C29.2386 48.6515 29.0838 48.4862 28.9252 48.3173C29.4931 47.2926 30.4076 47.8876 31.6429 47.4285C30.6694 48.7396 31.2557 49.9772 30.4076 50.7888C29.4894 50.3518 30.8722 48.9196 29.3972 48.8167V48.8204Z" fill="#456F44"/>
<path d="M31.2594 37.9168C31.1967 38.6586 30.7395 38.6402 30.3265 38.6109C29.4673 38.5484 28.999 37.8874 28.9289 37.208C28.881 36.7379 29.6221 36.5983 30.0905 36.6387C30.9128 36.7122 30.946 37.5091 31.2594 37.9168Z" fill="#436E43"/>
<path d="M33.4977 48.7065C33.542 49.2721 33.2027 49.7642 32.7418 49.7385C31.8383 49.6871 32.1739 48.7432 31.9158 48.2181C31.7646 47.9059 31.8346 47.4468 32.3656 47.5129C33.0331 47.5974 33.4055 48.0418 33.4977 48.7102V48.7065Z" fill="#4F764D"/>
<path d="M27.594 52.5443C27.3027 53.1943 27.3175 54.1418 26.355 53.7489C25.9457 53.5799 25.4516 53.0731 25.6876 52.6104C26.2001 51.5931 26.9303 52.805 27.594 52.5443Z" fill="#436E43"/>
<path d="M34.0213 45.1038C34.615 45.0891 34.5745 45.5151 34.5708 45.853C34.5708 46.3121 34.674 46.874 33.9623 46.9474C33.4793 46.9952 33.0773 46.8115 33.0847 46.2937C33.0921 45.6914 33.6268 45.4197 34.0213 45.1038Z" fill="#3D693C"/>
<path d="M27.8411 46.8666C26.9376 47.6085 26.344 47.748 25.7318 47.2412C25.6396 47.1641 25.6249 46.7969 25.6876 46.7601C26.3735 46.3635 26.875 47.0392 27.8411 46.8666Z" fill="#335B24"/>
<path d="M29.6996 66.4189C30.4002 66.3308 30.9533 66.4997 30.957 67.3187C30.957 67.73 30.6473 68.0165 30.2195 67.9026C29.294 67.6602 29.8434 66.9074 29.7365 66.3785L29.6996 66.4153V66.4189Z" fill="#3F683B"/>
<path d="M34.5118 66.0406C35.1423 66.2206 34.9211 66.7861 34.9432 67.2305C34.958 67.528 34.899 67.9246 34.5007 67.8769C33.8517 67.7997 33.8775 67.2379 33.8591 66.7531C33.8443 66.3381 33.9587 66.0296 34.5118 66.0406Z" fill="#476E43"/>
<path d="M26.0158 64.1346C27.1331 63.7453 27.1183 64.4872 27.1073 65.2217C26.1928 65.4053 25.7945 65.0784 26.0158 64.1346Z" fill="#557B54"/>
</g>
<defs>
<clipPath id="clip0_172_2399">
<rect x="6" y="29" width="145" height="44" rx="22" fill="white"/>
</clipPath>
</defs>
</svg>
