<svg width="21" height="15" viewBox="0 0 21 15" fill="none" xmlns="http://www.w3.org/2000/svg">
<path d="M3.4196 0.630127C1.90858 0.630127 0.683655 1.85506 0.683655 3.36607V12.2053C0.683655 13.7163 1.90858 14.9412 3.4196 14.9412H12.2608C13.7718 14.9412 14.9967 13.7163 14.9967 12.2053V10.8758L18.8195 13.4953C19.5178 13.9738 20.4666 13.4738 20.4666 12.6272V2.94383C20.4666 2.09742 19.5181 1.59737 18.8197 2.07562L14.9967 4.69381V3.36607C14.9967 1.85506 13.7718 0.630127 12.2608 0.630127H3.4196ZM14.9967 9.34509V6.22426L19.2038 3.34303V12.2279L14.9967 9.34509ZM13.734 3.36607V12.2053C13.734 13.0189 13.0743 13.6785 12.2608 13.6785H3.4196C2.60597 13.6785 1.9464 13.0189 1.9464 12.2053V3.36607C1.9464 2.55245 2.60597 1.89287 3.4196 1.89287H12.2608C13.0744 1.89287 13.734 2.55245 13.734 3.36607Z" fill="#F5AB34"/>
</svg>
