<svg width="75" height="14" viewBox="0 0 75 14" fill="none" xmlns="http://www.w3.org/2000/svg">
<g clip-path="url(#clip0_17_1845)">
<path d="M68.4688 0.992752L69.9879 4.07096C70.0936 4.28506 70.2978 4.4334 70.5341 4.46768L73.9312 4.96133C74.5263 5.04787 74.7637 5.77893 74.3333 6.1984L71.8751 8.59444C71.7043 8.76105 71.6262 9.00127 71.6667 9.23644L72.2468 12.6198C72.3485 13.2123 71.7265 13.6641 71.1944 13.3845L68.156 11.7873C67.9448 11.6763 67.6922 11.6763 67.4809 11.7873L64.4426 13.3845C63.9104 13.6644 63.2884 13.2123 63.3901 12.6198L63.9703 9.23644C64.0107 9.00127 63.9326 8.76105 63.7618 8.59444L61.3037 6.1984C60.8733 5.77865 61.1107 5.04759 61.7057 4.96133L65.1028 4.46768C65.3391 4.4334 65.5434 4.28506 65.649 4.07096L67.1682 0.992752C67.434 0.453588 68.2027 0.453588 68.4688 0.992752Z" fill="#F9D4AB"/>
</g>
<g clip-path="url(#clip1_17_1845)">
<path d="M53.3158 0.992752L54.835 4.07096C54.9406 4.28506 55.1449 4.4334 55.3811 4.46768L58.7783 4.96133C59.3733 5.04787 59.6107 5.77893 59.1803 6.1984L56.7222 8.59444C56.5514 8.76105 56.4732 9.00127 56.5137 9.23644L57.0939 12.6198C57.1956 13.2123 56.5735 13.6641 56.0414 13.3845L53.0031 11.7873C52.7918 11.6763 52.5392 11.6763 52.3279 11.7873L49.2896 13.3845C48.7575 13.6644 48.1354 13.2123 48.2371 12.6198L48.8173 9.23644C48.8578 9.00127 48.7797 8.76105 48.6089 8.59444L46.1507 6.1984C45.7203 5.77865 45.9577 5.04759 46.5528 4.96133L49.9499 4.46768C50.1862 4.4334 50.3904 4.28506 50.4961 4.07096L52.0152 0.992752C52.281 0.453588 53.0497 0.453588 53.3158 0.992752Z" fill="#FFA135"/>
</g>
<g clip-path="url(#clip2_17_1845)">
<path d="M38.1629 0.992752L39.6821 4.07096C39.7877 4.28506 39.992 4.4334 40.2283 4.46768L43.6254 4.96133C44.2204 5.04787 44.4578 5.77893 44.0274 6.1984L41.5693 8.59444C41.3985 8.76105 41.3204 9.00127 41.3608 9.23644L41.941 12.6198C42.0427 13.2123 41.4207 13.6641 40.8885 13.3845L37.8502 11.7873C37.6389 11.6763 37.3863 11.6763 37.175 11.7873L34.1367 13.3845C33.6046 13.6644 32.9825 13.2123 33.0843 12.6198L33.6644 9.23644C33.7049 9.00127 33.6268 8.76105 33.456 8.59444L30.9978 6.1984C30.5674 5.77865 30.8048 5.04759 31.3999 4.96133L34.797 4.46768C35.0333 4.4334 35.2375 4.28506 35.3432 4.07096L36.8623 0.992752C37.1281 0.453588 37.8968 0.453588 38.1629 0.992752Z" fill="#FFA135"/>
</g>
<g clip-path="url(#clip3_17_1845)">
<path d="M23.01 0.992752L24.5291 4.07096C24.6348 4.28506 24.839 4.4334 25.0753 4.46768L28.4724 4.96133C29.0675 5.04787 29.3049 5.77893 28.8745 6.1984L26.4163 8.59444C26.2455 8.76105 26.1674 9.00127 26.2079 9.23644L26.788 12.6198C26.8897 13.2123 26.2677 13.6641 25.7356 13.3845L22.6972 11.7873C22.486 11.6763 22.2334 11.6763 22.0221 11.7873L18.9838 13.3845C18.4516 13.6644 17.8296 13.2123 17.9313 12.6198L18.5115 9.23644C18.5519 9.00127 18.4738 8.76105 18.303 8.59444L15.8449 6.1984C15.4144 5.77865 15.6519 5.04759 16.2469 4.96133L19.644 4.46768C19.8803 4.4334 20.0846 4.28506 20.1902 4.07096L21.7094 0.992752C21.9752 0.453588 22.7439 0.453588 23.01 0.992752Z" fill="#FFA135"/>
</g>
<g clip-path="url(#clip4_17_1845)">
<path d="M7.857 0.992752L9.37616 4.07096C9.4818 4.28506 9.68606 4.4334 9.92235 4.46768L13.3194 4.96133C13.9145 5.04787 14.1519 5.77893 13.7215 6.1984L11.2634 8.59444C11.0926 8.76105 11.0144 9.00127 11.0549 9.23644L11.6351 12.6198C11.7368 13.2123 11.1147 13.6641 10.5826 13.3845L7.54429 11.7873C7.33301 11.6763 7.08042 11.6763 6.86914 11.7873L3.83083 13.3845C3.29869 13.6644 2.67664 13.2123 2.77835 12.6198L3.35853 9.23644C3.39899 9.00127 3.32088 8.76105 3.15006 8.59444L0.691928 6.1984C0.261496 5.77865 0.498908 5.04759 1.09398 4.96133L4.49109 4.46768C4.72737 4.4334 4.93163 4.28506 5.03727 4.07096L6.55643 0.992752C6.82222 0.453588 7.59093 0.453588 7.857 0.992752Z" fill="#FFA135"/>
</g>
<defs>
<clipPath id="clip0_17_1845">
<rect width="13.4693" height="13.4693" fill="white" transform="translate(61.0837 0.294189)"/>
</clipPath>
<clipPath id="clip1_17_1845">
<rect width="13.4693" height="13.4693" fill="white" transform="translate(45.9307 0.294189)"/>
</clipPath>
<clipPath id="clip2_17_1845">
<rect width="13.4693" height="13.4693" fill="white" transform="translate(30.7778 0.294189)"/>
</clipPath>
<clipPath id="clip3_17_1845">
<rect width="13.4693" height="13.4693" fill="white" transform="translate(15.6249 0.294189)"/>
</clipPath>
<clipPath id="clip4_17_1845">
<rect width="13.4693" height="13.4693" fill="white" transform="translate(0.471924 0.294189)"/>
</clipPath>
</defs>
</svg>
