<svg width="78" height="14" viewBox="0 0 78 14" fill="none" xmlns="http://www.w3.org/2000/svg">
<path d="M12.5344 5.0477C12.4952 4.93217 12.423 4.83065 12.3267 4.75569C12.2304 4.68072 12.1143 4.63558 11.9927 4.62585L8.43446 4.34315L6.89471 0.935201C6.84567 0.825438 6.76591 0.73221 6.66505 0.66677C6.5642 0.601329 6.44655 0.566472 6.32632 0.566406C6.20609 0.56634 6.08841 0.601068 5.98748 0.666398C5.88655 0.731728 5.80669 0.824868 5.75753 0.934577L4.21778 4.34315L0.659565 4.62585C0.540014 4.63532 0.425724 4.67902 0.330366 4.75174C0.235008 4.82445 0.162621 4.92309 0.121865 5.03587C0.081109 5.14864 0.0737095 5.27076 0.100552 5.38763C0.127394 5.50449 0.187342 5.61115 0.273223 5.69485L2.90272 8.25783L1.97275 12.2842C1.94451 12.4061 1.95356 12.5336 1.99873 12.6503C2.04389 12.767 2.12308 12.8674 2.22603 12.9385C2.32897 13.0096 2.45092 13.0481 2.57603 13.0491C2.70115 13.05 2.82367 13.0134 2.92768 12.9438L6.32612 10.6785L9.72455 12.9438C9.83087 13.0144 9.95625 13.0507 10.0838 13.048C10.2114 13.0452 10.3351 13.0034 10.4382 12.9282C10.5413 12.853 10.6189 12.7481 10.6606 12.6275C10.7023 12.5069 10.7061 12.3764 10.6714 12.2536L9.52982 8.2597L12.3609 5.71232C12.5463 5.54507 12.6143 5.28422 12.5344 5.0477Z" fill="#758091"/>
<path d="M28.858 5.0477C28.8188 4.93217 28.7466 4.83065 28.6503 4.75569C28.554 4.68072 28.4379 4.63558 28.3163 4.62585L24.7581 4.34315L23.2183 0.935201C23.1693 0.825438 23.0895 0.73221 22.9887 0.66677C22.8878 0.601329 22.7702 0.566472 22.6499 0.566406C22.5297 0.56634 22.412 0.601068 22.3111 0.666398C22.2102 0.731728 22.1303 0.824868 22.0811 0.934577L20.5414 4.34315L16.9832 4.62585C16.8636 4.63532 16.7493 4.67902 16.654 4.75174C16.5586 4.82445 16.4862 4.92309 16.4455 5.03587C16.4047 5.14864 16.3973 5.27076 16.4242 5.38763C16.451 5.50449 16.511 5.61115 16.5968 5.69485L19.2263 8.25783L18.2964 12.2842C18.2681 12.4061 18.2772 12.5336 18.3223 12.6503C18.3675 12.767 18.4467 12.8674 18.5496 12.9385C18.6526 13.0096 18.7745 13.0481 18.8996 13.0491C19.0248 13.05 19.1473 13.0134 19.2513 12.9438L22.6497 10.6785L26.0482 12.9438C26.1545 13.0144 26.2799 13.0507 26.4074 13.048C26.535 13.0452 26.6587 13.0034 26.7618 12.9282C26.8649 12.853 26.9425 12.7481 26.9842 12.6275C27.0259 12.5069 27.0297 12.3764 26.995 12.2536L25.8534 8.2597L28.6845 5.71232C28.8699 5.54507 28.9379 5.28422 28.858 5.0477Z" fill="#758091"/>
<path d="M45.1815 5.0477C45.1423 4.93217 45.0701 4.83065 44.9738 4.75569C44.8775 4.68072 44.7614 4.63558 44.6398 4.62585L41.0816 4.34315L39.5418 0.935201C39.4928 0.825438 39.413 0.73221 39.3121 0.66677C39.2113 0.601329 39.0936 0.566472 38.9734 0.566406C38.8532 0.56634 38.7355 0.601068 38.6346 0.666398C38.5336 0.731728 38.4538 0.824868 38.4046 0.934577L36.8649 4.34315L33.3067 4.62585C33.1871 4.63532 33.0728 4.67902 32.9775 4.75174C32.8821 4.82445 32.8097 4.92309 32.769 5.03587C32.7282 5.14864 32.7208 5.27076 32.7476 5.38763C32.7745 5.50449 32.8344 5.61115 32.9203 5.69485L35.5498 8.25783L34.6198 12.2842C34.5916 12.4061 34.6007 12.5336 34.6458 12.6503C34.691 12.767 34.7702 12.8674 34.8731 12.9385C34.9761 13.0096 35.098 13.0481 35.2231 13.0491C35.3482 13.05 35.4708 13.0134 35.5748 12.9438L38.9732 10.6785L42.3716 12.9438C42.478 13.0144 42.6033 13.0507 42.7309 13.048C42.8585 13.0452 42.9822 13.0034 43.0853 12.9282C43.1884 12.853 43.266 12.7481 43.3077 12.6275C43.3494 12.5069 43.3532 12.3764 43.3185 12.2536L42.1769 8.2597L45.008 5.71232C45.1934 5.54507 45.2614 5.28422 45.1815 5.0477Z" fill="#758091"/>
<path d="M61.5051 5.0477C61.4659 4.93217 61.3937 4.83065 61.2974 4.75569C61.2011 4.68072 61.085 4.63558 60.9633 4.62585L57.4051 4.34315L55.8654 0.935201C55.8163 0.825438 55.7366 0.73221 55.6357 0.66677C55.5349 0.601329 55.4172 0.566472 55.297 0.566406C55.1768 0.56634 55.0591 0.601068 54.9581 0.666398C54.8572 0.731728 54.7774 0.824868 54.7282 0.934577L53.1885 4.34315L49.6302 4.62585C49.5107 4.63532 49.3964 4.67902 49.301 4.75174C49.2057 4.82445 49.1333 4.92309 49.0925 5.03587C49.0518 5.14864 49.0444 5.27076 49.0712 5.38763C49.0981 5.50449 49.158 5.61115 49.2439 5.69485L51.8734 8.25783L50.9434 12.2842C50.9152 12.4061 50.9242 12.5336 50.9694 12.6503C51.0146 12.767 51.0938 12.8674 51.1967 12.9385C51.2996 13.0096 51.4216 13.0481 51.5467 13.0491C51.6718 13.05 51.7943 13.0134 51.8984 12.9438L55.2968 10.6785L58.6952 12.9438C58.8015 13.0144 58.9269 13.0507 59.0545 13.048C59.1821 13.0452 59.3057 13.0034 59.4089 12.9282C59.512 12.853 59.5896 12.7481 59.6313 12.6275C59.673 12.5069 59.6767 12.3764 59.642 12.2536L58.5005 8.2597L61.3316 5.71232C61.517 5.54507 61.585 5.28422 61.5051 5.0477Z" fill="#758091"/>
<path d="M77.8286 5.0477C77.7894 4.93217 77.7172 4.83065 77.6209 4.75569C77.5246 4.68072 77.4085 4.63558 77.2869 4.62585L73.7286 4.34315L72.1889 0.935201C72.1399 0.825438 72.0601 0.73221 71.9592 0.66677C71.8584 0.601329 71.7407 0.566472 71.6205 0.566406C71.5003 0.56634 71.3826 0.601068 71.2817 0.666398C71.1807 0.731728 71.1009 0.824868 71.0517 0.934577L69.512 4.34315L65.9538 4.62585C65.8342 4.63532 65.7199 4.67902 65.6246 4.75174C65.5292 4.82445 65.4568 4.92309 65.4161 5.03587C65.3753 5.14864 65.3679 5.27076 65.3947 5.38763C65.4216 5.50449 65.4815 5.61115 65.5674 5.69485L68.1969 8.25783L67.2669 12.2842C67.2387 12.4061 67.2478 12.5336 67.2929 12.6503C67.3381 12.767 67.4173 12.8674 67.5202 12.9385C67.6232 13.0096 67.7451 13.0481 67.8702 13.0491C67.9953 13.05 68.1179 13.0134 68.2219 12.9438L71.6203 10.6785L75.0187 12.9438C75.1251 13.0144 75.2504 13.0507 75.378 13.048C75.5056 13.0452 75.6293 13.0034 75.7324 12.9282C75.8355 12.853 75.9131 12.7481 75.9548 12.6275C75.9965 12.5069 76.0002 12.3764 75.9656 12.2536L74.824 8.2597L77.6551 5.71232C77.8405 5.54507 77.9085 5.28422 77.8286 5.0477Z" fill="#758091"/>
</svg>
