<svg width="158" height="98" viewBox="0 0 158 98" fill="none" xmlns="http://www.w3.org/2000/svg">
<rect width="158" height="98" rx="10" fill="white"/>
<path d="M79.2285 7C99.7897 7 116.457 23.5998 116.457 44.0796C116.457 64.5594 99.7897 81.1592 79.2285 81.1592C58.6672 81.1592 42 64.5567 42 44.0769C42 23.5971 58.6672 7 79.2285 7Z" stroke="#1B1918" stroke-width="0.98" stroke-miterlimit="10"/>
<path fill-rule="evenodd" clip-rule="evenodd" d="M79.2474 14.3665C95.5166 14.3665 108.707 27.5802 108.707 43.8842C108.707 60.1883 95.5166 73.4019 79.2474 73.4019C62.9782 73.4019 49.7907 60.1856 49.7907 43.8842C49.7907 27.5829 62.9782 14.3665 79.2474 14.3665Z" fill="#102A83" stroke="#1B1918" stroke-width="0.96" stroke-miterlimit="10"/>
<path d="M58.8595 22.596C62.6262 18.971 67.3786 16.312 72.6212 15.0693" stroke="#1B1918" stroke-width="0.22" stroke-miterlimit="10"/>
<path d="M55.2444 60.8748C51.8216 56.0506 49.7853 50.1519 49.7853 43.8273C49.7853 40.5904 50.3404 37.481 51.3044 34.5425" stroke="#1B1918" stroke-width="0.22" stroke-miterlimit="10"/>
<path fill-rule="evenodd" clip-rule="evenodd" d="M55.2173 60.6522C60.5898 68.4393 69.3852 73.3694 79.2528 73.3694C89.1205 73.3694 97.8941 68.4393 103.459 61.2519C100.421 51.2155 90.6829 43.5803 79.2528 43.5803C67.8227 43.5803 58.8134 50.6348 55.2173 60.6495V60.6522Z" fill="#FFEC00" stroke="#1B1918" stroke-width="0.95" stroke-miterlimit="10"/>
<path d="M75.5132 43.8245C72.6022 44.2749 69.8212 45.1974 67.3163 46.5486" stroke="#1B1918" stroke-width="0.22" stroke-miterlimit="10"/>
<path fill-rule="evenodd" clip-rule="evenodd" d="M61.7543 50.8519C63.3601 49.1588 65.2637 47.7208 67.319 46.7331L58.8649 22.6528C55.4827 25.9549 52.8506 30.0519 51.3098 34.5777L61.7543 50.8546V50.8519Z" fill="#FFEC00" stroke="#1B1918" stroke-width="0.95" stroke-miterlimit="10"/>
<path fill-rule="evenodd" clip-rule="evenodd" d="M96.7379 50.8519C95.1321 49.1588 93.2284 47.7208 91.1731 46.7332L99.6272 22.6501C103.007 25.9522 105.642 30.0492 107.182 34.575L96.7379 50.8519Z" fill="#FFEC00" stroke="#1B1918" stroke-width="0.95" stroke-miterlimit="10"/>
<path fill-rule="evenodd" clip-rule="evenodd" d="M72.5507 14.9798C74.7117 14.5728 76.9376 14.2933 79.2068 14.2933C81.8606 14.2933 84.4304 14.6569 86.9108 15.281L82.6513 43.7161C81.495 43.6292 80.3604 43.5451 79.2041 43.5451C77.9422 43.5451 76.6993 43.651 75.4807 43.868L72.548 14.9825L72.5507 14.9798Z" fill="#FFEC00" stroke="#1B1918" stroke-width="0.95" stroke-miterlimit="10"/>
<path fill-rule="evenodd" clip-rule="evenodd" d="M78.8304 21.1796C74.6792 22.9812 75.1287 26.6034 74.8498 28.4268C74.5708 30.2501 74.7441 33.9157 70.6552 38.1403C66.1194 42.9862 65.6699 47.8321 65.6049 50.407C65.5399 52.9819 66.9968 57.8712 66.9968 56.8836C66.9968 55.896 67.7469 54.3304 67.8525 54.2246C67.8742 54.2246 68.432 53.5381 69.2227 52.5315C72.4343 50.8167 70.9341 72.1105 70.9341 72.1105C71.5975 72.1973 72.2393 72.2814 72.8811 72.3899C72.8811 72.3899 73.309 58.5767 73.4362 56.6041C73.5662 54.6316 76.3906 50.407 77.9314 46.8906C79.4722 43.3742 76.9484 31.8156 77.2246 28.4268C77.5008 25.0379 79.1933 24.7584 80.1789 25.3391C81.1403 25.898 78.6165 28.1283 81.4408 31.2594C81.0346 33.7258 83.924 39.8171 83.4961 38.55C83.84 37.4782 82.4049 30.809 83.2606 29.9733C85.2075 28.7089 85.0153 26.929 84.9286 25.898C84.758 23.1739 82.0393 22.2514 81.2052 20.409C80.3712 18.5667 81.013 16.312 80.8857 16.5263C78.9171 16.6973 78.7681 21.2447 78.8304 21.1823V21.1796Z" fill="white" stroke="#1B1918" stroke-width="0.95" stroke-miterlimit="10"/>
<path fill-rule="evenodd" clip-rule="evenodd" d="M74.143 39.5565C75.042 39.5999 76.7534 41.8519 75.4699 43.8462C74.6981 45.3059 71.4026 49.7856 69.4339 52.3143" fill="white"/>
<path d="M74.143 39.5565C75.042 39.5999 76.7534 41.8519 75.4699 43.8462C74.6981 45.3059 71.4026 49.7856 69.4339 52.3143" stroke="#1B1918" stroke-width="0.95" stroke-miterlimit="10"/>
<path fill-rule="evenodd" clip-rule="evenodd" d="M84.6714 64.0059C85.741 65.916 87.3251 67.8234 87.3251 67.8234C87.3251 67.8234 87.4307 65.7858 87.3251 64.1551C87.2195 62.5244 87.7313 61.6263 88.1375 58.365C88.5437 55.1063 86.4044 53.1745 86.0199 52.3605C85.8277 50.9442 88.8443 49.3569 88.8443 47.0642C88.8443 45.542 87.2602 43.9548 85.0342 43.6102C83.7724 42.9454 82.4238 39.7492 82.0176 39.4941C82.1232 40.3298 83.8373 43.4827 84.0946 44.1257C84.3085 44.8556 84.6064 47.3436 83.9023 48.9716C83.1956 50.6023 80.6068 52.2737 79.9406 55.0629C79.4695 56.3924 79.3422 60.8964 80.753 61.9248C82.1666 62.9531 82.8706 67.0067 82.8706 67.0067V73.1197C83.4257 73.0763 84.0052 73.0329 84.4981 72.7996C84.4981 69.9452 84.6687 66.8358 84.6687 64.0059H84.6714Z" fill="white" stroke="#1B1918" stroke-width="0.95" stroke-miterlimit="10"/>
<path fill-rule="evenodd" clip-rule="evenodd" d="M84.3952 54.8052C82.2776 55.2339 83.3255 60.8965 83.7751 61.8597C83.905 62.481 84.0323 62.8256 84.4602 63.5745" fill="white"/>
<path d="M84.3952 54.8052C82.2776 55.2339 83.3255 60.8965 83.7751 61.8597C83.905 62.481 84.0323 62.8256 84.4602 63.5745" stroke="#1B1918" stroke-width="0.95" stroke-miterlimit="10"/>
<path fill-rule="evenodd" clip-rule="evenodd" d="M82.5186 25.7243C82.4319 26.4758 82.6892 27.184 82.413 28.5108C83.1847 29.5174 83.7832 27.6317 83.8698 27.4173C84.1054 27.0104 83.3147 25.5289 82.5213 25.7243H82.5186Z" fill="#102A83"/>
<path fill-rule="evenodd" clip-rule="evenodd" d="M86.3178 45.6316C86.2366 46.3343 86.4776 46.9991 86.2176 48.2418C86.9379 49.186 87.5012 47.4196 87.5824 47.2188C87.8017 46.8363 87.0598 45.4498 86.3205 45.6316H86.3178Z" fill="#102A83"/>
<path fill-rule="evenodd" clip-rule="evenodd" d="M49.7907 78.0444C54.7353 82.5701 66.0788 82.5484 79.2637 82.6976C91.6768 82.8252 105.138 82.912 106.681 78.0444V85.571C103.491 90.8483 88.2106 89.9882 79.0064 89.9882C69.2254 89.9882 54.4158 90.094 49.7907 85.571V78.0444Z" fill="white"/>
<mask id="mask0_168_2166" style="mask-type:luminance" maskUnits="userSpaceOnUse" x="48" y="76" width="61" height="15">
<path d="M108.187 76.3377H48.0711V90.8537H108.187V76.3377Z" fill="white"/>
</mask>
<g mask="url(#mask0_168_2166)">
<path d="M49.7907 78.0444C54.7353 82.5701 66.0788 82.5484 79.2637 82.6976C91.6768 82.8252 105.138 82.912 106.681 78.0444V85.571C103.491 90.8483 88.2106 89.9882 79.0064 89.9882C69.2254 89.9882 54.4158 90.094 49.7907 85.571V78.0444Z" stroke="#1B1918" stroke-width="0.95" stroke-miterlimit="10"/>
</g>
<path fill-rule="evenodd" clip-rule="evenodd" d="M113.083 70.9193C113.105 72.4415 111.35 72.9353 110.407 72.9136C109.852 72.9977 109.809 73.8144 111.306 74.7586C111.285 75.4451 111.241 77.5261 111.434 78.3618C113.768 78.2533 113.145 76.2807 113.145 76.2807C113.102 74.414 113.102 72.7426 113.08 70.9193H113.083Z" fill="white" stroke="#1B1918" stroke-width="0.22" stroke-miterlimit="10"/>
<path fill-rule="evenodd" clip-rule="evenodd" d="M105.289 70.5883C106.939 71.0821 112.631 70.8678 112.845 70.5883C113.058 70.3088 113.871 73.2256 108.821 73.0112C106.551 72.9054 105.289 70.5883 105.289 70.5883Z" fill="#FFEC00" stroke="#1B1918" stroke-width="0.94" stroke-miterlimit="10"/>
<path fill-rule="evenodd" clip-rule="evenodd" d="M109.489 72.957C109.489 72.957 103.776 73.2582 103.605 74.0288C102.793 77.0107 112.338 73.535 109.489 72.957Z" fill="#FFEC00" stroke="#1B1918" stroke-width="0.94" stroke-miterlimit="10"/>
<path fill-rule="evenodd" clip-rule="evenodd" d="M103.8 74.7124C103.822 75.5915 103.843 76.4706 103.865 77.3497C103.865 77.3497 110.456 77.2005 111.25 74.7776C110.456 74.2647 110.072 73.5973 109.966 73.4915C109.923 73.212 106.37 76.1722 103.8 74.7124Z" fill="#FFEC00" stroke="#1B1918" stroke-width="0.94" stroke-miterlimit="10"/>
<path fill-rule="evenodd" clip-rule="evenodd" d="M111.19 74.9838C111.404 76.5304 103.399 78.2234 98.8392 77.6211C98.433 78.1366 98.3897 78.6277 98.6903 79.1867C99.0748 79.1432 104.813 80.3018 106.673 78.1773L106.63 83.3244C108.406 83.517 111.339 81.5662 111.209 81.2216C111.252 79.6561 111.187 74.9811 111.187 74.9811L111.19 74.9838Z" fill="white" stroke="#1B1918" stroke-width="0.94" stroke-miterlimit="10"/>
<path fill-rule="evenodd" clip-rule="evenodd" d="M98.7228 78.9234C98.7228 79.9111 98.7444 80.896 98.7661 81.8836C98.7661 81.8836 105.658 81.3057 106.684 78.2804C104.353 79.9735 98.7228 79.4607 98.7228 78.9234Z" fill="#FFEC00" stroke="#1B1918" stroke-width="0.94" stroke-miterlimit="10"/>
<path fill-rule="evenodd" clip-rule="evenodd" d="M43.2213 70.1298C43.1996 71.6519 44.9543 72.1457 45.8967 72.124C46.4518 72.2108 46.4952 73.0248 44.9977 73.969C45.0193 74.6555 45.0627 76.7366 44.8704 77.5723C42.5362 77.4665 43.159 75.4939 43.159 75.4939C43.2023 73.6272 43.2023 71.9558 43.224 70.1325L43.2213 70.1298Z" fill="white" stroke="#1B1918" stroke-width="0.22" stroke-miterlimit="10"/>
<path fill-rule="evenodd" clip-rule="evenodd" d="M51.0147 69.8882C49.3655 70.382 43.6735 70.1677 43.4596 69.8882C43.2456 69.6115 42.4333 72.5282 47.4835 72.3112C49.7528 72.2054 51.0147 69.8882 51.0147 69.8882Z" fill="#FFEC00" stroke="#1B1918" stroke-width="0.94" stroke-miterlimit="10"/>
<path fill-rule="evenodd" clip-rule="evenodd" d="M46.8147 72.257C46.8147 72.257 52.5311 72.5581 52.7017 73.3287C53.5141 76.3079 43.9687 72.8349 46.8147 72.257Z" fill="#FFEC00" stroke="#1B1918" stroke-width="0.94" stroke-miterlimit="10"/>
<path fill-rule="evenodd" clip-rule="evenodd" d="M52.504 74.0097C52.4823 74.8888 52.4607 75.7679 52.4417 76.647C52.4417 76.647 45.8507 76.4978 45.0572 74.0749C45.8507 73.562 46.2352 72.8946 46.3408 72.7888C46.3841 72.5093 49.9369 75.4695 52.504 74.0097Z" fill="#FFEC00" stroke="#1B1918" stroke-width="0.94" stroke-miterlimit="10"/>
<path fill-rule="evenodd" clip-rule="evenodd" d="M45.1168 74.1942C44.9029 75.7381 52.9075 77.4311 57.4676 76.8315C57.8738 77.347 57.9171 77.8381 57.6166 78.3971C57.2293 78.3537 51.494 79.5149 49.6336 77.3905L49.6769 82.5375C47.9006 82.7302 44.9679 80.7793 45.0979 80.4347C45.0545 78.8692 45.1195 74.1942 45.1195 74.1942H45.1168Z" fill="white" stroke="#1B1918" stroke-width="0.94" stroke-miterlimit="10"/>
<path fill-rule="evenodd" clip-rule="evenodd" d="M57.5814 78.2208C57.5814 79.2057 57.5597 80.1933 57.538 81.1809C57.538 81.1809 50.6464 80.603 49.6174 77.5777C51.9516 79.2708 57.5787 78.758 57.5787 78.2208H57.5814Z" fill="#FFEC00" stroke="#1B1918" stroke-width="0.94" stroke-miterlimit="10"/>
<g clip-path="url(#clip0_168_2166)">
<path d="M83.683 88.2192V83.5551H84.2977V87.6684H86.5886V88.2192H83.683Z" fill="#1B1918"/>
</g>
<g clip-path="url(#clip1_168_2166)">
<path d="M87.336 88.2192V83.5551H90.6992V84.1059H87.9507V85.5357H90.5232V86.0838H87.9507V87.6684H90.8048V88.2192H87.336Z" fill="#1B1918"/>
</g>
<g clip-path="url(#clip2_168_2166)">
<path d="M91.1379 88.2191L92.9224 83.555H93.5858L95.4922 88.2191H94.7909L94.2493 86.8082H92.3023L91.7905 88.2191H91.1379ZM92.4783 86.3035H94.057L93.5696 85.0147C93.4234 84.6213 93.3123 84.3011 93.2392 84.0488C93.1796 84.35 93.0957 84.6457 92.9901 84.9388L92.4783 86.3035Z" fill="#1B1918"/>
</g>
<g clip-path="url(#clip3_168_2166)">
<path d="M74.0022 88.0265V83.9132H72.4695V83.3624H76.1577V83.9132H74.6196V88.0265H74.0022Z" fill="#1B1918"/>
</g>
<g clip-path="url(#clip4_168_2166)">
<path d="M76.5964 85.7554C76.5964 84.9848 76.8049 84.3798 77.2192 83.9402C77.6335 83.5034 78.1697 83.2836 78.8277 83.2836C79.2556 83.2836 79.6428 83.3867 79.9867 83.5929C80.3333 83.7964 80.596 84.084 80.7774 84.453C80.9561 84.822 81.0482 85.2372 81.0482 85.7039C81.0482 86.1705 80.9507 86.5992 80.7612 86.971C80.5716 87.3454 80.3008 87.6276 79.9542 87.8175C79.6049 88.0101 79.2285 88.1051 78.825 88.1051C78.3863 88.1051 77.9937 87.9993 77.6498 87.7876C77.3058 87.576 77.0432 87.2857 76.8672 86.9194C76.6884 86.5531 76.6018 86.1624 76.6018 85.7527L76.5964 85.7554ZM77.23 85.769C77.23 86.3279 77.379 86.7729 77.6822 87.0958C77.9828 87.4186 78.3619 87.5787 78.8169 87.5787C79.2718 87.5787 79.6644 87.4159 79.9623 87.0903C80.2602 86.762 80.4118 86.3008 80.4118 85.7011C80.4118 85.324 80.3468 84.993 80.2169 84.7081C80.0896 84.4232 79.9027 84.2034 79.6536 84.046C79.4072 83.8914 79.131 83.8127 78.8277 83.8127C78.389 83.8127 78.0126 83.9619 77.6985 84.2631C77.3844 84.5643 77.23 85.0662 77.23 85.769Z" fill="#1B1918"/>
</g>
<path fill-rule="evenodd" clip-rule="evenodd" d="M67.9121 86.9113H71.1399V85.7636H67.9121V86.9113Z" fill="#1B1918"/>
<defs>
<clipPath id="clip0_168_2166">
<rect width="2.9056" height="4.66412" fill="white" transform="matrix(1 0 0 -1 83.683 88.2192)"/>
</clipPath>
<clipPath id="clip1_168_2166">
<rect width="3.46884" height="4.66412" fill="white" transform="matrix(1 0 0 -1 87.336 88.2192)"/>
</clipPath>
<clipPath id="clip2_168_2166">
<rect width="4.35433" height="4.66412" fill="white" transform="matrix(1 0 0 -1 91.1379 88.2191)"/>
</clipPath>
<clipPath id="clip3_168_2166">
<rect width="3.68819" height="4.66412" fill="white" transform="matrix(1 0 0 -1 72.4695 88.0265)"/>
</clipPath>
<clipPath id="clip4_168_2166">
<rect width="4.45182" height="4.8242" fill="white" transform="matrix(1 0 0 -1 76.5964 88.1079)"/>
</clipPath>
</defs>
</svg>
