<svg width="16" height="17" viewBox="0 0 16 17" fill="none" xmlns="http://www.w3.org/2000/svg">
<g clip-path="url(#clip0_17_1224)">
<path d="M7.99755 0.209229C3.58787 0.209229 0.000457764 3.79683 0.000457764 8.20652C0.000457764 12.6164 3.58787 16.204 7.99755 16.204C12.4072 16.204 15.9948 12.6164 15.9948 8.20652C15.9948 3.79683 12.407 0.209229 7.99755 0.209229ZM7.99755 15.0478C4.22553 15.0478 1.1565 11.9787 1.1565 8.20652C1.1565 4.4343 4.22534 1.36546 7.99755 1.36546C11.7698 1.36546 14.8386 4.4343 14.8386 8.20652C14.8386 11.9787 11.7698 15.0478 7.99755 15.0478Z" fill="#F5AB34"/>
<path d="M10.3113 8.94262C10.3082 8.94262 10.3055 8.94262 10.3024 8.94262L8.57539 8.96844V4.44872C8.57539 4.12941 8.31659 3.87061 7.99728 3.87061C7.67796 3.87061 7.41916 4.12941 7.41916 4.44872V9.55543C7.41916 9.55658 7.41954 9.55774 7.41954 9.55889C7.41954 9.56082 7.41916 9.56256 7.41916 9.5641C7.41954 9.58761 7.42398 9.60977 7.42706 9.63231C7.42899 9.64638 7.42918 9.66084 7.43188 9.67471C7.43708 9.69957 7.44575 9.72269 7.45404 9.74601C7.45828 9.75815 7.46098 9.77087 7.46599 9.78243C7.47601 9.80614 7.4895 9.82772 7.50241 9.84988C7.50838 9.85971 7.51281 9.8705 7.51917 9.88014C7.53382 9.90153 7.55136 9.9206 7.5687 9.94007C7.57602 9.94816 7.58199 9.95741 7.5897 9.96531C7.6084 9.98381 7.6294 9.99942 7.65041 10.0154C7.65889 10.0218 7.6664 10.0295 7.67507 10.0355C7.69781 10.0509 7.72267 10.063 7.74753 10.075C7.7562 10.079 7.76391 10.0848 7.77277 10.0884C7.80168 10.1006 7.83251 10.1091 7.86373 10.1166C7.86951 10.1179 7.87491 10.1206 7.88088 10.1218C7.91827 10.1293 7.957 10.1335 7.9967 10.1335C7.99959 10.1335 8.00267 10.1335 8.00556 10.1335L10.3196 10.0989C10.6387 10.094 10.8936 9.83119 10.889 9.51207C10.8846 9.19584 10.6266 8.94262 10.3113 8.94262Z" fill="#F5AB34"/>
</g>
<defs>
<clipPath id="clip0_17_1224">
<rect width="15.9948" height="15.9948" fill="white" transform="translate(0 0.209229)"/>
</clipPath>
</defs>
</svg>
