<svg width="40" height="26" viewBox="0 0 40 26" fill="none" xmlns="http://www.w3.org/2000/svg">
<path d="M14.7508 12.8817C14.7508 17.1927 16.9185 21.007 20.219 23.2922C23.4999 20.9703 25.6432 17.1462 25.6432 12.8206C25.6432 8.53163 23.5342 4.7369 20.2997 2.41016C16.9527 4.69042 14.7508 8.53163 14.7508 12.8817Z" fill="white"/>
<path d="M12.9843 12.8815C12.9843 8.21089 15.2181 4.05161 18.6727 1.41415C16.9185 0.513785 14.9318 0 12.8228 0C5.74224 0 0 5.73979 0 12.8228C0 19.9033 5.73979 25.6456 12.8228 25.6456C14.8951 25.6456 16.85 25.1514 18.5822 24.2779C15.1789 21.6356 12.9843 17.5105 12.9843 12.8815Z" fill="white"/>
<path d="M27.4097 25.4717C20.4662 25.4717 14.8193 19.8225 14.8193 12.8814C14.8193 5.93783 20.4686 0.291016 27.4097 0.291016C34.3532 0.291016 40.0001 5.94028 40.0001 12.8814C40.0001 19.8225 34.3532 25.4717 27.4097 25.4717ZM27.4097 2.05503C21.4399 2.05503 16.5858 6.91161 16.5858 12.8789C16.5858 18.8487 21.4424 23.7028 27.4097 23.7028C33.3795 23.7028 38.236 18.8463 38.236 12.8789C38.236 6.91161 33.3795 2.05503 27.4097 2.05503Z" fill="white"/>
</svg>
