<svg width="77" height="77" viewBox="0 0 77 77" fill="none" xmlns="http://www.w3.org/2000/svg">
<g clip-path="url(#clip0_41_1044)">
<path d="M0 75.4975C0.361644 74.8969 0.894064 74.7302 1.5832 74.7342C7.04603 74.7563 12.5109 74.7342 17.9737 74.7603C18.5563 74.7623 18.8457 74.5976 19.1028 74.0653C21.6404 68.7906 24.21 63.5279 26.7717 58.2652C26.8922 58.0181 26.9967 57.757 27.1595 57.5381C27.5231 57.054 28.0214 56.9274 28.5578 57.1946C29.0983 57.4617 29.2851 57.9418 29.1244 58.5203C29.0521 58.7814 28.9054 59.0245 28.7848 59.2715C26.4321 64.1084 24.0774 68.9452 21.7247 73.7841C21.5861 74.0673 21.4575 74.3566 21.2948 74.7081H57.4471C52.0546 63.6223 46.6942 52.6068 41.3761 41.6737H37.3598C37.179 42.0392 36.9319 42.5273 36.6928 43.0174C34.9951 46.5045 33.2974 49.9915 31.5976 53.4765C31.4771 53.7216 31.3646 53.9867 31.1858 54.1856C30.8362 54.5773 30.3901 54.7018 29.8959 54.4568C29.3856 54.2037 29.1626 53.7778 29.2851 53.2214C29.3434 52.9583 29.476 52.7072 29.5945 52.4622C31.3987 48.7482 33.2049 45.0362 35.0111 41.3241C35.1317 41.0771 35.2422 40.828 35.3406 40.6131C34.6656 39.8679 34.0126 39.1488 33.4641 38.5442C32.5821 38.6566 31.7342 38.8896 30.9045 38.8354C29.9843 38.7731 29.3474 38.1002 28.8511 37.2064C24.2964 39.8277 19.7759 42.4289 15.2875 45.01C15.2875 45.689 15.3337 46.3337 15.2774 46.9665C15.1549 48.3324 11.6891 50.327 10.5017 49.6983C9.86484 49.3608 9.14155 48.949 8.7779 48.3685C7.36749 46.1228 6.06758 43.8069 4.76365 41.4949C3.96804 40.0848 4.39598 38.5743 5.7642 37.7126C6.06155 37.5258 6.36694 37.355 6.67032 37.1803C8.41425 36.18 9.37059 36.2683 10.9116 37.6041C15.4241 35.0069 19.9527 32.4017 24.4833 29.7944C24.3567 29.3967 24.2161 29.0532 24.1397 28.6937C23.8846 27.5005 24.4431 26.3898 25.6426 25.6968C29.8497 23.2703 34.0588 20.8479 38.2659 18.4234C38.4809 18.2989 38.6939 18.1683 38.8988 18.0478C38.8205 17.5376 38.6678 17.0475 38.6879 16.5654C38.73 15.5812 39.1881 14.7917 40.0581 14.2856C41.6815 13.3415 43.3048 12.3994 44.9383 11.4734C45.6495 11.0697 46.3025 11.2123 46.638 11.8009C46.9775 12.3974 46.7746 13.004 46.0533 13.4259C44.5405 14.3117 43.0276 15.1935 41.4966 16.0452C40.9401 16.3545 40.8236 16.6618 41.1611 17.2383C43.4736 21.1913 45.764 25.1584 48.0524 29.1276C48.3237 29.5976 48.621 29.7844 49.1434 29.4831C53.5012 26.9662 57.863 24.4594 62.2228 21.9486C62.2851 21.9124 62.3313 21.8502 62.4378 21.7497C59.8762 17.3267 57.3105 12.9016 54.7288 8.44438C53.469 9.1675 52.2796 9.85848 51.0842 10.5334C50.3107 10.9713 49.6778 10.8608 49.3222 10.2542C48.9626 9.63953 49.1795 9.04296 49.9571 8.587C50.9938 7.98038 52.0325 7.37577 53.0853 6.79527C53.4389 6.60043 53.5755 6.42768 53.467 5.97975C53.1737 4.78058 53.6539 3.63766 54.7067 3.00493C56.2296 2.09099 57.7706 1.20115 59.3277 0.347469C60.3845 -0.233034 61.5779 -0.0783672 62.4619 0.749201C62.8015 1.06858 63.0526 1.06456 63.4484 0.921946C69.297 -1.19317 75.5655 2.2798 76.7348 8.38211C77.4581 12.1584 76.2968 15.4064 73.4278 17.9976C73.0782 18.3129 72.9476 18.55 73.038 19.0561C73.251 20.2412 72.829 21.2596 71.7883 21.8964C70.2734 22.8224 68.7264 23.7042 67.1653 24.5518C65.9699 25.2006 64.8608 24.9395 63.573 23.7845C61.8833 24.7547 60.1735 25.7369 58.4658 26.7192C55.9041 28.1915 53.3445 29.6659 50.7848 31.1382C48.838 32.2571 48.0946 32.2068 46.3567 30.8269C46.0232 31.0177 45.6776 31.2166 45.3059 31.4295C46.9514 34.9547 46.3607 37.9938 43.3631 40.5528C43.4696 40.7858 43.5741 41.0349 43.6926 41.278C48.9987 52.191 54.3129 63.1 59.6049 74.0191C59.8701 74.5655 60.1675 74.7643 60.7863 74.7623C65.6986 74.7342 70.611 74.7503 75.5233 74.7422C76.112 74.7422 76.6343 74.8306 76.8935 75.4352C77.2069 76.1684 76.777 76.6083 76.2486 77.002C50.8331 77.002 25.4155 77.002 0 77.002C0 76.4998 0 75.9997 0 75.4995V75.4975ZM60.7059 2.19745C60.4006 2.3501 60.2197 2.43045 60.0469 2.52887C58.7651 3.26003 57.4933 4.01127 56.2015 4.72434C55.6449 5.03167 55.5405 5.35305 55.872 5.92351C58.9962 11.2826 62.1063 16.6478 65.1984 22.0229C65.564 22.6577 65.9337 22.7119 66.5284 22.3523C67.7479 21.6152 68.9816 20.8961 70.2373 20.2232C70.8802 19.8777 70.9485 19.5262 70.5828 18.9135C69.3412 16.8305 68.1417 14.7194 66.9262 12.6204C65.0597 9.39649 63.1953 6.16857 61.3167 2.95069C61.154 2.67149 60.9069 2.44451 60.7019 2.19544L60.7059 2.19745ZM40.1887 20.0384C40.0822 20.0384 40.0541 20.0303 40.036 20.0384C35.6058 22.5793 31.1777 25.1223 26.7476 27.6612C26.2935 27.9224 26.2754 28.2337 26.5226 28.6575C27.9852 31.1663 29.4278 33.6872 30.9125 36.182C31.0491 36.411 31.5092 36.66 31.7081 36.5897C32.112 36.4451 32.6645 36.3708 32.5761 35.6055C32.4897 34.8543 32.562 34.0448 32.7469 33.3056C33.9101 28.6736 39.2384 26.6569 43.2124 29.3003C43.4455 29.455 43.8152 29.5936 44.0482 29.5192C44.4802 29.3807 44.8599 29.0753 45.2818 28.8283C43.552 25.8434 41.8603 22.9248 40.1887 20.0424V20.0384ZM71.7341 16.4168C74.7538 14.3519 75.6117 9.61543 73.6146 6.32524C71.2358 2.40635 66.5083 1.89815 64.0632 3.17968C66.6188 7.59271 69.1744 12.0017 71.7321 16.4168H71.7341ZM43.9417 35.0049C43.9638 32.4619 41.9467 30.4031 39.4152 30.387C36.8776 30.3709 34.7962 32.3896 34.762 34.9025C34.7299 37.3952 36.7973 39.5023 39.3107 39.5384C41.8261 39.5746 43.9196 37.5278 43.9417 35.0069V35.0049ZM25.6888 31.7107C21.0959 34.3521 16.5713 36.9573 12.0046 39.5846C12.6977 40.7778 13.3587 41.9147 14.0559 43.1179C18.6407 40.4785 23.1733 37.8693 27.7361 35.2419C27.0329 34.0287 26.3819 32.9079 25.6888 31.7127V31.7107ZM13.1658 46.2313C13.0895 46.0405 13.0574 45.918 12.9971 45.8115C11.7092 43.5799 10.4294 41.3422 9.09936 39.1347C8.98685 38.9479 8.41425 38.8113 8.24548 38.9278C7.68895 39.3115 6.78283 39.3075 6.66429 40.2194C6.65626 40.2837 6.71251 40.36 6.75068 40.4243C8.0526 42.676 9.34648 44.9357 10.6826 47.1673C10.7951 47.3541 11.2572 47.4988 11.4721 47.4224C11.9584 47.2477 12.4024 46.9404 12.8404 46.6531C12.987 46.5567 13.0694 46.3599 13.1638 46.2313H13.1658Z" fill="white"/>
<path d="M71.734 16.4167C69.1764 12.0017 66.6208 7.59267 64.0652 3.17964C66.5083 1.89811 71.2358 2.40631 73.6166 6.3252C75.6137 9.61539 74.7558 14.3518 71.7361 16.4167H71.734Z" fill="#F5AB34"/>
<path d="M43.9417 35.005C43.9196 37.5259 41.8281 39.5727 39.3106 39.5366C36.7972 39.5004 34.7298 37.3933 34.762 34.9006C34.7961 32.3897 36.8776 30.369 39.4151 30.3851C41.9446 30.4012 43.9638 32.46 43.9417 35.003V35.005Z" fill="#F5AB34"/>
<path d="M13.1658 46.2333C13.0714 46.3619 12.989 46.5587 12.8424 46.6551C12.4024 46.9424 11.9604 47.2497 11.4742 47.4245C11.2592 47.5008 10.7971 47.3562 10.6846 47.1694C9.34849 44.9377 8.05461 42.678 6.75269 40.4263C6.71452 40.362 6.65827 40.2857 6.6663 40.2214C6.78283 39.3095 7.68895 39.3135 8.24749 38.9298C8.41626 38.8133 8.98886 38.9499 9.10137 39.1367C10.4314 41.3442 11.7092 43.5819 12.9991 45.8135C13.0594 45.92 13.0915 46.0425 13.1679 46.2333H13.1658Z" fill="#F5AB34"/>
</g>
<defs>
<clipPath id="clip0_41_1044">
<rect width="77" height="77" fill="white"/>
</clipPath>
</defs>
</svg>
