<svg width="68" height="118" viewBox="0 0 68 118" fill="none" xmlns="http://www.w3.org/2000/svg">
<g clip-path="url(#clip0_41_1012)">
<path d="M41.6077 5.77322C42.5202 6.95943 43.4685 8.11893 44.3386 9.33407C48.5569 15.2317 51.3146 21.7948 52.9809 28.8008C53.7436 32.0123 54.1842 35.3016 54.7299 38.562C54.8216 39.1095 54.976 39.4166 55.5418 39.6347C62.9987 42.5012 67.888 49.4404 67.9618 57.4189C68.0333 65.0392 67.9797 72.6616 67.9819 80.2841C67.9819 81.4124 67.548 82.2937 66.4878 82.7722C65.4277 83.2507 64.5017 82.9658 63.625 82.2425C59.4738 78.8197 55.307 75.4191 51.0328 71.9183C50.8248 72.4502 50.6369 72.9265 50.4535 73.4027C49.0019 77.155 46.2688 79.0333 42.2339 79.0378C36.7833 79.0422 31.3326 79.04 25.8797 79.0378C21.6883 79.0378 18.9977 77.1772 17.5103 73.2692C17.356 72.8619 17.186 72.4635 16.9825 71.9628C15.8888 72.8486 14.8756 73.6609 13.8691 74.4866C10.6774 77.1016 7.48801 79.7188 4.30082 82.3405C3.47104 83.0237 2.56073 83.2106 1.56991 82.7767C0.57014 82.3405 0.0825566 81.5237 0.0825566 80.4599C0.0780834 72.5882 -0.147815 64.7076 0.158602 56.847C0.478439 48.6615 4.84656 42.9797 12.3504 39.6992C12.9812 39.4233 13.2182 39.1162 13.292 38.4596C14.1845 30.4076 16.2377 22.685 19.946 15.4387C21.5608 12.2851 23.4575 9.31181 25.7769 6.61892C25.8999 6.47649 25.9715 6.29399 26.0676 6.1293C27.215 4.9876 28.3602 3.84813 29.5075 2.70643C30.4223 2.02987 31.3304 1.34663 32.2519 0.681197C33.5044 -0.224595 34.5221 -0.224595 35.7723 0.687874C36.7363 1.38892 37.6846 2.11221 38.6397 2.82439C39.6283 3.80807 40.6168 4.79176 41.6054 5.77544L41.6077 5.77322ZM48.4853 62.5621C48.4942 62.5332 48.5345 62.4308 48.5546 62.324C51.3168 48.864 50.6593 35.6376 45.8438 22.6873C45.6381 22.1353 45.3831 21.9462 44.7814 21.9484C37.6287 21.9729 30.476 21.9773 23.3233 21.9439C22.6076 21.9417 22.3213 22.1843 22.0887 22.8163C17.4678 35.3572 16.7521 48.1785 19.2325 61.2402C19.3242 61.7231 19.4383 62.2038 19.5143 62.5621C29.228 62.5621 38.8343 62.5621 48.4853 62.5621ZM55.269 44.9426C55.2265 45.1896 55.1907 45.292 55.1929 45.3922C55.3204 52.4605 54.5644 59.4241 52.7975 66.2788C52.7371 66.5125 52.9071 66.9197 53.1039 67.0844C55.6447 69.2143 58.2056 71.3174 60.7688 73.4205C61.4398 73.9725 62.1287 74.5044 62.8377 75.0674C62.9025 74.9005 62.9361 74.8515 62.9361 74.8026C62.9294 68.7714 63.0904 62.7357 62.86 56.7134C62.661 51.4901 59.8719 47.66 55.269 44.9404V44.9426ZM5.15074 75.1164C5.48176 74.8671 5.72332 74.7002 5.95145 74.5155C8.90379 72.0897 11.8405 69.6482 14.8129 67.2491C15.2647 66.8841 15.3363 66.5881 15.1976 66.0607C13.4598 59.4264 12.7195 52.6741 12.8224 45.8239C12.8268 45.5858 12.7977 45.3499 12.7821 45.0405C12.6076 45.1184 12.507 45.1496 12.4198 45.203C7.67812 48.0806 5.18653 52.2757 5.12837 57.8084C5.07022 63.2877 5.11495 68.7669 5.11495 74.2484C5.11495 74.491 5.13508 74.7358 5.15074 75.1186V75.1164ZM47.15 67.8211C38.3198 67.8211 29.6417 67.8211 20.8966 67.8233C21.3349 69.0385 21.7733 70.2936 22.2408 71.5377C22.9408 73.4072 23.8444 74.0303 25.8238 74.0325C28.7001 74.037 31.5787 74.0325 34.455 74.0325C37.1076 74.0325 39.7625 74.0303 42.4151 74.0325C43.7526 74.0325 44.8709 73.5741 45.4233 72.3189C46.0697 70.85 46.5797 69.3233 47.1523 67.8166L47.15 67.8211ZM24.9202 16.7028C30.9681 16.7028 37.036 16.705 43.0458 16.7073C41.138 12.7814 36.7945 7.45795 33.9539 5.64859C30.0645 8.67754 27.1904 12.5388 24.9202 16.7028Z" fill="white"/>
<path d="M31.8808 116.954C31.7577 116.197 31.5296 115.441 31.5274 114.684C31.5028 105.597 31.514 96.508 31.505 87.4211C31.505 86.4864 31.6862 85.6429 32.4556 85.0398C33.9877 83.838 36.193 84.7037 36.5039 86.6288C36.5575 86.956 36.5441 87.2943 36.5441 87.6259C36.5441 96.5458 36.5531 105.468 36.5329 114.388C36.5329 115.205 36.3607 116.019 36.2668 116.836L35.3184 117.78C34.3947 118.078 33.4822 118.105 32.5898 117.662C32.3527 117.426 32.1156 117.19 31.8785 116.954H31.8808Z" fill="#FAFAFA"/>
<path d="M47.3985 85.1756C47.5797 85.8232 47.9062 86.4687 47.9174 87.1185C47.9711 90.2543 47.9577 93.3923 47.9353 96.5281C47.9241 98.0348 46.864 99.1075 45.4504 99.123C43.9989 99.1386 42.9253 98.0548 42.9163 96.4969C42.8984 93.3611 42.9029 90.2231 42.9163 87.0874C42.9208 85.9546 43.433 85.1178 44.5043 84.6726C45.4258 84.2899 46.5039 84.5235 47.4008 85.1778L47.3985 85.1756Z" fill="#F5AB34"/>
<path d="M24.6028 85.1734C24.7862 85.821 25.115 86.4664 25.1262 87.1185C25.1821 90.2543 25.1665 93.3923 25.1419 96.5281C25.1307 98.0437 24.0728 99.1052 22.6547 99.1208C21.2009 99.1364 20.1296 98.0526 20.1206 96.4947C20.1028 93.3589 20.105 90.2209 20.1184 87.0851C20.1229 85.9523 20.6395 85.1155 21.7086 84.6682C22.619 84.2876 23.7216 84.528 24.6028 85.1756V85.1734Z" fill="#F5AB34"/>
<path d="M39.7873 46.7918C36.5688 49.981 31.4111 49.9632 28.1971 46.7518C24.9965 43.5537 25.0055 38.3637 28.215 35.2057C31.429 32.0432 36.6762 32.061 39.8343 35.2457C43.0259 38.4661 43.0058 43.6048 39.7873 46.794V46.7918ZM36.249 43.2287C37.4925 41.9869 37.4903 39.9594 36.24 38.7443C35.0143 37.5514 33.0059 37.5492 31.7779 38.7354C30.5254 39.9461 30.5165 41.9735 31.7601 43.2176C33.0215 44.4795 34.9897 44.4862 36.2512 43.2287H36.249Z" fill="#F5AB34"/>
</g>
<defs>
<clipPath id="clip0_41_1012">
<rect width="68" height="118" fill="white"/>
</clipPath>
</defs>
</svg>
