<svg width="116" height="240" viewBox="0 0 116 240" fill="none" xmlns="http://www.w3.org/2000/svg">
<g clip-path="url(#clip0_20_1952)">
<path d="M51.5743 229.493C51.5743 235.405 45.0167 240 35.7739 240C26.531 240 19.4406 237.697 19.4406 231.786C19.4406 225.874 26.6154 221.146 35.8583 221.146C45.5179 221.146 51.5796 220.982 51.5796 229.499L51.5743 229.493Z" fill="#FFAC29"/>
<path d="M19.4353 231.786C19.4353 237.692 26.5363 239.995 35.7686 239.995C45.0115 239.995 51.569 235.405 51.569 229.488C51.569 229.122 51.5585 228.766 51.5268 228.432C49.1897 232.115 43.835 234.603 37.0242 234.603C28.3775 234.603 21.6194 232.587 20.7859 227.503C19.9101 228.809 19.4353 230.263 19.4353 231.78V231.786Z" fill="#342A28"/>
<path d="M48.7255 189.711C46.821 188.538 42.0677 188.283 42.0677 188.283C32.7351 196.413 31.7855 212.375 34.2756 223.784C35.1989 227.429 42.4686 228.013 44.1568 225.222C42.8379 213.309 41.9622 200.504 48.7308 189.711H48.7255Z" fill="#E26400"/>
<path d="M37.4199 226.596C39.9152 227.381 43.107 226.952 44.1568 225.216C42.8274 213.309 41.9622 200.499 48.7308 189.716C46.8263 188.543 42.0677 188.283 42.0677 188.283C41.9516 188.39 41.8303 188.501 41.7142 188.607C42.764 188.825 43.7822 189.122 44.447 189.536C37.6784 200.318 38.5436 213.134 39.873 225.047C39.4035 225.821 38.5014 226.341 37.4199 226.596Z" fill="#342A28"/>
<path d="M33.3629 214.874C35.8794 213.409 40.4323 213.733 42.8168 215.357M43.0542 208.135C40.8332 206.405 36.2223 205.747 33.6003 207.413M43.529 202.117C41.5032 200.817 36.523 199.273 34.4392 202.117M44.6105 197.182C43.1175 195.325 39.2241 194.566 37.0717 195.378" stroke="#342A28" stroke-miterlimit="10" stroke-linecap="round"/>
<g style="mix-blend-mode:screen">
<path d="M46.0824 223.099C47.9975 224.091 49.5379 225.582 49.5643 227.875C49.5801 229.334 47.3855 229.323 47.3222 227.875C47.2589 226.447 46.0666 225.699 44.9112 225.11C43.5765 224.431 44.753 222.409 46.0824 223.099Z" fill="#F2C737"/>
</g>
<path d="M68.1872 227.747C68.1872 233.659 74.7448 238.254 83.9877 238.254C93.2305 238.254 100.321 235.951 100.321 230.04C100.321 224.128 93.1461 219.4 83.9032 219.4C74.6604 219.4 68.1819 219.236 68.1819 227.753L68.1872 227.747Z" fill="#FFAC1F"/>
<path d="M100.331 230.045C100.331 235.951 93.2305 238.254 83.9982 238.254C74.7659 238.254 68.1978 233.664 68.1978 227.748C68.1978 227.381 68.2083 227.026 68.24 226.692C70.5771 230.374 75.9318 232.863 82.7426 232.863C91.3893 232.863 98.1474 230.847 98.9809 225.763C99.8567 227.068 100.331 228.522 100.331 230.04V230.045Z" fill="#342A28"/>
<path d="M71.036 187.965C72.9405 186.792 77.6939 186.538 77.6939 186.538C87.0264 194.667 87.976 210.629 85.4859 222.038C84.5627 225.683 77.2929 226.267 75.6047 223.476C76.9236 211.563 77.7994 198.758 71.0308 187.965H71.036Z" fill="#E26400"/>
<path d="M82.3417 224.85C79.8463 225.636 76.6546 225.206 75.6047 223.47C76.9342 211.563 77.7994 198.753 71.0308 187.97C72.9353 186.798 77.6939 186.538 77.6939 186.538C77.8099 186.644 77.9313 186.755 78.0473 186.861C76.9975 187.079 75.9793 187.376 75.3145 187.79C82.0831 198.573 81.2179 211.388 79.8885 223.301C80.358 224.075 81.2602 224.595 82.3417 224.85Z" fill="#342A28"/>
<path d="M76.9447 213.611C79.324 211.987 83.8822 211.664 86.3986 213.128M86.1612 205.667C83.5392 204.001 78.9336 204.659 76.7073 206.389M85.3224 200.371C83.2385 197.527 78.2584 199.071 76.2325 200.371M82.6951 193.632C80.5427 192.82 76.6493 193.579 75.1563 195.436" stroke="#342A28" stroke-miterlimit="10" stroke-linecap="round"/>
<g style="mix-blend-mode:screen">
<path d="M73.6844 221.353C71.7694 222.345 70.2289 223.837 70.2025 226.129C70.1867 227.588 72.3813 227.578 72.4446 226.129C72.5079 224.701 73.7002 223.953 74.8556 223.364C76.1903 222.685 75.0139 220.663 73.6844 221.353Z" fill="#F2C737"/>
</g>
<path d="M113.758 155.67C113.077 154.434 111.51 154.009 110.313 154.752C105.929 157.469 96.2376 164.447 95.8261 173.187C95.8261 173.187 95.0242 182.345 103.059 179.92C103.059 179.92 122.463 171.52 113.758 155.665V155.67Z" fill="#342A28"/>
<path d="M38.4222 42.7433C38.4222 42.7433 18.6018 48.2674 21.5456 66.4526C21.5456 66.4526 10.9627 68.071 12.7037 85.715C12.7037 85.715 13.2418 105.651 28.6413 105.386C28.6413 105.386 30.1132 110.507 33.3313 113.738C33.3313 113.738 23.8194 118.588 21.9465 124.245C21.9465 124.245 4.1308 120.875 7.61798 141.894L4.40514 153.075C4.40514 153.075 -5.50773 159.676 4.40514 174.089C4.40514 174.089 6.86884 177.803 13.1099 180.016C13.1099 180.016 21.4137 183.385 19.9418 172.741C19.9418 172.741 18.8708 163.985 12.1761 159.538L15.563 150.273C16.1064 148.787 17.4939 147.784 19.066 147.742C20.2161 147.71 21.1921 148.586 21.2712 149.737C21.9096 158.557 25.6289 192.746 44.9904 193.213V193.123H71.2418V193.075C71.2418 193.075 86.6465 192.804 90.6613 175.293L96.0266 148.31C96.2481 147.195 97.3718 146.415 98.4481 146.76C98.944 146.92 99.3977 147.302 99.6351 148.076L105.217 160.684L113.658 155.696L108.039 144.065C107.912 143.746 107.765 143.438 107.601 143.136L97.6778 125.078C96.8654 123.598 95.8788 122.229 94.7288 120.998C91.6689 117.723 85.4384 111.865 80.5216 112.518C80.5216 112.518 85.8763 103.714 86.7732 99.2252C86.7732 99.2252 96.8707 101.231 99.8092 84.4945L101.418 77.3095C101.418 77.3095 103.919 62.9397 93.0247 60.4244C93.0247 60.4244 91.9538 42.4621 73.9165 40.8436C73.9165 40.8436 71.7746 31.1435 59.6302 32.4913C59.6302 32.4913 43.8245 28.8086 38.4222 42.7274V42.7433Z" fill="#342A28"/>
<path d="M50.936 38.8697C50.936 38.8697 43.4341 38.7158 43.4341 45.057V66.3306C43.4341 66.3306 37.8472 56.1051 32.4925 54.1364C32.4925 54.1364 24.6793 49.4879 25.6658 72.6081C25.6658 72.6081 26.8001 98.7848 38.5911 111.149C40.3848 113.027 42.8959 114.036 45.481 114.036H72.1861C72.1861 114.036 87.0105 115.097 86.9209 68.0127C86.9209 68.0127 89.2421 47.0151 71.1152 46.8294L67.2745 61.5442V41.9528C67.2745 41.9528 65.9345 37.4529 50.936 38.8591V38.8697Z" fill="#FFAC29"/>
<path d="M55.0615 38.5885C55.0615 38.5885 67.227 44.7705 67.169 60.934V41.9369C67.169 41.9369 65.9503 38.0632 55.0615 38.5885Z" fill="#FCFBA9"/>
<path d="M69.8174 51.377C69.8174 51.377 82.7901 51.2391 82.521 65.2481C82.521 65.2481 83.3598 98.4187 80.416 107.312C80.416 107.312 87.7808 89.2544 86.942 61.5336C86.7784 56.1528 83.8979 51.0852 79.1288 48.6495C77.0186 47.5723 74.3597 46.8453 71.0096 46.8135L69.8174 51.377Z" fill="#FCFBA9"/>
<path d="M60.8225 48.0287C59.7832 51.9767 54.2174 52.3322 52.5503 48.6549C52.0491 47.5777 51.9964 46.2882 52.4554 45.1951C52.1652 46.32 52.2918 47.5246 52.8247 48.5169C54.5551 51.8653 59.4508 51.5097 60.8225 48.0234V48.0287Z" fill="#362928"/>
<path d="M14.7453 148.607C8.30382 146.543 4.79027 139.469 6.90051 132.81C9.01075 126.15 15.9429 122.425 22.3844 124.489" fill="#342A28"/>
<path d="M104.7 146.007C110.265 143.746 112.909 137.251 110.598 131.494C108.287 125.742 101.904 122.908 96.3378 125.169" fill="#342A28"/>
<path d="M49.4957 38.9811C49.4957 38.9811 36.6918 37.5271 42.8538 65.0463L37.5676 57.2671C37.3935 57.0495 33.1414 49.7425 28.4355 54.2265C25.8821 56.6621 20.443 81.2787 35.4362 106.914C38.4855 112.13 39.2558 113.68 45.0168 114.02H56.8974C57.7732 113.988 56.8974 111.117 55.7368 108.538C53.2203 102.945 48.5145 86.9832 49.4957 38.9811Z" fill="#E26400"/>
<path d="M40.8226 82.3242C45.1581 82.3242 48.6727 78.7891 48.6727 74.4282C48.6727 70.0674 45.1581 66.5322 40.8226 66.5322C36.4871 66.5322 32.9725 70.0674 32.9725 74.4282C32.9725 78.7891 36.4871 82.3242 40.8226 82.3242Z" fill="#362928"/>
<path d="M42.8538 82.1225C35.9585 83.9426 30.4772 76.1262 34.3284 70.1459C35.4574 68.3841 37.3091 67.1053 39.356 66.7285C35.336 67.7367 32.6349 72.0986 33.6478 76.1422C34.4814 80.2281 38.7968 82.9769 42.8538 82.1225Z" fill="#FCFBA9"/>
<path d="M69.8174 82.3242C74.1528 82.3242 77.6675 78.7891 77.6675 74.4282C77.6675 70.0674 74.1528 66.5322 69.8174 66.5322C65.4819 66.5322 61.9673 70.0674 61.9673 74.4282C61.9673 78.7891 65.4819 82.3242 69.8174 82.3242Z" fill="#362928"/>
<path d="M70.8883 75.7548C72.7997 75.7548 74.3491 74.1963 74.3491 72.2738C74.3491 70.3512 72.7997 68.7927 70.8883 68.7927C68.977 68.7927 67.4275 70.3512 67.4275 72.2738C67.4275 74.1963 68.977 75.7548 70.8883 75.7548Z" fill="#FDFAAD"/>
<path d="M43.0331 75.7548C44.9445 75.7548 46.4939 74.1963 46.4939 72.2738C46.4939 70.3512 44.9445 68.7927 43.0331 68.7927C41.1218 68.7927 39.5723 70.3512 39.5723 72.2738C39.5723 74.1963 41.1218 75.7548 43.0331 75.7548Z" fill="#FDFAAD"/>
<path d="M71.7218 82.0908C67.6016 83.2264 63.0646 80.3821 62.1941 76.1847C61.1654 72.0245 64.0247 67.4715 68.2241 66.6968C64.1672 67.6519 61.4344 72.0616 62.4526 76.121C63.2914 80.2229 67.6596 83.0035 71.7271 82.0855L71.7218 82.0908Z" fill="#FCFBA9"/>
<path d="M30.8043 120.833C36.7393 117.893 49.6434 114.471 74.692 119.231C74.692 119.231 87.6595 122.234 89.7433 132.348C89.8435 132.826 89.8699 133.309 89.8594 133.797C89.7486 139.91 88.5405 182.085 75.7682 189.424C74.7184 190.029 73.4997 190.263 72.2916 190.22L52.2812 189.552C52.2812 189.552 34.7821 190.268 30.1395 162.07C30.1395 162.07 26.6576 144.548 26.4519 128.029C26.415 124.993 28.0979 122.176 30.8043 120.833Z" fill="#FFAC1F"/>
<path d="M58.1108 118.504C58.1108 118.504 89.0153 119.979 87.9127 139.347C87.9127 139.347 84.7421 169.679 80.8909 179.995C80.8909 179.995 86.2667 131.409 58.1108 118.504Z" fill="#FFF49D"/>
<path d="M37.5465 118.504C37.5465 118.504 34.3495 162.988 61.8934 189.87C61.8934 189.87 35.0353 194.508 30.9836 166.649C30.9836 166.649 25.8874 144.028 26.4994 128.034C26.6102 125.089 28.1823 122.399 30.6566 120.886C32.8354 119.56 35.6526 118.859 37.5465 118.498V118.504Z" fill="#E26400"/>
<path d="M16.7237 79.8356C16.845 77.2725 17.1352 74.7201 19.2085 74.4601C22.0098 74.1046 21.3662 77.1346 21.7144 78.7796C22.9331 84.5265 23.9143 90.3211 24.9589 96.1051C25.1699 97.2619 26.1143 98.7637 24.7321 99.4959C23.2391 100.287 22.031 99.0024 21.1816 97.8722C19.2876 95.3622 19.0872 92.2367 18.4383 89.3023C17.7102 86.0016 17.2249 82.648 16.729 79.8356H16.7237Z" fill="#E26400"/>
<path d="M92.3126 93.3829C91.2522 94.2532 89.6484 95.0916 89.8383 92.8841C90.5663 84.3673 91.6637 75.8769 92.6871 67.3866C92.703 67.2593 93.5734 67.2327 94.043 67.1584C96.2798 70.1619 96.7968 73.3351 95.9527 77.0974C94.7393 82.5259 95.1983 88.3206 92.3073 93.3776L92.3126 93.3829Z" fill="#FFC848"/>
<path d="M92.3126 93.383C92.9984 89.3713 93.6156 85.3437 94.3912 81.348C95.3197 76.5775 95.5465 71.86 94.043 67.1638C96.5647 68.6921 97.699 70.9845 97.3244 73.8765C96.686 78.7849 95.8683 83.6669 95.1878 88.57C94.9029 90.6236 94.0693 92.2633 92.3126 93.3883V93.383Z" fill="#FCFBA9"/>
<path d="M43.4077 99.7559C43.4077 99.7559 64.03 110.013 74.6762 92.3269" stroke="#342A28" stroke-width="4" stroke-miterlimit="10"/>
<path d="M42.4634 101.677C41.4082 101.151 40.9809 99.8619 41.5032 98.8007C42.0255 97.7394 43.3075 97.3042 44.3573 97.8296" fill="#342A28"/>
<path d="M72.777 91.3188C73.3678 90.2734 74.6815 89.9072 75.7155 90.5016C76.7495 91.0906 77.1082 92.4172 76.5174 93.4573" fill="#342A28"/>
<path d="M110.898 83.1147C111.896 84.2185 111.801 85.9059 110.682 86.8823C109.569 87.8587 107.854 87.7579 106.857 86.6541" fill="#362A25"/>
<path d="M98.1104 80.8012C98.1104 80.8012 104.715 79.8301 108.978 85.0092" stroke="#362A25" stroke-width="10" stroke-miterlimit="10"/>
<path d="M3.32893 91.011C2.70114 92.3641 3.292 93.9455 4.64783 94.5451C6.00366 95.1447 7.60745 94.5345 8.22997 93.1866" fill="#362A25"/>
<path d="M14.8561 84.9775C14.8561 84.9775 8.26163 86.0282 5.72406 92.2421" stroke="#362A25" stroke-width="10" stroke-miterlimit="10"/>
<path d="M41.2816 148.644C46.1649 148.644 50.1235 144.662 50.1235 139.751C50.1235 134.839 46.1649 130.857 41.2816 130.857C36.3984 130.857 32.4397 134.839 32.4397 139.751C32.4397 144.662 36.3984 148.644 41.2816 148.644Z" fill="#342A28"/>
<path d="M43.3655 148.411C38.9182 150.003 33.938 146.914 32.6455 142.489C31.1841 138.121 33.5107 132.714 38.0635 131.462C33.6689 132.884 31.4532 138.127 32.8934 142.409C34.149 146.744 38.9498 149.774 43.3602 148.405L43.3655 148.411Z" fill="#FFF49D"/>
<path d="M36.0429 118.811L37.5359 131.621L43.6978 131.51L41.9569 117.808L36.0429 118.811Z" fill="#FFF49D"/>
<path d="M36.0429 116.641L37.7839 131.738L43.9458 131.462L41.9358 115.32L36.0429 116.641Z" fill="#342A28"/>
<path d="M18.5438 143.677C14.471 143.677 11.1737 140.361 11.1737 136.264C11.1737 132.168 14.471 128.851 18.5438 128.851" stroke="#E16500" stroke-width="4" stroke-miterlimit="10"/>
<path d="M18.0637 145.779C13.2576 145.789 8.54121 141.109 8.79971 136.206C9.06877 131.409 12.9411 126.299 18.0637 126.713C13.1099 126.713 9.56467 131.6 9.31672 136.232C9.07404 140.918 13.5214 145.386 18.0637 145.773V145.779Z" fill="#FFFF8F"/>
<path d="M103.502 140.334C106.562 139.103 108.055 135.612 106.831 132.534C105.607 129.456 102.136 127.954 99.0759 129.186" stroke="#E16500" stroke-width="4" stroke-miterlimit="10"/>
<path d="M104.489 141.772C107.781 140.053 109.722 135.431 108.166 131.977C106.588 128.586 102.526 125.98 98.791 127.44C102.516 125.54 107.01 128.204 108.641 131.754C110.313 135.399 108.145 140.334 104.483 141.772H104.489Z" fill="#FFFF8F"/>
<path d="M110.387 158.26C110.313 158.18 110.202 158.132 110.107 158.185C108.799 158.902 100.242 163.837 99.9305 170.342C99.9305 170.342 99.4294 176.047 104.436 174.534C104.979 174.147 119.355 167.572 110.387 158.26Z" fill="#FFFF8C"/>
<path d="M109.712 158.711C109.653 158.62 109.527 158.583 109.432 158.636C108.124 159.353 99.5665 164.288 99.2552 170.793C99.2552 170.793 98.7541 176.498 103.761 174.985C103.761 174.985 116.802 169.339 109.712 158.711Z" fill="#FFAC23"/>
<path d="M7.64436 158.504C7.73933 158.44 7.86594 158.413 7.95563 158.482C9.19539 159.496 17.246 166.378 16.2436 173.118C16.2436 173.118 15.6105 179.071 10.6251 176.461C10.1292 175.951 -3.74567 166.145 7.64964 158.504H7.64436Z" fill="#FAA84F"/>
<path d="M8.27217 159.108C8.35658 159.029 8.49374 159.018 8.58343 159.087C9.8232 160.101 17.8738 166.983 16.8714 173.722C16.8714 173.722 16.9558 179.995 11.2529 177.065C11.2529 177.065 -1.39802 168.501 8.27744 159.108H8.27217Z" fill="#D76500"/>
<path d="M77.0291 17.0655C81.7142 17.0655 85.5123 13.2453 85.5123 8.53277C85.5123 3.82025 81.7142 0 77.0291 0C72.344 0 68.5459 3.82025 68.5459 8.53277C68.5459 13.2453 72.344 17.0655 77.0291 17.0655Z" fill="#362928"/>
<path d="M59.0393 44.8342C59.0393 46.129 57.9947 47.1797 56.7075 47.1797C55.4202 47.1797 54.3862 46.1396 54.3071 44.8342" fill="#362928"/>
<path d="M70.9252 13.1121C70.9252 13.1121 57.7046 14.842 59.0446 44.903H54.3176C54.3176 44.903 51.2736 13.8975 69.3162 8.52734L70.9252 13.1068V13.1121Z" fill="#362928"/>
<path d="M74.3491 2.42509C77.2191 0.764176 81.1758 2.15977 82.5158 5.18975C83.9824 8.15606 82.5158 12.12 79.4137 13.2768C82.1676 11.8069 83.4021 8.22504 82.0357 5.41793C80.7643 2.56837 77.2349 1.23114 74.3491 2.42509Z" fill="#FCFBA9"/>
</g>
<defs>
<clipPath id="clip0_20_1952">
<rect width="116" height="240" fill="white"/>
</clipPath>
</defs>
</svg>
