<svg width="96" height="16" viewBox="0 0 96 16" fill="none" xmlns="http://www.w3.org/2000/svg">
<path d="M7.23928 2.34166C7.47928 1.60486 8.52168 1.60486 8.76088 2.34166L9.61688 4.97526C9.66917 5.13565 9.77084 5.27541 9.90733 5.37455C10.0438 5.47369 10.2082 5.52714 10.3769 5.52726H13.1465C13.9217 5.52726 14.2433 6.51926 13.6169 6.97526L11.3769 8.60246C11.2401 8.70169 11.1383 8.84167 11.0859 9.00234C11.0336 9.16302 11.0335 9.33613 11.0857 9.49686L11.9417 12.1305C12.1817 12.8673 11.3377 13.4809 10.7097 13.0249L8.46968 11.3977C8.33304 11.2985 8.16852 11.245 7.99968 11.245C7.83083 11.245 7.66631 11.2985 7.52968 11.3977L5.28968 13.0249C4.66248 13.4809 3.81928 12.8673 4.05848 12.1305L4.91448 9.49686C4.96662 9.33613 4.96652 9.16302 4.91421 9.00234C4.8619 8.84167 4.76005 8.70169 4.62328 8.60246L2.38408 6.97606C1.75768 6.52006 2.08008 5.52806 2.85448 5.52806H5.62328C5.79211 5.52811 5.95664 5.47473 6.0933 5.37558C6.22995 5.27643 6.33174 5.13658 6.38408 4.97606L7.24008 2.34246L7.23928 2.34166Z" fill="#C86400"/>
<path d="M27.2393 2.34166C27.4793 1.60486 28.5217 1.60486 28.7609 2.34166L29.6169 4.97526C29.6692 5.13565 29.7708 5.27541 29.9073 5.37455C30.0438 5.47369 30.2082 5.52714 30.3769 5.52726H33.1465C33.9217 5.52726 34.2433 6.51926 33.6169 6.97526L31.3769 8.60246C31.2401 8.70169 31.1383 8.84167 31.0859 9.00234C31.0336 9.16302 31.0335 9.33613 31.0857 9.49686L31.9417 12.1305C32.1817 12.8673 31.3377 13.4809 30.7097 13.0249L28.4697 11.3977C28.333 11.2985 28.1685 11.245 27.9997 11.245C27.8308 11.245 27.6663 11.2985 27.5297 11.3977L25.2897 13.0249C24.6625 13.4809 23.8193 12.8673 24.0585 12.1305L24.9145 9.49686C24.9666 9.33613 24.9665 9.16302 24.9142 9.00234C24.8619 8.84167 24.7601 8.70169 24.6233 8.60246L22.3841 6.97606C21.7577 6.52006 22.0801 5.52806 22.8545 5.52806H25.6233C25.7921 5.52811 25.9566 5.47473 26.0933 5.37558C26.23 5.27643 26.3317 5.13658 26.3841 4.97606L27.2401 2.34246L27.2393 2.34166Z" fill="#C86400"/>
<path d="M47.2393 2.34166C47.4793 1.60486 48.5217 1.60486 48.7609 2.34166L49.6169 4.97526C49.6692 5.13565 49.7708 5.27541 49.9073 5.37455C50.0438 5.47369 50.2082 5.52714 50.3769 5.52726H53.1465C53.9217 5.52726 54.2433 6.51926 53.6169 6.97526L51.3769 8.60246C51.2401 8.70169 51.1383 8.84167 51.0859 9.00234C51.0336 9.16302 51.0335 9.33613 51.0857 9.49686L51.9417 12.1305C52.1817 12.8673 51.3377 13.4809 50.7097 13.0249L48.4697 11.3977C48.333 11.2985 48.1685 11.245 47.9997 11.245C47.8308 11.245 47.6663 11.2985 47.5297 11.3977L45.2897 13.0249C44.6625 13.4809 43.8193 12.8673 44.0585 12.1305L44.9145 9.49686C44.9666 9.33613 44.9665 9.16302 44.9142 9.00234C44.8619 8.84167 44.7601 8.70169 44.6233 8.60246L42.3841 6.97606C41.7577 6.52006 42.0801 5.52806 42.8545 5.52806H45.6233C45.7921 5.52811 45.9566 5.47473 46.0933 5.37558C46.23 5.27643 46.3317 5.13658 46.3841 4.97606L47.2401 2.34246L47.2393 2.34166Z" fill="#C86400"/>
<path d="M67.2393 2.34166C67.4793 1.60486 68.5217 1.60486 68.7609 2.34166L69.6169 4.97526C69.6692 5.13565 69.7708 5.27541 69.9073 5.37455C70.0438 5.47369 70.2082 5.52714 70.3769 5.52726H73.1465C73.9217 5.52726 74.2433 6.51926 73.6169 6.97526L71.3769 8.60246C71.2401 8.70169 71.1383 8.84167 71.0859 9.00234C71.0336 9.16302 71.0335 9.33613 71.0857 9.49686L71.9417 12.1305C72.1817 12.8673 71.3377 13.4809 70.7097 13.0249L68.4697 11.3977C68.333 11.2985 68.1685 11.245 67.9997 11.245C67.8308 11.245 67.6663 11.2985 67.5297 11.3977L65.2897 13.0249C64.6625 13.4809 63.8193 12.8673 64.0585 12.1305L64.9145 9.49686C64.9666 9.33613 64.9665 9.16302 64.9142 9.00234C64.8619 8.84167 64.7601 8.70169 64.6233 8.60246L62.3841 6.97606C61.7577 6.52006 62.0801 5.52806 62.8545 5.52806H65.6233C65.7921 5.52811 65.9566 5.47473 66.0933 5.37558C66.23 5.27643 66.3317 5.13658 66.3841 4.97606L67.2401 2.34246L67.2393 2.34166Z" fill="#C86400"/>
<path d="M87.2393 2.34166C87.4793 1.60486 88.5217 1.60486 88.7609 2.34166L89.6169 4.97526C89.6692 5.13565 89.7708 5.27541 89.9073 5.37455C90.0438 5.47369 90.2082 5.52714 90.3769 5.52726H93.1465C93.9217 5.52726 94.2433 6.51926 93.6169 6.97526L91.3769 8.60246C91.2401 8.70169 91.1383 8.84167 91.0859 9.00234C91.0336 9.16302 91.0335 9.33613 91.0857 9.49686L91.9417 12.1305C92.1817 12.8673 91.3377 13.4809 90.7097 13.0249L88.4697 11.3977C88.333 11.2985 88.1685 11.245 87.9997 11.245C87.8308 11.245 87.6663 11.2985 87.5297 11.3977L85.2897 13.0249C84.6625 13.4809 83.8193 12.8673 84.0585 12.1305L84.9145 9.49686C84.9666 9.33613 84.9665 9.16302 84.9142 9.00234C84.8619 8.84167 84.7601 8.70169 84.6233 8.60246L82.3841 6.97606C81.7577 6.52006 82.0801 5.52806 82.8545 5.52806H85.6233C85.7921 5.52811 85.9566 5.47473 86.0933 5.37558C86.23 5.27643 86.3317 5.13658 86.3841 4.97606L87.2401 2.34246L87.2393 2.34166Z" fill="#C86400"/>
</svg>
